<?xml version="1.0" standalone="no"?>
<!DOCTYPE svg PUBLIC "-//W3C//DTD SVG 20010904//EN"
 "http://www.w3.org/TR/2001/REC-SVG-20010904/DTD/svg10.dtd">
<svg version="1.0" xmlns="http://www.w3.org/2000/svg"
 width="1024.000000pt" height="1024.000000pt" viewBox="0 0 1024.000000 1024.000000"
 preserveAspectRatio="xMidYMid meet">
<metadata>
Created by potrace 1.14, written by Peter Selinger 2001-2017
</metadata>
<g transform="translate(0.000000,1024.000000) scale(0.100000,-0.100000)"
fill="#000000" stroke="none">
<path d="M4855 9383 c-326 -17 -765 -103 -1090 -212 l-142 -48 -109 34 c-244
74 -420 98 -669 90 -260 -8 -477 -56 -699 -153 -522 -228 -913 -675 -1071
-1224 -55 -190 -70 -308 -69 -535 0 -230 13 -319 75 -551 l41 -151 -51 -151
c-92 -275 -158 -578 -198 -902 -24 -205 -24 -715 0 -920 86 -706 303 -1312
674 -1879 528 -807 1322 -1416 2243 -1720 314 -104 839 -204 1050 -200 50 1
47 2 -38 15 -588 85 -1132 434 -1465 939 -322 489 -428 1110 -286 1685 207
837 914 1476 1764 1595 61 9 209 20 330 25 240 10 382 30 557 79 811 230 1407
912 1535 1758 22 146 22 450 0 596 -73 482 -293 911 -638 1242 -272 261 -588
437 -951 529 -230 59 -465 76 -793 59z m487 -438 c258 -34 487 -119 708 -263
720 -467 978 -1393 604 -2169 l-54 -112 -459 -3 -459 -3 -43 -30 c-116 -81
-122 -253 -14 -343 58 -47 90 -52 365 -52 l252 0 -54 -44 c-175 -142 -423
-267 -640 -322 -731 -185 -1483 119 -1880 758 -149 241 -227 488 -249 798 -13
172 -24 206 -83 257 -101 90 -264 58 -325 -62 -24 -46 -26 -60 -25 -166 6
-435 175 -899 461 -1263 142 -180 391 -396 592 -513 l97 -57 -146 -72 c-263
-131 -438 -255 -648 -459 -415 -402 -663 -878 -759 -1460 -26 -158 -26 -603 0
-760 23 -138 40 -213 78 -344 17 -57 28 -105 26 -107 -2 -2 -48 36 -103 85
-838 746 -1304 1777 -1304 2881 0 874 291 1703 841 2396 131 165 438 472 603
603 550 437 1181 709 1871 806 252 35 569 44 747 20z m-2443 -176 c-555 -337
-1032 -807 -1393 -1373 l-76 -119 0 84 c0 101 22 255 50 362 168 635 747 1090
1394 1096 l109 1 -84 -51z"/>
<path d="M4980 7660 c-152 -56 -255 -179 -282 -339 -31 -182 68 -369 239 -453
65 -32 73 -33 183 -33 110 0 118 1 183 33 127 62 215 180 239 321 31 182 -68
370 -239 453 -60 28 -79 32 -168 35 -81 3 -110 0 -155 -17z"/>
<path d="M7552 8075 c3 -11 18 -60 32 -110 37 -124 73 -308 87 -443 17 -169 7
-536 -20 -685 -47 -267 -117 -480 -231 -712 -256 -519 -650 -912 -1179 -1175
l-133 -67 58 -33 c654 -370 1079 -1074 1088 -1799 1 -117 -1 -129 -24 -171
-57 -102 -177 -138 -284 -86 -34 17 -63 41 -82 67 -25 36 -29 53 -37 157 -29
400 -123 678 -321 956 -258 360 -631 598 -1078 688 -163 32 -453 32 -616 0
-284 -57 -585 -197 -767 -356 l-40 -35 250 -1 c151 0 266 -5 290 -11 25 -7 58
-29 86 -58 38 -37 49 -56 58 -101 18 -93 -12 -172 -88 -225 l-43 -30 -454 -3
-454 -3 -26 -41 c-39 -61 -109 -230 -139 -333 -108 -373 -85 -786 62 -1135
225 -533 686 -905 1265 -1022 99 -20 142 -23 348 -23 248 1 375 11 607 51 543
92 1090 316 1543 632 411 287 780 672 1056 1104 95 149 259 469 321 628 131
335 215 678 255 1035 17 157 17 613 0 770 -40 357 -124 700 -255 1035 -62 159
-226 479 -321 628 -165 257 -354 490 -567 697 -165 160 -254 236 -247 210z
m-2252 -4701 c120 -58 203 -156 235 -279 53 -205 -42 -407 -235 -499 -61 -29
-72 -31 -180 -31 -108 0 -119 2 -180 31 -193 92 -288 295 -234 499 35 137 121
233 261 291 51 21 71 24 163 22 94 -3 112 -6 170 -34z"/>
<path d="M8760 2883 c-116 -197 -317 -461 -517 -678 -242 -263 -584 -543 -887
-726 l-89 -54 84 -3 c46 -2 132 4 191 13 704 103 1231 688 1265 1403 3 67 4
122 2 122 -2 0 -24 -35 -49 -77z"/>
<path d="M4933 853 c15 -2 39 -2 55 0 15 2 2 4 -28 4 -30 0 -43 -2 -27 -4z"/>
</g>
</svg>
