<?xml version="1.0" standalone="no"?>
<!DOCTYPE svg PUBLIC "-//W3C//DTD SVG 1.1//EN" "http://www.w3.org/Graphics/SVG/1.1/DTD/svg11.dtd" >
<svg xmlns="http://www.w3.org/2000/svg" xmlns:xlink="http://www.w3.org/1999/xlink" version="1.1">
<metadata></metadata>
<defs>
<font id="social_media_circledregular" horiz-adv-x="2160" >
<font-face units-per-em="2048" ascent="1638" descent="-410" />
<missing-glyph horiz-adv-x="508" />
<glyph unicode="&#xd;" horiz-adv-x="508" />
<glyph horiz-adv-x="0" />
<glyph unicode=" "  horiz-adv-x="508" />
<glyph unicode="&#x09;" horiz-adv-x="508" />
<glyph unicode="&#xa0;" horiz-adv-x="508" />
<glyph unicode="!" horiz-adv-x="1440" d="M70 -167l10 3q6 0 24 -10v-1q0 -10 -6 -54q34 39 44 40q5 0 7 -27l7 -38q25 41 32 41q6 -4 15 -19v-3q0 -2 -17 -25q-18 -31 -33 -66q-1 -8 -7 -8q-9 0 -21 66q-2 7 -2 12q-19 -18 -42 -55l-3 -2q-5 0 -5 9q0 7 -2 90v8v1v5q0 9 -1 33zM114 916v3q0 13 5 13h2q3 -1 3 -3 q-1 -12 -1 -13t8 -9v-1q0 -5 -5 -5q-12 5 -12 15zM137 315l3 95v10q0 16 -1 47q1 3 5 3q17 0 55 -26q13 -12 13 -27q0 -28 -26 -39q-7 -1 -7 -3q31 -15 31 -35q0 -28 -31 -40h-11q-16 0 -29 11zM156 921v4q0 21 9 28h4q3 -2 3 -5q-7 -8 -7 -27q1 -13 12 -29v-1q-1 -4 -5 -4 q-16 13 -16 34zM186 1479q2 4 21 14q44 37 94 51q24 9 26 14q0 2 4 2q7 0 15 -30q6 -16 14 -29v-4q0 -8 -54 -34l-43 -24v-19q0 -26 5 -51q9 0 72 24h6q10 0 10 -27q3 -16 3 -25q0 -5 -35 -27q-24 -15 -39 -15q-7 -4 -7 -30v-96q0 -11 7 -44v-16q-5 -9 -49 -30q-4 1 -4 6v2 q4 5 6 13q-8 0 -9 32q-11 111 -26 232q-12 65 -12 98zM198 912v6q0 25 11 53l1 1h2q5 0 5 -4q-10 -31 -10 -55q0 -23 10 -38q-1 -4 -5 -4q-11 0 -14 41zM210 -302q0 39 23 62q0 4 9 5h2q2 0 4 -8q13 -9 13 -25v-10q0 -34 -23 -65q-4 -4 -7 -4h-3q-15 0 -18 42v3zM228 392 q0 39 17 68q10 13 16 14h2q9 -10 19 -42v-5q0 -5 -13 -9q-5 -4 -5 -17v-10q0 -21 17 -25h8q6 -1 6 -6v-26q-8 -8 -19 -8q-31 0 -43 37q-5 12 -5 29zM234 916q0 12 8 12h3q6 0 16 -10q4 -4 13 -17q3 20 11 20h2q5 0 8 -19h1q3 8 9 8q8 0 13 -23q10 13 16 13q13 -2 13 -18v-4 q0 -19 -15 -48q-10 -12 -13 -13q10 -68 10 -113v-34q0 -10 -2 -27h1q25 -2 46 -2q15 0 58 1q-5 8 -5 16q-7 0 -15 33v4q0 8 6 26q-8 16 -8 25v5q0 9 6 17q6 31 10 36v8v1q0 17 9 22q8 1 8 4q-17 31 -17 81v31q0 26 16 70q3 15 5 102q5 47 12 71q21 54 33 77q21 29 25 31 q4 3 19 24q32 28 35 28q-3 4 -5 14q0 16 17 28q9 15 27 21q50 17 71 22q63 6 73 6h7q53 0 90 -20q23 -10 42 -29q23 -26 25 -42q1 -1 1 -4v-6l-1 -5q6 -6 25 -20q8 -12 30 -32q10 -17 37 -55q26 -51 26 -73q5 -19 5 -71l-3 -47q-6 -5 -6 -8l1 -5h1q12 11 23 11q18 0 33 -21 q5 -12 5 -23q0 -30 -16 -51q-2 -9 -6 -51q-5 -14 -12 -20h-2q-4 0 -4 3q-1 0 -6 -6q0 -9 1 -9v-5v-21l3 -23q0 -10 -3 -21q28 -88 28 -110v-5q0 -80 -12 -141q-14 -94 -14 -161q-1 0 -2 -22h1q3 2 37 3q0 1 14 2q5 0 10 -24q8 -20 8 -38v-9q-1 -19 -7 -19l-28 -6 q-29 -7 -68 -15v-1q1 -23 1 -33l-8 -62q-19 -79 -19 -82q-4 -28 -11 -107q26 -3 45 -4q15 0 67 10q10 1 33 2q0 11 23 11q1 0 17 2h2q17 -1 17 -8q7 -5 21 -56q6 -15 6 -26q0 -22 -15 -28q-5 -2 -9 -2h-5q-20 0 -36 55q-8 -7 -47 -16q-82 -17 -109 -28q-29 -10 -53 -24 q-33 -22 -40 -22q-14 0 -33 34q-21 31 -67 92q-68 92 -85 110q-10 11 -12 11q-48 -38 -113 -92q-34 -25 -70 -46l-78 -65q-36 -34 -46 -55q-6 -7 -15 -25l-19 -31h-4q-31 5 -53 17q-52 29 -52 60q0 21 19 21q30 0 53 -13h3q6 0 13 13q14 13 27 59q18 52 26 76q11 29 46 115 q14 27 30 98q2 14 5 20q-4 0 -6 19q-4 17 -15 93q-7 38 -26 98q-6 0 -6 7v3h3q-7 28 -18 93l-4 10h-45q-77 0 -89 12q-4 6 -13 72q-8 48 -8 66v10q0 36 13 117q1 0 1 1q-16 26 -19 53q-6 20 -6 36zM244 914q0 -30 17 -72q7 -8 7 -11l-1 -1q19 3 31 3q15 0 20 -6q0 1 7 10 q13 25 13 43q-1 10 -4 10q-10 -7 -14 -22q-3 -2 -5 -2q-6 0 -6 18l-4 15q-2 0 -7 -21l-2 -2h-2q-5 0 -7 16q0 2 -2 14q-2 0 -3 -14v-17q0 -1 -3 -3h-1q-6 0 -9 17q-12 25 -25 30v-5zM259 -160v-4q0 -31 70 -60q7 -3 24 -6q20 30 22 37q-17 10 -47 22q-2 3 -3 7l-1 -1 q-2 0 -25 10q-12 3 -23 3h-12q-5 -2 -5 -8zM268 593q3 -27 7 -27q12 -8 98 -8h14q11 0 16 4q5 0 9 -6q-2 -5 -2 -6q6 -16 16 -83q5 -21 7 -21h2q42 0 164 11v1q0 3 2 12q-12 0 -23 15q-5 11 -6 11h-1q-2 0 -5 -1q-7 0 -25 16q-4 3 -12 12q-21 3 -31 12q-14 14 -14 26v2 q0 4 4 10v1l-16 13q-7 8 -7 15v1q-147 -3 -195 -9q0 -1 -2 -1zM297 -342q0 40 11 69q-3 0 -3 5q5 7 10 7q7 0 19 -12q15 -20 15 -32v-5q0 -23 -21 -52q-8 -8 -14 -8h-3q-12 0 -14 21v7zM306 457v3q0 6 6 6h3q21 0 30 -12q6 -29 13 -46l5 -8v14q0 15 -3 47q0 5 17 5 q8 0 9 -18q6 -49 20 -98q1 0 3 -10q0 -4 -19 -9q0 -2 -7 -3q-4 0 -13 17q-10 12 -12 13v-1q0 -4 3 -36q-3 -2 -6 -2h-19l-8 -2h-1q-4 0 -6 4q-5 0 -5 17q-5 119 -10 119zM333 962q2 7 7 7q9 -2 27 -28q13 -22 13 -48v-1q0 -20 -8 -20h-1q-1 0 -3 3v3q3 4 3 16q0 35 -30 63 q-2 -1 -4 -1q-3 0 -4 6zM384 957q0 4 5 4q4 0 8 -18q5 -7 5 -16v-2q-1 -6 -6 -6h-2q-3 1 -3 5l2 4q0 2 -7 20q-2 7 -2 9zM390 -343q0 44 4 94h1q-4 2 -4 3v2q2 3 4 3q19 -1 54 -33q11 -16 11 -27v-7q0 -28 -18 -47q-18 -11 -36 -11l-9 -3q-7 6 -7 24v2zM426 1490v26 q0 70 35 95q35 38 52 38h25q36 0 54 -22q19 -11 28 -41q4 -10 4 -20v-13q-3 -35 -5 -52q-2 -15 -29 -74q-5 -8 -26 -28q-8 -8 -36 -14q-9 -4 -13 -4h-3q-21 0 -42 13q-15 5 -25 21l-12 32q-7 15 -7 43zM435 951q0 -87 15 -104q11 -32 15 -40q1 -2 5 -2l2 -3v-2l-2 -5 q21 -13 21 -24q7 -12 24 -34l14 -18l26 -15q1 0 9 -6q5 24 14 33q3 0 4 14q5 10 13 14q5 0 12 18q1 4 11 17q5 8 5 25v7q0 12 -1 30q0 9 5 9q3 0 5 -4v-5v-32q0 -20 -5 -31q14 17 27 23q3 2 10 3v2q-1 -1 -2 -1q-7 6 -23 13q-6 7 -6 10v4q0 10 14 14h6q10 -4 10 -7v-2 q0 -1 -3 -3q-4 0 -8 3h-2q-8 0 -8 -7q1 -3 2 -3q4 4 8 4t11 -7q9 -6 19 -6h2q6 0 33 16q2 2 8 3q5 0 8 -8q10 4 10 13q-1 8 -10 20q-1 2 -8 24q-8 15 -8 24v1q0 4 4 6q-1 5 -1 11l1 3q-1 35 -3 57q-6 25 -6 32q0 36 12 56q4 12 29 42q33 29 45 29q0 1 55 3q81 -1 81 -7 q22 -7 22 -25q-5 -16 -14 -16v-5q0 -11 -29 -25l-1 -2l9 -17q33 -24 37 -41q9 -13 9 -30v-8q3 -6 4 -25q0 -12 -12 -35q-28 -32 -40 -36q-42 -27 -87 -27q-25 0 -71 26q-22 8 -33 26v-1q12 -28 12 -35q12 -12 12 -26q0 -18 -28 -26h-1l-14 4q-5 -3 -6 -3h9q8 0 19 -14 q13 -6 21 -12q7 0 12 -11h2q4 0 10 -2q-8 24 -19 48q0 6 4 9h1q5 0 5 -4l-1 -5q12 -22 20 -48q1 -3 8 -4q0 -2 7 -9q6 -21 18 -21q5 -2 6 -6l21 7v1v1q0 17 15 23h3q2 0 6 -3q14 5 19 5h1q2 0 10 -3q28 33 40 33q11 0 11 7q4 7 17 17q0 2 14 10q16 19 16 32q4 17 14 36v3 q-2 27 -8 27q-11 8 -11 9q-1 2 -1 3q0 3 6 24v2l-3 16q2 19 2 21v8q0 11 6 11q4 -1 5 -1q20 7 20 8q2 13 3 46q0 72 -17 107q-12 27 -37 61q-15 23 -21 28q-9 7 -20 22l-23 17q-9 8 -11 12q-26 17 -44 26q-15 9 -21 9l-56 -23q-14 -6 -64 -12q-63 -5 -99 -5q-25 0 -41 10 q-6 -1 -40 -34q-3 -6 -20 -24q-13 -18 -20 -28q-9 -19 -16 -39q-26 -51 -26 -140v-11h1q1 11 26 59q10 11 28 11q26 0 40 -12h6h14q25 -4 25 -9q5 0 6 -11v-5q0 -20 -24 -20q-44 2 -48 8q-11 4 -20 4q-17 0 -23 -14q-21 -21 -25 -23q-3 -25 -11 -48q-9 -17 -14 -51zM442 954 q0 30 17 62l25 28q12 9 53 13q31 0 55 -22q42 -29 42 -42h1v7v4q0 32 -32 50q-18 19 -51 19t-46 -10q-11 -4 -13 -4q-4 2 -4 6q0 3 19 10q11 7 37 7h12q29 0 54 -21q33 -22 33 -54v-8q0 -5 -1 -22q1 -2 1 -4v-2q-1 -2 -3 -2v-5q6 -3 6 -14v-9q0 -12 -11 -28q-2 -10 -16 -21 q-1 0 -25 -15q-25 -9 -37 -9h-11q-37 0 -67 22q-13 8 -22 16q-5 0 -12 26q-4 15 -4 22zM451 954q5 -33 9 -33q5 6 41 28q16 15 73 22q15 0 21 1q3 -1 6 -1l1 1q4 -1 27 -3h2q0 16 -14 35q-49 43 -70 43h-14q-40 -4 -45 -13q-27 -28 -27 -35q-10 -24 -10 -45zM464 318 q6 -53 13 -81q0 -10 36 -25q19 -9 126 -21l134 -6q96 0 158 9q44 8 75 8q2 3 3 12q-1 22 -1 30q-30 -5 -42 -14q-26 -12 -46 -12q-20 -3 -32 -9q-5 3 -21 5q-66 13 -66 28q4 16 44 40q18 17 24 23h4q3 -1 3 -5q14 0 86 27q6 0 21 4h2q5 16 9 16v12l1 8h-1q-87 -12 -240 -25 q-41 -4 -156 -13q-33 -4 -122 -11h-2q-6 0 -9 1zM466 913q29 -27 59 -34q5 -1 27 -2h1v1q-15 4 -29 25q-7 16 -7 23q-3 -2 -5 -2q-5 0 -7 17q-5 -3 -10 -7q1 -7 5 -11v-3q-1 -3 -5 -3q-5 0 -8 12q-5 -3 -5 -4q2 -13 2 -16q-1 -3 -5 -3h-1q-3 0 -5 14q-7 -4 -7 -7zM478 1155 q1 3 13 8q12 9 66 20q22 9 35 9h20l24 4q5 0 5 -5v-1q0 -4 -31 -7h-18q-3 0 -56 -15q-21 -2 -46 -16q-3 -3 -6 -3q-6 0 -6 6zM493 -308q0 23 25 57q20 18 37 18q0 1 2 1q4 -1 4 -3l-1 -4l7 -34v-5q0 -6 -5 -6h-5q-21 0 -26 -14l-1 -6q0 -11 16 -18q4 -1 8 -1q15 0 24 6h1 q3 -1 3 -2v-3q0 -5 -1 -8q1 -5 1 -9v-15q0 -7 -18 -10h-10q-32 0 -54 26q-7 12 -7 23v7zM499 1192q0 15 65 23q14 3 47 7q0 1 2 1q5 -2 5 -5q0 -7 -44 -10q-43 -8 -61 -14q-7 -7 -10 -7q-3 2 -4 5zM513 946q0 -3 3 -14h1v16h1h-1q-4 -1 -4 -2zM515 1007q0 10 28 13 q22 0 38 -15v-1q0 -4 -5 -4q-18 10 -29 10h-5q-13 0 -22 -8q-5 0 -5 5zM518 849v1q0 5 4 5q9 -2 12 -2h3q30 0 75 28q23 19 23 25q9 15 9 16h4q3 -1 3 -2v-3q-12 -26 -19 -30q-22 -23 -46 -31q-32 -13 -49 -13q-19 2 -19 6zM536 1237q1 2 4 4h7q23 0 57 15q0 1 21 4 q5 -2 5 -5q0 -5 -19 -7q-39 -16 -60 -16h-9q-6 0 -6 5zM550 925q0 -13 9 -13q3 1 3 4v1q0 8 -12 10v-2zM599 -242l3 3q39 -3 39 -5l1 -3q-3 -28 -3 -34v-8q0 -16 11 -22h1q8 4 9 58q3 4 5 4q25 -6 25 -10v-2q0 -37 -14 -77q-11 -24 -31 -24q-41 0 -41 85q0 4 -5 34v1z M614 960q6 -6 10 -36v-2q0 -4 -4 -16h2l14 26q2 6 2 14q0 11 -5 11q-1 -6 -5 -6q-3 0 -5 9q-2 1 -3 1h-6v-1zM621 693q5 0 21 -17q1 0 11 -7q5 5 5 11q-7 0 -11 20q0 3 -5 4q0 2 -13 9h-1h-1l-2 -7v-2q-3 -5 -4 -11zM631 725q7 -10 16 -10h1q7 10 20 10q11 8 18 9 q6 -2 12 -2q2 0 10 10q4 3 7 3v1q-6 0 -13 7l-5 -1q-9 0 -17 8q-14 -10 -24 -10q-2 1 -3 1q-7 -18 -21 -24q-1 0 -1 -2zM647 1051q0 1 4 4q6 0 9 -17q5 -10 5 -28v-15q-1 -42 -1 -47v-3l1 -4q-2 -5 -4 -5h-3q-3 2 -3 5q0 28 1 71q0 10 -9 39zM653 1070v1q2 4 6 4 q12 -6 18 -6q10 0 23 36q6 9 10 9q2 0 4 -4q0 -2 -8 -14q-12 -36 -27 -36h-4q-22 3 -22 10zM680 1255v1q0 4 25 4q58 5 110 7q47 8 57 8q19 0 46 -18q6 -1 6 -5q0 -3 -5 -5q-4 0 -20 11q-16 7 -25 7h-5q-4 0 -61 -8q-49 -1 -124 -7q-4 0 -4 5zM693 1030q0 12 7 12q1 0 4 -3 l-1 -9v-1q0 -18 2 -31q-1 -4 -3 -5h-2q-5 0 -5 13q-2 21 -2 24zM694 871v1q0 2 5 13q1 4 1 7q-5 22 -5 25q0 2 1 17q0 2 -2 14q1 7 6 7q4 -1 4 -5v-1q0 -8 1 -17l-1 -12q0 -3 5 -27v-4q0 -11 -9 -21h-2q-1 0 -4 3zM696 1508q3 12 4 12v28v46q0 22 -2 77q6 7 44 13l12 1 q7 0 12 -22q14 -38 43 -69q10 -12 16 -18v1q2 38 4 103q0 10 22 10q4 0 39 3q8 0 8 -24q2 -28 2 -65v-86q0 -18 -14 -18q-12 -3 -22 -3h-9q-45 0 -51 6q-13 12 -33 62l-7 14q-8 -40 -8 -75v-16q-1 -6 -6 -6h-1q-13 0 -39 13q-14 9 -14 13zM718 1203q0 6 24 6q1 0 107 4 q40 -1 40 -7q14 -12 30 -16q16 -10 18 -17v-1q-1 -3 -4 -3h-2q-16 16 -29 17q-9 4 -21 15q-8 2 -20 2h-19q-99 -3 -119 -6q-4 0 -5 6zM720 -249q0 4 23 7l5 5h2q1 0 4 -1q2 0 2 1q7 -1 10 -1q2 0 37 1q5 0 11 -23v-3q0 -7 -18 -7q-16 -6 -18 -7q0 -15 4 -78q0 -9 -27 -9 q-5 0 -5 16v35q0 14 3 31q-17 -5 -22 -5q-7 0 -7 12q0 8 -4 24v2zM724 744q1 0 7 -5l5 1q2 0 4 -3v-5q0 -17 -2 -36q1 -5 2 -5q0 2 22 21q2 3 2 5q-2 8 -2 10q-11 0 -19 10q-12 7 -14 7h-5zM758 953l1 -5q13 13 42 21q22 8 57 8q41 -3 47 -9q23 -7 42 -15h1q8 20 8 33v3l2 2 v4q0 18 -14 40q-17 19 -35 28q-17 7 -35 7h-5q-34 0 -75 -35q-34 -40 -36 -72v-10zM764 937q29 -32 35 -32q5 -3 7 -3v1q-9 17 -9 27q0 18 4 29q-9 -2 -9 -6v-2v-3q-1 -3 -3 -4h-3q-4 1 -4 9q-1 -2 -2 -2l1 -1l-1 -5q2 -7 2 -9q-1 -4 -5 -4h-1q-5 2 -5 14q-4 -3 -7 -6v-3z M778 1233q2 4 6 4q57 4 65 4q27 0 69 -21q15 -3 15 -7q0 -5 -5 -5q-7 0 -49 19q-12 4 -31 5q-55 -4 -63 -4h-2q-5 0 -5 5zM804 836v1q2 3 4 3q13 -5 45 -5q31 0 61 15q44 33 44 46q0 5 5 5h1q3 -1 4 -4q0 -13 -17 -26q-16 -18 -39 -33q-31 -12 -54 -12h-9q-42 1 -44 6 q-1 2 -1 4zM809 1302v4q0 2 8 4q18 -2 21 -2q27 4 31 4q3 0 38 -10q10 0 10 -7q0 -1 -3 -4q-6 0 -42 11h-5q-23 -3 -28 -3h-3q-10 0 -18 1h-7zM811 242q0 -1 2 -2v1q0 1 -2 1zM814 486q2 -7 4 -7q53 6 110 8q27 4 45 6q0 1 14 2q1 2 5 2q1 22 1 28q0 18 -4 42l3 3h2 q4 0 7 -5l-1 -4q2 -22 2 -36q0 -13 -1 -29q4 -31 4 -49v-26q10 1 15 1h14q4 0 11 1q0 33 14 133q8 38 8 63h-1q-4 0 -5 1q-5 0 -57 -5h-80q-9 0 -17 -7q-8 -5 -10 -7v-1q0 -28 -10 -37q-7 -4 -15 -4h-1v-1q0 -20 -17 -28q-3 0 -4 -9q-4 -9 -14 -12q-12 0 -22 -23zM827 253 q0 -2 2 -18v-1q13 -7 49 -12q4 -1 10 -1q7 9 8 18v1h-3q-3 -3 -6 -3q-5 0 -5 5q0 3 8 9q3 5 3 7v1q0 2 -7 3q-6 -2 -9 -2q-3 3 -3 5q1 4 9 7q2 4 2 6v4q0 5 -8 9q-5 -1 -8 -1h-2q-19 -18 -40 -31v-3v-3zM830 926q6 -7 7 -7l2 3v2l-7 8q-2 -4 -2 -6zM836 -270q1 34 4 34t3 4 l4 2q3 0 3 -4h8q5 0 37 -3l33 2q7 0 7 -16q2 -22 2 -26q-1 -3 -4 -5h-20l-5 1v-31l1 -4q0 -1 -1 -1q1 -9 1 -14v-17q0 -7 -14 -7q-11 -4 -14 -4h-1q-4 2 -4 7v33v4v2v6v21v9q-5 2 -11 2h-25q-3 1 -4 5zM844 1025v1q0 5 21 6h1q15 0 36 -11q0 -2 2 -4v-3q-1 -3 -4 -3 q-17 11 -32 11h-8q-3 0 -12 -2q-4 1 -4 5zM858 1378l23 -12l15 -9q-13 22 -30 22h-8v-1zM886 964q1 0 6 -4h1v4h-4h-3zM893 270q9 -3 9 -10v-4q0 -3 -2 -7q2 0 4 -5q54 6 54 11q9 4 23 7q-1 3 -1 8v21h-2q-4 0 -24 -7q-24 -4 -51 -6q-10 -3 -10 -6v-2zM897 905h1q16 7 29 23 q13 11 13 18q-13 5 -20 7v-8l1 -4q-1 -3 -4 -5h-3q-3 0 -4 12l1 9q-6 2 -9 2q0 -6 -3 -10q3 -6 3 -17v-3q0 -10 -5 -24zM947 1525q0 35 6 86q-2 3 -2 4q0 24 19 28q2 0 19 3q28 -4 38 -7q20 -9 83 -28q24 -10 24 -17v-1q-14 -72 -16 -77q-1 -4 -6 -4q-6 0 -68 6 q-13 -95 -20 -166q-2 -49 -5 -49q-2 0 -3 -1q-25 6 -25 16v1q5 131 11 198q0 6 -7 6q-12 0 -43 -5q-5 2 -5 7zM955 1236q3 8 8 8q5 -2 5 -7q0 -4 -5 -6h-2q-6 1 -6 5zM956 1270q1 5 5 5q5 0 8 -5v-3q-3 -4 -6 -4q-7 1 -7 7zM959 -207q0 7 7 7q0 2 1 2h3l3 -4h9q16 2 21 2h3 q11 0 19 -18v-2q0 -8 -10 -8q-24 -2 -26 -5q2 -8 2 -13v-7q1 -1 2 -1q20 4 26 4h6q13 0 13 -23v-1q0 -7 -27 -8h-8l1 -7v-21q20 0 41 7h4q9 0 12 -28q1 0 1 -4q0 -5 -10 -6q-3 0 -32 1q-17 0 -39 -5h-6q-6 0 -9 79q-7 46 -7 54v5zM966 1212q3 7 8 7q4 0 5 -6v-1q0 -6 -8 -6 q-5 2 -5 6zM969 1181v3q1 6 6 6q7 -2 7 -7q0 -3 -8 -5q-4 1 -5 3zM974 1151v4q3 4 7 4t5 -5q-1 -7 -6 -7h-3q-1 0 -3 4zM982 1122q0 4 5 4h2q7 -2 7 -7q-3 -6 -8 -6q-6 2 -6 9zM984 1229q0 7 6 7q6 -2 6 -4v-2q0 -7 -6 -7q-6 1 -6 6zM988 1087q0 3 5 4q10 -2 10 -9 q-2 -5 -5 -5q-10 0 -10 10zM988 1176q0 4 6 5l1 -1l3 1q5 -2 5 -5q-2 -7 -7 -7h-1q-7 1 -7 7zM989 271q0 -7 2 -7q6 3 10 16v4v7q0 6 6 6q4 0 5 -15q0 -7 6 -12h1q5 4 5 11v3q0 3 -1 10q1 6 5 6q7 -2 7 -14q4 -9 7 -10h2q2 0 5 9l-1 5v6q0 4 3 5h2q6 0 6 -6v-7q1 -7 7 -7 l3 3v7q-10 31 -21 31q0 -15 -5 -15h-2q-2 0 -5 7q-5 6 -30 10q-7 6 -10 9q-7 -29 -7 -62zM993 1138q2 10 4 10h4q1 0 3 -6q-2 -9 -7 -9q-4 0 -4 5zM994 1060q0 6 8 6q6 -3 6 -7q-2 -8 -7 -8q-7 3 -7 9zM996 1201q0 2 4 5h1q7 -1 7 -6q-3 -6 -7 -6h-1q-4 2 -4 7zM1001 1099 q0 2 5 6h1q5 0 5 -6q-2 -6 -7 -6q-4 2 -4 6zM1003 345q0 -9 7 -12l24 -6q1 3 5 6q5 52 5 73v7h-15q-15 0 -24 -2v-33l-1 -7q1 -1 2 -1v-2q-2 0 -2 -2q-1 -13 -1 -21zM1005 267h3q0 2 -2 2q0 -1 -1 -2zM1009 1160q3 6 8 6q6 0 7 -7q-2 -7 -7 -7h-2q-6 0 -6 8zM1011 1125 q0 4 4 6h2q4 0 7 -5v-2q0 -5 -7 -6h-2q-4 2 -4 7zM1015 1068v1q0 1 3 3h1q10 -2 10 -7q-2 -5 -7 -5q-7 0 -7 8zM1017 1087v3q0 6 5 6q5 -2 5 -6q0 -5 -6 -7q-3 1 -4 4zM1026 1007q0 -2 1 -20v-18q13 0 16 -17q0 -33 19 -53l1 -5q2 0 5 45q1 0 1 5l-1 -1q-6 0 -9 18v8 q0 11 12 21l2 5v2q0 7 -7 9q-11 0 -19 -16q0 -7 -5 -7q-3 0 -5 6q0 9 15 22q6 4 14 4q13 0 17 -19q-5 -17 -11 -17q-3 -5 -3 -8v-7q0 -3 2 -14h1q14 21 14 40v6q0 11 -7 22q-13 11 -20 11h-4q-7 0 -23 -14q0 -2 -6 -8zM1043 956v4q2 11 9 11h2q1 0 3 -3v-1q0 -2 -5 -7v-2 q11 -17 11 -21q0 -8 -6 -8h-2q-1 0 -3 3v3l2 2q-9 15 -11 19zM1069 314q9 -16 9 -28q0 -1 -1 -7q34 4 34 8q0 22 -5 32q-11 -2 -29 -2q0 -1 -8 -3zM1089 -316q3 54 3 62v14q0 4 -2 56v16q0 9 24 11q25 0 43 -19q6 -12 6 -21q0 -20 -32 -41v-1q15 -11 51 -33l2 -3v-3 q-16 -18 -18 -18h-3q-19 7 -43 15l3 -38q-3 -2 -7 -3l-18 2q0 -1 -5 -2q-4 1 -4 5v1zM1099 1157q19 28 19 29q7 12 26 53q13 20 32 47q0 2 1 2q-3 6 -38 27q-32 25 -32 32q0 8 79 89q22 24 44 50q2 2 5 2q5 -4 14 -6l2 -3l-1 -5q24 -21 24 -27v-4q0 -2 -21 -28q0 -4 -39 -41 q0 -6 25 -27q13 -15 29 -30q3 -4 3 -7v-3q0 -11 -45 -63q-62 -80 -84 -111q-5 -4 -10 -4q-22 8 -32 23q-1 0 -1 5zM1101 512q0 6 3 9q-2 4 -2 6v1q2 5 8 5h1q1 0 2 -3q1 0 10 3q7 0 9 -20q0 -2 3 -23q10 17 14 17q3 -1 13 -19l3 -3q7 45 16 45h3q30 -2 30 -12v-2 q0 -3 -11 -46q-3 -38 -6 -59q-5 -20 -16 -20q-15 0 -35 49h-2q-14 -33 -14 -46q-3 -5 -6 -5q-8 0 -13 53q-10 63 -10 70zM1136 -30v-1q4 -2 9 -20q1 -12 4 -12q4 0 5 -8l-1 -3q15 -55 31 -55h1q17 0 17 21q0 11 -21 71q-6 9 -9 9h-7q-26 -2 -29 -2zM1210 -269q0 10 4 24 q1 3 3 3q23 -6 23 -24v-3q0 -14 -17 -17q-13 3 -13 13v4zM1226 546q0 8 4 10h1l3 -1q0 7 6 8h21q5 0 5 -20q1 -13 1 -21h1q6 9 10 9h2q3 -2 12 -20q11 -17 12 -17q14 15 22 43l3 3h3q7 0 23 -22q2 -3 2 -7v-3q-14 -34 -28 -83q-4 -9 -9 -9q-9 0 -40 44q-6 10 -7 10 q-11 -44 -14 -49l-4 -1q-9 0 -23 83q-6 28 -6 43zM1231 -139q0 5 26 23q6 6 11 6q21 -4 21 -11v-3q0 -7 -18 -19q7 -10 7 -13q6 0 14 9q2 1 3 1q8 0 15 -18v-1q0 -8 -19 -20q0 -1 7 -16q2 0 13 13h3q25 -23 25 -25v-2q-16 -11 -30 -25q-12 -14 -17 -14q-8 0 -21 32 q-18 34 -34 78q-6 2 -6 4v1zM1302 -100q11 35 23 57q1 0 3 1q15 -1 24 -2q4 1 8 1q5 -1 5 -5t-11 -30l-1 -4l36 -12q8 -3 8 -7v-3q-11 -76 -25 -90h-3q-14 6 -21 6q-2 2 -2 3q4 46 9 69v1q0 5 -49 7q-4 5 -4 7v1z" />
<glyph unicode="&#x22;" horiz-adv-x="2167" d="M40 651q0 588 550 923q241 116 483 116q562 0 898 -525q128 -241 128 -471v-79q0 -379 -324 -709q-314 -275 -672 -275h-67q-472 0 -819 446q-177 283 -177 574zM535 328q0 -23 336 -184q12 6 18 6v746l-342 171q-12 -2 -12 -12v-727zM926 505q0 -44 134 -92 q119 -67 184 -92q-281 454 -306 501h-12v-317zM1042 719q217 -351 226 -373q5 1 342 550q-6 0 -342 171h-12q-25 -19 -214 -342v-6zM1286 303q7 -12 306 -159q12 6 18 6v666q-13 -7 -324 -513z" />
<glyph unicode="#" horiz-adv-x="2154" d="M40 563v213q29 184 97 341q98 178 244 311q308 262 676 262q548 0 890 -500q146 -264 146 -530q0 -519 -469 -865q-280 -164 -561 -164q-502 0 -834 432q-128 172 -177 409q0 3 -12 91zM771 210q4 -73 55 -73h487q33 0 49 30v950q-14 37 -85 37h-415q-91 0 -91 -73v-841 q0 -14 6 -24q0 -6 -6 -6zM820 319v731q2 13 12 13h475q12 -2 12 -13v-731q0 -12 -12 -12h-475q-12 0 -12 12zM1033 228q8 25 30 36h13q22 -11 30 -36q0 -37 -43 -37q-30 10 -30 37z" />
<glyph unicode="$" horiz-adv-x="2167" d="M50 630v79q0 197 141 471q230 364 635 476q134 31 245 31q529 0 856 -440q189 -281 189 -599q0 -225 -128 -489q-210 -359 -599 -489q-159 -43 -257 -43h-122q-193 0 -465 147q-316 189 -452 587q-43 160 -43 269zM606 128h6q11 -6 25 -6h330l43 6v196q0 60 -110 110 l-6 12v6q16 30 24 31q5 0 73 -49h19v165q2 12 12 12h92q8 0 18 -18v-73q0 -7 -6 -7q6 -18 12 -18q61 37 79 37q9 0 19 -19v-12q-9 -20 -104 -67q0 -49 -6 -49q6 -12 6 -18q15 0 159 79h12q18 -6 18 -37q-177 -91 -195 -116l6 -12v-153l30 -6h386q12 0 12 12l-477 1137h-6 q-428 -1022 -471 -1143z" />
<glyph unicode="%" horiz-adv-x="2183" d="M60 670q0 457 378 786q182 159 469 219q89 12 97 12h159q196 0 469 -152q310 -197 432 -555q55 -174 55 -316q0 -495 -433 -841q-277 -189 -609 -189q-418 0 -743 329q-274 307 -274 707zM663 225q36 -40 256 -189q0 -12 43 -12q154 99 682 408l6 12v256q0 6 6 6 q0 49 -146 73q-78 31 -451 140h-18q107 -280 152 -280q133 -52 134 -67q-419 -232 -603 -317v7l219 207v682q-27 34 -280 91v-1017z" />
<glyph unicode="&#x26;" horiz-adv-x="2098" d="M0 631v66q0 342 267 656q331 334 753 334q504 0 844 -443q182 -267 182 -589q0 -394 -285 -704q-172 -169 -334 -231q-210 -85 -358 -85h-98q-199 0 -479 146q-317 197 -443 564q-49 137 -49 286zM510 958q6 -10 6 -30q157 0 200 -97q201 -232 201 -267v-146 q-1 -8 -31 -24h-48q-14 0 -24 -6l-13 6q-30 -8 -30 -18v-19q2 -12 12 -12h413l30 6v43h-115q-36 0 -36 91v67q0 79 285 273q127 12 127 61h-394v-25q0 -18 127 -36v-6q-40 -57 -188 -170q-6 0 -200 267q2 12 12 12h30q97 0 97 18v19l-6 12l-12 -6h-407l-30 6q0 -7 -6 -19z M1402 382l61 -6q0 9 12 54q-32 12 -66 12l-7 -12v-48zM1421 479h36q21 0 73 261h-6l-103 18v-279z" />
<glyph unicode="'" horiz-adv-x="2180" d="M60 674q0 517 481 858q269 158 559 158q85 -3 85 -12q6 0 6 6q266 -40 432 -146q309 -191 451 -584q36 -152 36 -262v-85q0 -367 -335 -712q-235 -194 -517 -249q-116 -12 -121 -12h-85q-325 0 -645 255q-347 324 -347 785zM662 1021q69 -487 91 -487q145 -97 311 -97h79 q13 0 24 6q6 0 6 -6q310 41 310 182l61 390v18q0 99 -359 146q-6 0 -6 -6l-61 6h-30l-61 -6v6q-365 -45 -365 -146v-6zM772 437q30 -225 79 -225q103 -61 207 -61h91q255 23 255 146l31 134q-9 24 -18 24q-139 -91 -262 -91h-91q-127 0 -268 91h-6q-9 0 -18 -18zM826 1033 v12q0 37 189 55h189q182 -22 182 -55v-6q-20 -53 -286 -61q-244 8 -274 55zM960 686q43 128 122 128h43q95 0 121 -146v-6q-44 -128 -140 -128q-122 0 -146 152zM1033 680q17 -73 73 -73q33 0 67 55v24q-14 61 -61 61h-18q-46 0 -61 -67z" />
<glyph unicode="(" horiz-adv-x="2150" d="M50 684q0 7 6 18q0 6 -6 6q0 132 78 344q61 164 266 368q314 260 670 260h6q491 0 833 -429q187 -281 187 -549v-84q0 -427 -386 -767q-288 -217 -640 -217q-541 0 -881 513q-133 239 -133 537zM460 654q265 -83 284 -103q79 -277 97 -295q24 0 24 -6q19 0 151 132h12 l247 -181h42q30 0 139 580q37 143 55 253v6q-21 36 -31 36q-46 0 -374 -132q-496 -187 -634 -248l-12 -18v-24z" />
<glyph unicode=")" horiz-adv-x="2176" d="M40 649q0 553 511 899q266 142 530 142q513 0 850 -444q191 -284 191 -591q0 -539 -474 -875q-179 -111 -253 -111l-24 31v265q-4 48 -56 117q216 36 314 123q130 132 130 345v74q-10 88 -80 197q-9 0 -19 19q19 59 19 105v12q-14 148 -43 148q-101 0 -259 -105 q-131 31 -185 31h-135q-32 0 -179 -31q-150 105 -265 105q-26 -39 -37 -154v-13q18 -92 18 -98q-98 -130 -98 -277q0 -301 222 -413q71 -43 203 -62h18v-12q-35 -39 -61 -129q-54 -19 -123 -19h-7q-90 0 -184 154q-67 56 -130 56l-31 -13q0 -17 93 -98q21 -24 86 -154 q67 -68 210 -68q38 6 86 6l6 -12v-117q-31 -37 -31 -50q-403 113 -597 388q-216 287 -216 629z" />
<glyph unicode="*" horiz-adv-x="1440" d="M70 -167l10 3q6 0 24 -10v-1q0 -10 -6 -54q34 39 44 40q5 0 7 -27l7 -38q25 41 32 41q6 -4 15 -19v-3q0 -2 -17 -25q-18 -31 -33 -66q-1 -8 -7 -8q-9 0 -21 66q-2 7 -2 12q-19 -18 -42 -55l-3 -2q-5 0 -5 9q0 7 -2 90v8v1v5q0 9 -1 33zM114 916v3q0 13 5 13h2q3 -1 3 -3 q-1 -12 -1 -13t8 -9v-1q0 -5 -5 -5q-12 5 -12 15zM137 315l3 95v10q0 16 -1 47q1 3 5 3q17 0 55 -26q13 -12 13 -27q0 -28 -26 -39q-7 -1 -7 -3q31 -15 31 -35q0 -28 -31 -40h-11q-16 0 -29 11zM156 921v4q0 21 9 28h4q3 -2 3 -5q-7 -8 -7 -27q1 -13 12 -29v-1q-1 -4 -5 -4 q-16 13 -16 34zM186 1479q2 4 21 14q44 37 94 51q24 9 26 14q0 2 4 2q7 0 15 -30q6 -16 14 -29v-4q0 -8 -54 -34l-43 -24v-19q0 -26 5 -51q9 0 72 24h6q10 0 10 -27q3 -16 3 -25q0 -5 -35 -27q-24 -15 -39 -15q-7 -4 -7 -30v-96q0 -11 7 -44v-16q-5 -9 -49 -30q-4 1 -4 6v2 q4 5 6 13q-8 0 -9 32q-11 111 -26 232q-12 65 -12 98zM198 912v6q0 25 11 53l1 1h2q5 0 5 -4q-10 -31 -10 -55q0 -23 10 -38q-1 -4 -5 -4q-11 0 -14 41zM210 -302q0 39 23 62q0 4 9 5h2q2 0 4 -8q13 -9 13 -25v-10q0 -34 -23 -65q-4 -4 -7 -4h-3q-15 0 -18 42v3zM228 392 q0 39 17 68q10 13 16 14h2q9 -10 19 -42v-5q0 -5 -13 -9q-5 -4 -5 -17v-10q0 -21 17 -25h8q6 -1 6 -6v-26q-8 -8 -19 -8q-31 0 -43 37q-5 12 -5 29zM234 916q0 12 8 12h3q6 0 16 -10q4 -4 13 -17q3 20 11 20h2q5 0 8 -19h1q3 8 9 8q8 0 13 -23q10 13 16 13q13 -2 13 -18v-4 q0 -19 -15 -48q-10 -12 -13 -13q10 -68 10 -113v-34q0 -10 -2 -27h1q25 -2 46 -2q15 0 58 1q-5 8 -5 16q-7 0 -15 33v4q0 8 6 26q-8 16 -8 25v5q0 9 6 17q6 31 10 36v8v1q0 17 9 22q8 1 8 4q-17 31 -17 81v31q0 26 16 70q3 15 5 102q5 47 12 71q21 54 33 77q21 29 25 31 q4 3 19 24q32 28 35 28q-3 4 -5 14q0 16 17 28q9 15 27 21q50 17 71 22q63 6 73 6h7q53 0 90 -20q23 -10 42 -29q23 -26 25 -42q1 -1 1 -4v-6l-1 -5q6 -6 25 -20q8 -12 30 -32q10 -17 37 -55q26 -51 26 -73q5 -19 5 -71l-3 -47q-6 -5 -6 -8l1 -5h1q12 11 23 11q18 0 33 -21 q5 -12 5 -23q0 -30 -16 -51q-2 -9 -6 -51q-5 -14 -12 -20h-2q-4 0 -4 3q-1 0 -6 -6q0 -9 1 -9v-5v-21l3 -23q0 -10 -3 -21q28 -88 28 -110v-5q0 -80 -12 -141q-14 -94 -14 -161q-1 0 -2 -22h1q3 2 37 3q0 1 14 2q5 0 10 -24q8 -20 8 -38v-9q-1 -19 -7 -19l-28 -6 q-29 -7 -68 -15v-1q1 -23 1 -33l-8 -62q-19 -79 -19 -82q-4 -28 -11 -107q26 -3 45 -4q15 0 67 10q10 1 33 2q0 11 23 11q1 0 17 2h2q17 -1 17 -8q7 -5 21 -56q6 -15 6 -26q0 -22 -15 -28q-5 -2 -9 -2h-5q-20 0 -36 55q-8 -7 -47 -16q-82 -17 -109 -28q-29 -10 -53 -24 q-33 -22 -40 -22q-14 0 -33 34q-21 31 -67 92q-68 92 -85 110q-10 11 -12 11q-48 -38 -113 -92q-34 -25 -70 -46l-78 -65q-36 -34 -46 -55q-6 -7 -15 -25l-19 -31h-4q-31 5 -53 17q-52 29 -52 60q0 21 19 21q30 0 53 -13h3q6 0 13 13q14 13 27 59q18 52 26 76q11 29 46 115 q14 27 30 98q2 14 5 20q-4 0 -6 19q-4 17 -15 93q-7 38 -26 98q-6 0 -6 7v3h3q-7 28 -18 93l-4 10h-45q-77 0 -89 12q-4 6 -13 72q-8 48 -8 66v10q0 36 13 117q1 0 1 1q-16 26 -19 53q-6 20 -6 36zM244 914q0 -30 17 -72q7 -8 7 -11l-1 -1q19 3 31 3q15 0 20 -6q0 1 7 10 q13 25 13 43q-1 10 -4 10q-10 -7 -14 -22q-3 -2 -5 -2q-6 0 -6 18l-4 15q-2 0 -7 -21l-2 -2h-2q-5 0 -7 16q0 2 -2 14q-2 0 -3 -14v-17q0 -1 -3 -3h-1q-6 0 -9 17q-12 25 -25 30v-5zM259 -160v-4q0 -31 70 -60q7 -3 24 -6q20 30 22 37q-17 10 -47 22q-2 3 -3 7l-1 -1 q-2 0 -25 10q-12 3 -23 3h-12q-5 -2 -5 -8zM268 593q3 -27 7 -27q12 -8 98 -8h14q11 0 16 4q5 0 9 -6q-2 -5 -2 -6q6 -16 16 -83q5 -21 7 -21h2q42 0 164 11v1q0 3 2 12q-12 0 -23 15q-5 11 -6 11h-1q-2 0 -5 -1q-7 0 -25 16q-4 3 -12 12q-21 3 -31 12q-14 14 -14 26v2 q0 4 4 10v1l-16 13q-7 8 -7 15v1q-147 -3 -195 -9q0 -1 -2 -1zM297 -342q0 40 11 69q-3 0 -3 5q5 7 10 7q7 0 19 -12q15 -20 15 -32v-5q0 -23 -21 -52q-8 -8 -14 -8h-3q-12 0 -14 21v7zM306 457v3q0 6 6 6h3q21 0 30 -12q6 -29 13 -46l5 -8v14q0 15 -3 47q0 5 17 5 q8 0 9 -18q6 -49 20 -98q1 0 3 -10q0 -4 -19 -9q0 -2 -7 -3q-4 0 -13 17q-10 12 -12 13v-1q0 -4 3 -36q-3 -2 -6 -2h-19l-8 -2h-1q-4 0 -6 4q-5 0 -5 17q-5 119 -10 119zM333 962q2 7 7 7q9 -2 27 -28q13 -22 13 -48v-1q0 -20 -8 -20h-1q-1 0 -3 3v3q3 4 3 16q0 35 -30 63 q-2 -1 -4 -1q-3 0 -4 6zM384 957q0 4 5 4q4 0 8 -18q5 -7 5 -16v-2q-1 -6 -6 -6h-2q-3 1 -3 5l2 4q0 2 -7 20q-2 7 -2 9zM390 -343q0 44 4 94h1q-4 2 -4 3v2q2 3 4 3q19 -1 54 -33q11 -16 11 -27v-7q0 -28 -18 -47q-18 -11 -36 -11l-9 -3q-7 6 -7 24v2zM426 1490v26 q0 70 35 95q35 38 52 38h25q36 0 54 -22q19 -11 28 -41q4 -10 4 -20v-13q-3 -35 -5 -52q-2 -15 -29 -74q-5 -8 -26 -28q-8 -8 -36 -14q-9 -4 -13 -4h-3q-21 0 -42 13q-15 5 -25 21l-12 32q-7 15 -7 43zM435 951q0 -87 15 -104q11 -32 15 -40q1 -2 5 -2l2 -3v-2l-2 -5 q21 -13 21 -24q7 -12 24 -34l14 -18l26 -15q1 0 9 -6q5 24 14 33q3 0 4 14q5 10 13 14q5 0 12 18q1 4 11 17q5 8 5 25v7q0 12 -1 30q0 9 5 9q3 0 5 -4v-5v-32q0 -20 -5 -31q14 17 27 23q3 2 10 3v2q-1 -1 -2 -1q-7 6 -23 13q-6 7 -6 10v4q0 10 14 14h6q10 -4 10 -7v-2 q0 -1 -3 -3q-4 0 -8 3h-2q-8 0 -8 -7q1 -3 2 -3q4 4 8 4t11 -7q9 -6 19 -6h2q6 0 33 16q2 2 8 3q5 0 8 -8q10 4 10 13q-1 8 -10 20q-1 2 -8 24q-8 15 -8 24v1q0 4 4 6q-1 5 -1 11l1 3q-1 35 -3 57q-6 25 -6 32q0 36 12 56q4 12 29 42q33 29 45 29q0 1 55 3q81 -1 81 -7 q22 -7 22 -25q-5 -16 -14 -16v-5q0 -11 -29 -25l-1 -2l9 -17q33 -24 37 -41q9 -13 9 -30v-8q3 -6 4 -25q0 -12 -12 -35q-28 -32 -40 -36q-42 -27 -87 -27q-25 0 -71 26q-22 8 -33 26v-1q12 -28 12 -35q12 -12 12 -26q0 -18 -28 -26h-1l-14 4q-5 -3 -6 -3h9q8 0 19 -14 q13 -6 21 -12q7 0 12 -11h2q4 0 10 -2q-8 24 -19 48q0 6 4 9h1q5 0 5 -4l-1 -5q12 -22 20 -48q1 -3 8 -4q0 -2 7 -9q6 -21 18 -21q5 -2 6 -6l21 7v1v1q0 17 15 23h3q2 0 6 -3q14 5 19 5h1q2 0 10 -3q28 33 40 33q11 0 11 7q4 7 17 17q0 2 14 10q16 19 16 32q4 17 14 36v3 q-2 27 -8 27q-11 8 -11 9q-1 2 -1 3q0 3 6 24v2l-3 16q2 19 2 21v8q0 11 6 11q4 -1 5 -1q20 7 20 8q2 13 3 46q0 72 -17 107q-12 27 -37 61q-15 23 -21 28q-9 7 -20 22l-23 17q-9 8 -11 12q-26 17 -44 26q-15 9 -21 9l-56 -23q-14 -6 -64 -12q-63 -5 -99 -5q-25 0 -41 10 q-6 -1 -40 -34q-3 -6 -20 -24q-13 -18 -20 -28q-9 -19 -16 -39q-26 -51 -26 -140v-11h1q1 11 26 59q10 11 28 11q26 0 40 -12h6h14q25 -4 25 -9q5 0 6 -11v-5q0 -20 -24 -20q-44 2 -48 8q-11 4 -20 4q-17 0 -23 -14q-21 -21 -25 -23q-3 -25 -11 -48q-9 -17 -14 -51zM442 954 q0 30 17 62l25 28q12 9 53 13q31 0 55 -22q42 -29 42 -42h1v7v4q0 32 -32 50q-18 19 -51 19t-46 -10q-11 -4 -13 -4q-4 2 -4 6q0 3 19 10q11 7 37 7h12q29 0 54 -21q33 -22 33 -54v-8q0 -5 -1 -22q1 -2 1 -4v-2q-1 -2 -3 -2v-5q6 -3 6 -14v-9q0 -12 -11 -28q-2 -10 -16 -21 q-1 0 -25 -15q-25 -9 -37 -9h-11q-37 0 -67 22q-13 8 -22 16q-5 0 -12 26q-4 15 -4 22zM451 954q5 -33 9 -33q5 6 41 28q16 15 73 22q15 0 21 1q3 -1 6 -1l1 1q4 -1 27 -3h2q0 16 -14 35q-49 43 -70 43h-14q-40 -4 -45 -13q-27 -28 -27 -35q-10 -24 -10 -45zM464 318 q6 -53 13 -81q0 -10 36 -25q19 -9 126 -21l134 -6q96 0 158 9q44 8 75 8q2 3 3 12q-1 22 -1 30q-30 -5 -42 -14q-26 -12 -46 -12q-20 -3 -32 -9q-5 3 -21 5q-66 13 -66 28q4 16 44 40q18 17 24 23h4q3 -1 3 -5q14 0 86 27q6 0 21 4h2q5 16 9 16v12l1 8h-1q-87 -12 -240 -25 q-41 -4 -156 -13q-33 -4 -122 -11h-2q-6 0 -9 1zM466 913q29 -27 59 -34q5 -1 27 -2h1v1q-15 4 -29 25q-7 16 -7 23q-3 -2 -5 -2q-5 0 -7 17q-5 -3 -10 -7q1 -7 5 -11v-3q-1 -3 -5 -3q-5 0 -8 12q-5 -3 -5 -4q2 -13 2 -16q-1 -3 -5 -3h-1q-3 0 -5 14q-7 -4 -7 -7zM478 1155 q1 3 13 8q12 9 66 20q22 9 35 9h20l24 4q5 0 5 -5v-1q0 -4 -31 -7h-18q-3 0 -56 -15q-21 -2 -46 -16q-3 -3 -6 -3q-6 0 -6 6zM493 -308q0 23 25 57q20 18 37 18q0 1 2 1q4 -1 4 -3l-1 -4l7 -34v-5q0 -6 -5 -6h-5q-21 0 -26 -14l-1 -6q0 -11 16 -18q4 -1 8 -1q15 0 24 6h1 q3 -1 3 -2v-3q0 -5 -1 -8q1 -5 1 -9v-15q0 -7 -18 -10h-10q-32 0 -54 26q-7 12 -7 23v7zM499 1192q0 15 65 23q14 3 47 7q0 1 2 1q5 -2 5 -5q0 -7 -44 -10q-43 -8 -61 -14q-7 -7 -10 -7q-3 2 -4 5zM513 946q0 -3 3 -14h1v16h1h-1q-4 -1 -4 -2zM515 1007q0 10 28 13 q22 0 38 -15v-1q0 -4 -5 -4q-18 10 -29 10h-5q-13 0 -22 -8q-5 0 -5 5zM518 849v1q0 5 4 5q9 -2 12 -2h3q30 0 75 28q23 19 23 25q9 15 9 16h4q3 -1 3 -2v-3q-12 -26 -19 -30q-22 -23 -46 -31q-32 -13 -49 -13q-19 2 -19 6zM536 1237q1 2 4 4h7q23 0 57 15q0 1 21 4 q5 -2 5 -5q0 -5 -19 -7q-39 -16 -60 -16h-9q-6 0 -6 5zM550 925q0 -13 9 -13q3 1 3 4v1q0 8 -12 10v-2zM599 -242l3 3q39 -3 39 -5l1 -3q-3 -28 -3 -34v-8q0 -16 11 -22h1q8 4 9 58q3 4 5 4q25 -6 25 -10v-2q0 -37 -14 -77q-11 -24 -31 -24q-41 0 -41 85q0 4 -5 34v1z M614 960q6 -6 10 -36v-2q0 -4 -4 -16h2l14 26q2 6 2 14q0 11 -5 11q-1 -6 -5 -6q-3 0 -5 9q-2 1 -3 1h-6v-1zM621 693q5 0 21 -17q1 0 11 -7q5 5 5 11q-7 0 -11 20q0 3 -5 4q0 2 -13 9h-1h-1l-2 -7v-2q-3 -5 -4 -11zM631 725q7 -10 16 -10h1q7 10 20 10q11 8 18 9 q6 -2 12 -2q2 0 10 10q4 3 7 3v1q-6 0 -13 7l-5 -1q-9 0 -17 8q-14 -10 -24 -10q-2 1 -3 1q-7 -18 -21 -24q-1 0 -1 -2zM647 1051q0 1 4 4q6 0 9 -17q5 -10 5 -28v-15q-1 -42 -1 -47v-3l1 -4q-2 -5 -4 -5h-3q-3 2 -3 5q0 28 1 71q0 10 -9 39zM653 1070v1q2 4 6 4 q12 -6 18 -6q10 0 23 36q6 9 10 9q2 0 4 -4q0 -2 -8 -14q-12 -36 -27 -36h-4q-22 3 -22 10zM680 1255v1q0 4 25 4q58 5 110 7q47 8 57 8q19 0 46 -18q6 -1 6 -5q0 -3 -5 -5q-4 0 -20 11q-16 7 -25 7h-5q-4 0 -61 -8q-49 -1 -124 -7q-4 0 -4 5zM693 1030q0 12 7 12q1 0 4 -3 l-1 -9v-1q0 -18 2 -31q-1 -4 -3 -5h-2q-5 0 -5 13q-2 21 -2 24zM694 871v1q0 2 5 13q1 4 1 7q-5 22 -5 25q0 2 1 17q0 2 -2 14q1 7 6 7q4 -1 4 -5v-1q0 -8 1 -17l-1 -12q0 -3 5 -27v-4q0 -11 -9 -21h-2q-1 0 -4 3zM696 1508q3 12 4 12v28v46q0 22 -2 77q6 7 44 13l12 1 q7 0 12 -22q14 -38 43 -69q10 -12 16 -18v1q2 38 4 103q0 10 22 10q4 0 39 3q8 0 8 -24q2 -28 2 -65v-86q0 -18 -14 -18q-12 -3 -22 -3h-9q-45 0 -51 6q-13 12 -33 62l-7 14q-8 -40 -8 -75v-16q-1 -6 -6 -6h-1q-13 0 -39 13q-14 9 -14 13zM718 1203q0 6 24 6q1 0 107 4 q40 -1 40 -7q14 -12 30 -16q16 -10 18 -17v-1q-1 -3 -4 -3h-2q-16 16 -29 17q-9 4 -21 15q-8 2 -20 2h-19q-99 -3 -119 -6q-4 0 -5 6zM720 -249q0 4 23 7l5 5h2q1 0 4 -1q2 0 2 1q7 -1 10 -1q2 0 37 1q5 0 11 -23v-3q0 -7 -18 -7q-16 -6 -18 -7q0 -15 4 -78q0 -9 -27 -9 q-5 0 -5 16v35q0 14 3 31q-17 -5 -22 -5q-7 0 -7 12q0 8 -4 24v2zM724 744q1 0 7 -5l5 1q2 0 4 -3v-5q0 -17 -2 -36q1 -5 2 -5q0 2 22 21q2 3 2 5q-2 8 -2 10q-11 0 -19 10q-12 7 -14 7h-5zM758 953l1 -5q13 13 42 21q22 8 57 8q41 -3 47 -9q23 -7 42 -15h1q8 20 8 33v3l2 2 v4q0 18 -14 40q-17 19 -35 28q-17 7 -35 7h-5q-34 0 -75 -35q-34 -40 -36 -72v-10zM764 937q29 -32 35 -32q5 -3 7 -3v1q-9 17 -9 27q0 18 4 29q-9 -2 -9 -6v-2v-3q-1 -3 -3 -4h-3q-4 1 -4 9q-1 -2 -2 -2l1 -1l-1 -5q2 -7 2 -9q-1 -4 -5 -4h-1q-5 2 -5 14q-4 -3 -7 -6v-3z M778 1233q2 4 6 4q57 4 65 4q27 0 69 -21q15 -3 15 -7q0 -5 -5 -5q-7 0 -49 19q-12 4 -31 5q-55 -4 -63 -4h-2q-5 0 -5 5zM804 836v1q2 3 4 3q13 -5 45 -5q31 0 61 15q44 33 44 46q0 5 5 5h1q3 -1 4 -4q0 -13 -17 -26q-16 -18 -39 -33q-31 -12 -54 -12h-9q-42 1 -44 6 q-1 2 -1 4zM809 1302v4q0 2 8 4q18 -2 21 -2q27 4 31 4q3 0 38 -10q10 0 10 -7q0 -1 -3 -4q-6 0 -42 11h-5q-23 -3 -28 -3h-3q-10 0 -18 1h-7zM811 242q0 -1 2 -2v1q0 1 -2 1zM814 486q2 -7 4 -7q53 6 110 8q27 4 45 6q0 1 14 2q1 2 5 2q1 22 1 28q0 18 -4 42l3 3h2 q4 0 7 -5l-1 -4q2 -22 2 -36q0 -13 -1 -29q4 -31 4 -49v-26q10 1 15 1h14q4 0 11 1q0 33 14 133q8 38 8 63h-1q-4 0 -5 1q-5 0 -57 -5h-80q-9 0 -17 -7q-8 -5 -10 -7v-1q0 -28 -10 -37q-7 -4 -15 -4h-1v-1q0 -20 -17 -28q-3 0 -4 -9q-4 -9 -14 -12q-12 0 -22 -23zM827 253 q0 -2 2 -18v-1q13 -7 49 -12q4 -1 10 -1q7 9 8 18v1h-3q-3 -3 -6 -3q-5 0 -5 5q0 3 8 9q3 5 3 7v1q0 2 -7 3q-6 -2 -9 -2q-3 3 -3 5q1 4 9 7q2 4 2 6v4q0 5 -8 9q-5 -1 -8 -1h-2q-19 -18 -40 -31v-3v-3zM830 926q6 -7 7 -7l2 3v2l-7 8q-2 -4 -2 -6zM836 -270q1 34 4 34t3 4 l4 2q3 0 3 -4h8q5 0 37 -3l33 2q7 0 7 -16q2 -22 2 -26q-1 -3 -4 -5h-20l-5 1v-31l1 -4q0 -1 -1 -1q1 -9 1 -14v-17q0 -7 -14 -7q-11 -4 -14 -4h-1q-4 2 -4 7v33v4v2v6v21v9q-5 2 -11 2h-25q-3 1 -4 5zM844 1025v1q0 5 21 6h1q15 0 36 -11q0 -2 2 -4v-3q-1 -3 -4 -3 q-17 11 -32 11h-8q-3 0 -12 -2q-4 1 -4 5zM858 1378l23 -12l15 -9q-13 22 -30 22h-8v-1zM886 964q1 0 6 -4h1v4h-4h-3zM893 270q9 -3 9 -10v-4q0 -3 -2 -7q2 0 4 -5q54 6 54 11q9 4 23 7q-1 3 -1 8v21h-2q-4 0 -24 -7q-24 -4 -51 -6q-10 -3 -10 -6v-2zM897 905h1q16 7 29 23 q13 11 13 18q-13 5 -20 7v-8l1 -4q-1 -3 -4 -5h-3q-3 0 -4 12l1 9q-6 2 -9 2q0 -6 -3 -10q3 -6 3 -17v-3q0 -10 -5 -24zM947 1525q0 35 6 86q-2 3 -2 4q0 24 19 28q2 0 19 3q28 -4 38 -7q20 -9 83 -28q24 -10 24 -17v-1q-14 -72 -16 -77q-1 -4 -6 -4q-6 0 -68 6 q-13 -95 -20 -166q-2 -49 -5 -49q-2 0 -3 -1q-25 6 -25 16v1q5 131 11 198q0 6 -7 6q-12 0 -43 -5q-5 2 -5 7zM955 1236q3 8 8 8q5 -2 5 -7q0 -4 -5 -6h-2q-6 1 -6 5zM956 1270q1 5 5 5q5 0 8 -5v-3q-3 -4 -6 -4q-7 1 -7 7zM959 -207q0 7 7 7q0 2 1 2h3l3 -4h9q16 2 21 2h3 q11 0 19 -18v-2q0 -8 -10 -8q-24 -2 -26 -5q2 -8 2 -13v-7q1 -1 2 -1q20 4 26 4h6q13 0 13 -23v-1q0 -7 -27 -8h-8l1 -7v-21q20 0 41 7h4q9 0 12 -28q1 0 1 -4q0 -5 -10 -6q-3 0 -32 1q-17 0 -39 -5h-6q-6 0 -9 79q-7 46 -7 54v5zM966 1212q3 7 8 7q4 0 5 -6v-1q0 -6 -8 -6 q-5 2 -5 6zM969 1181v3q1 6 6 6q7 -2 7 -7q0 -3 -8 -5q-4 1 -5 3zM974 1151v4q3 4 7 4t5 -5q-1 -7 -6 -7h-3q-1 0 -3 4zM982 1122q0 4 5 4h2q7 -2 7 -7q-3 -6 -8 -6q-6 2 -6 9zM984 1229q0 7 6 7q6 -2 6 -4v-2q0 -7 -6 -7q-6 1 -6 6zM988 1087q0 3 5 4q10 -2 10 -9 q-2 -5 -5 -5q-10 0 -10 10zM988 1176q0 4 6 5l1 -1l3 1q5 -2 5 -5q-2 -7 -7 -7h-1q-7 1 -7 7zM989 271q0 -7 2 -7q6 3 10 16v4v7q0 6 6 6q4 0 5 -15q0 -7 6 -12h1q5 4 5 11v3q0 3 -1 10q1 6 5 6q7 -2 7 -14q4 -9 7 -10h2q2 0 5 9l-1 5v6q0 4 3 5h2q6 0 6 -6v-7q1 -7 7 -7 l3 3v7q-10 31 -21 31q0 -15 -5 -15h-2q-2 0 -5 7q-5 6 -30 10q-7 6 -10 9q-7 -29 -7 -62zM993 1138q2 10 4 10h4q1 0 3 -6q-2 -9 -7 -9q-4 0 -4 5zM994 1060q0 6 8 6q6 -3 6 -7q-2 -8 -7 -8q-7 3 -7 9zM996 1201q0 2 4 5h1q7 -1 7 -6q-3 -6 -7 -6h-1q-4 2 -4 7zM1001 1099 q0 2 5 6h1q5 0 5 -6q-2 -6 -7 -6q-4 2 -4 6zM1003 345q0 -9 7 -12l24 -6q1 3 5 6q5 52 5 73v7h-15q-15 0 -24 -2v-33l-1 -7q1 -1 2 -1v-2q-2 0 -2 -2q-1 -13 -1 -21zM1005 267h3q0 2 -2 2q0 -1 -1 -2zM1009 1160q3 6 8 6q6 0 7 -7q-2 -7 -7 -7h-2q-6 0 -6 8zM1011 1125 q0 4 4 6h2q4 0 7 -5v-2q0 -5 -7 -6h-2q-4 2 -4 7zM1015 1068v1q0 1 3 3h1q10 -2 10 -7q-2 -5 -7 -5q-7 0 -7 8zM1017 1087v3q0 6 5 6q5 -2 5 -6q0 -5 -6 -7q-3 1 -4 4zM1026 1007q0 -2 1 -20v-18q13 0 16 -17q0 -33 19 -53l1 -5q2 0 5 45q1 0 1 5l-1 -1q-6 0 -9 18v8 q0 11 12 21l2 5v2q0 7 -7 9q-11 0 -19 -16q0 -7 -5 -7q-3 0 -5 6q0 9 15 22q6 4 14 4q13 0 17 -19q-5 -17 -11 -17q-3 -5 -3 -8v-7q0 -3 2 -14h1q14 21 14 40v6q0 11 -7 22q-13 11 -20 11h-4q-7 0 -23 -14q0 -2 -6 -8zM1043 956v4q2 11 9 11h2q1 0 3 -3v-1q0 -2 -5 -7v-2 q11 -17 11 -21q0 -8 -6 -8h-2q-1 0 -3 3v3l2 2q-9 15 -11 19zM1069 314q9 -16 9 -28q0 -1 -1 -7q34 4 34 8q0 22 -5 32q-11 -2 -29 -2q0 -1 -8 -3zM1089 -316q3 54 3 62v14q0 4 -2 56v16q0 9 24 11q25 0 43 -19q6 -12 6 -21q0 -20 -32 -41v-1q15 -11 51 -33l2 -3v-3 q-16 -18 -18 -18h-3q-19 7 -43 15l3 -38q-3 -2 -7 -3l-18 2q0 -1 -5 -2q-4 1 -4 5v1zM1099 1157q19 28 19 29q7 12 26 53q13 20 32 47q0 2 1 2q-3 6 -38 27q-32 25 -32 32q0 8 79 89q22 24 44 50q2 2 5 2q5 -4 14 -6l2 -3l-1 -5q24 -21 24 -27v-4q0 -2 -21 -28q0 -4 -39 -41 q0 -6 25 -27q13 -15 29 -30q3 -4 3 -7v-3q0 -11 -45 -63q-62 -80 -84 -111q-5 -4 -10 -4q-22 8 -32 23q-1 0 -1 5zM1101 512q0 6 3 9q-2 4 -2 6v1q2 5 8 5h1q1 0 2 -3q1 0 10 3q7 0 9 -20q0 -2 3 -23q10 17 14 17q3 -1 13 -19l3 -3q7 45 16 45h3q30 -2 30 -12v-2 q0 -3 -11 -46q-3 -38 -6 -59q-5 -20 -16 -20q-15 0 -35 49h-2q-14 -33 -14 -46q-3 -5 -6 -5q-8 0 -13 53q-10 63 -10 70zM1136 -30v-1q4 -2 9 -20q1 -12 4 -12q4 0 5 -8l-1 -3q15 -55 31 -55h1q17 0 17 21q0 11 -21 71q-6 9 -9 9h-7q-26 -2 -29 -2zM1210 -269q0 10 4 24 q1 3 3 3q23 -6 23 -24v-3q0 -14 -17 -17q-13 3 -13 13v4zM1226 546q0 8 4 10h1l3 -1q0 7 6 8h21q5 0 5 -20q1 -13 1 -21h1q6 9 10 9h2q3 -2 12 -20q11 -17 12 -17q14 15 22 43l3 3h3q7 0 23 -22q2 -3 2 -7v-3q-14 -34 -28 -83q-4 -9 -9 -9q-9 0 -40 44q-6 10 -7 10 q-11 -44 -14 -49l-4 -1q-9 0 -23 83q-6 28 -6 43zM1231 -139q0 5 26 23q6 6 11 6q21 -4 21 -11v-3q0 -7 -18 -19q7 -10 7 -13q6 0 14 9q2 1 3 1q8 0 15 -18v-1q0 -8 -19 -20q0 -1 7 -16q2 0 13 13h3q25 -23 25 -25v-2q-16 -11 -30 -25q-12 -14 -17 -14q-8 0 -21 32 q-18 34 -34 78q-6 2 -6 4v1zM1302 -100q11 35 23 57q1 0 3 1q15 -1 24 -2q4 1 8 1q5 -1 5 -5t-11 -30l-1 -4l36 -12q8 -3 8 -7v-3q-11 -76 -25 -90h-3q-14 6 -21 6q-2 2 -2 3q4 46 9 69v1q0 5 -49 7q-4 5 -4 7v1z" />
<glyph unicode="+" horiz-adv-x="1014" />
<glyph unicode="," horiz-adv-x="557" />
<glyph unicode="-" horiz-adv-x="670" />
<glyph unicode="." horiz-adv-x="557" />
<glyph unicode="/" horiz-adv-x="569" />
<glyph unicode="0" horiz-adv-x="2173" d="M50 665q0 543 506 885q263 140 519 140q524 0 860 -458q171 -286 171 -500v-146q0 -265 -238 -592q-342 -360 -750 -360h-80q-421 0 -762 378q-226 296 -226 653zM520 354q0 -43 158 -79q18 -74 37 -74q8 0 98 13h12q49 0 189 -92q30 -18 79 -18h37q78 0 213 97 q6 0 49 13h12l110 -13l43 80q146 26 146 61v24q-3 13 -116 49q-136 113 -146 195q7 29 122 73q24 27 24 31v6q0 55 -67 55l-67 -18h-6q-12 0 -12 12v171q0 197 -250 274q-26 0 -67 6q-235 0 -318 -213q-12 -40 -12 -55v-183q0 -12 -12 -12h-6q-64 18 -67 18q-57 0 -61 -49 v-18q1 -25 122 -67l18 -25v-24q-82 -160 -183 -189q-79 -25 -79 -49z" />
<glyph unicode="1" horiz-adv-x="2176" d="M50 670q0 485 431 826q278 188 596 188q529 0 868 -480q152 -252 152 -540v-19q0 -546 -516 -880q-257 -134 -511 -134q-468 0 -813 407q-207 286 -207 632zM487 639q0 -340 334 -528q129 -55 219 -55h67q250 0 449 249q104 155 104 322v12q0 365 -353 541 q-120 48 -237 48q-334 0 -528 -334q-55 -142 -55 -255zM572 645q15 13 25 13q240 0 486 66q20 -10 42 -79q-168 -58 -322 -206q-91 -117 -103 -122h-6q-122 139 -122 328zM591 755v6q0 96 151 255q88 73 122 73q176 -249 176 -286q-225 -60 -443 -60zM773 263 q135 206 382 291h7q72 -168 109 -370q-77 -43 -158 -43h-79q-122 0 -255 97q-6 11 -6 25zM967 1131q80 12 97 12q203 0 334 -127v-12q-174 -164 -249 -164q-6 0 -158 243q-15 0 -24 48zM1192 761q134 55 267 188h6q110 -128 110 -298q-7 0 -7 -6q-95 19 -224 25 q-12 -6 -18 -6l-13 6q-41 -6 -66 -6h-13q-22 0 -42 97zM1259 579q36 12 91 12q218 -8 218 -43q-30 -156 -164 -291q-12 0 -36 -25h-6q-11 2 -73 268q-8 0 -30 79z" />
<glyph unicode="2" horiz-adv-x="2154" d="M40 659q0 340 231 645q327 383 803 383q492 0 827 -426q195 -288 195 -559v-104q0 -232 -189 -535q-340 -432 -845 -432q-411 0 -742 328q-210 250 -250 463q-18 85 -30 237zM502 501q0 -79 67 -104l487 -322h30q528 345 548 371q6 11 6 24v359q-38 47 -414 286 q-132 98 -158 98q-513 -325 -560 -378l-6 -36v-298zM600 574v134q2 12 12 12q89 -58 103 -79q0 -6 -109 -79zM642 470q0 6 158 110h19q206 -129 206 -158v-195q0 -12 -12 -12q-361 239 -371 255zM642 817q354 250 383 250v-195q0 -44 -206 -164q0 -6 -6 -6h-7 q-164 106 -164 115zM904 641q36 42 170 115q139 -84 164 -115q-10 -16 -158 -110h-18q-157 100 -158 110zM1117 233v171q0 57 103 103q0 5 103 73h19q158 -104 158 -110q-13 -20 -274 -188q-81 -61 -103 -61zM1117 866v201h18q362 -241 365 -250q-21 -25 -164 -115h-6 q-213 133 -213 164zM1427 641q2 11 103 79q12 -2 12 -12v-134q0 -12 -12 -12z" />
<glyph unicode="3" horiz-adv-x="2183" d="M50 667v55q0 6 6 6q0 6 -6 6q0 180 153 473q345 485 885 485q394 0 706 -282q214 -192 300 -528q25 -112 25 -178v-111q0 -232 -184 -534q-143 -176 -270 -264q-278 -172 -534 -172h-93q-394 0 -736 350q-252 302 -252 694zM535 575q299 -207 325 -215l228 190h6 l208 -184q130 80 332 221v6q-12 0 -209 166v6l209 184q-301 221 -332 221q0 -9 -221 -190h-6q-214 190 -227 190l-313 -215v-6l209 -178zM756 771q33 27 325 203q301 -185 332 -215l-319 -203h-6q-330 205 -332 215zM768 304q0 -6 320 -202h6q293 199 307 221v49h-6l-86 -55 h-7q-163 150 -214 190q-178 -153 -234 -190l-86 61v-74z" />
<glyph unicode="4" horiz-adv-x="2163" d="M40 622v85q0 203 146 481q171 281 500 421q205 79 384 79q313 0 615 -207q414 -342 414 -835q0 -395 -317 -731q-171 -149 -280 -189q-213 -97 -390 -97h-116q-135 0 -383 104q-134 62 -311 237q-262 320 -262 652zM442 616q0 -355 353 -567q155 -67 305 -67 q152 0 341 110q188 122 268 390q12 82 12 103v74q0 231 -213 444q-198 165 -426 165q-265 0 -482 -220q-158 -203 -158 -396v-36zM503 598v42q0 257 250 463q153 98 335 98q363 0 536 -372q36 -97 36 -207q0 -337 -329 -518q-134 -61 -249 -61q-242 0 -445 207 q-134 195 -134 348zM722 616l6 -31h31l73 116v6h-98q-12 -2 -12 -12v-79zM728 360q70 67 86 67v6q0 15 -67 43q-19 -105 -19 -116zM765 494q12 -30 67 -30q191 324 219 389q-21 43 -55 43q-31 -41 -231 -390v-12zM954 585h243v6q-53 116 -79 116h-85q-24 -13 -79 -116v-6z M1045 987q52 -123 256 -493h24q24 18 37 18v31q-270 437 -299 463h-6q-12 -2 -12 -12v-7zM1307 457q1 -32 67 -60q0 -11 12 -37q49 23 49 85q-22 61 -55 61q-44 -18 -73 -49zM1307 701q64 -108 79 -116h55v110q0 12 -12 12h-122v-6z" />
<glyph unicode="5" horiz-adv-x="2186" d="M60 651v6q0 596 573 926q227 98 402 98h24q14 0 24 6q11 -6 25 -6h18q456 0 798 -427q166 -248 189 -523v-116q0 -263 -189 -555q-342 -432 -834 -432q-555 0 -890 506q-140 241 -140 517zM724 237q0 -33 24 -43h25q200 193 426 427v6q-253 261 -445 445q-16 -4 -30 -31 v-804zM803 1090q254 -261 445 -445l134 128v12q-516 288 -573 311h-6v-6zM822 152h12q514 281 542 304l-122 122h-6q-201 -193 -426 -426zM1303 609q124 -122 134 -122q195 96 195 128v18q-23 28 -189 116h-6q-134 -125 -134 -140z" />
<glyph unicode="6" horiz-adv-x="2176" d="M50 597v141q13 210 146 464q208 324 593 451q133 37 256 37h55q507 0 848 -470q165 -286 165 -562q0 -139 -73 -372q-178 -403 -531 -555q-198 -98 -434 -98q-500 0 -836 433q-189 299 -189 531zM465 677l12 -6h452q134 0 134 91q6 0 6 19v201h-305q-299 -276 -299 -305z M758 347q5 -13 293 -293h18v208q0 41 6 73q-6 32 -6 73v141q-13 103 -97 103q0 6 -19 6h-195v-311zM1082 347h299q6 0 6 -6q16 0 299 293v12q0 12 -12 12h-464q-110 -20 -110 -67q-12 -42 -12 -73v-140zM1088 805q11 -109 42 -110l55 -24h202l12 6q0 6 -6 6q6 107 6 134 q-6 157 -6 177q-280 280 -299 281l-6 -31v-439z" />
<glyph unicode="7" horiz-adv-x="2173" d="M60 621v73q0 375 322 711q288 238 522 261q110 18 140 18h67q400 0 735 -340q267 -313 267 -693t-298 -716q-243 -217 -461 -268q-57 -18 -231 -36h-61q-375 0 -704 304q-208 200 -286 552q-12 108 -12 134zM759 147h188q18 11 85 140l12 6h389l6 12v213h-255 q-12 0 -12 12q267 448 267 474v85q0 12 -12 12h-177q-20 -18 -97 -152h-394v-220l224 -5l31 6l6 -12v-6q-261 -442 -261 -461v-104z" />
<glyph unicode="8" d="M50 575v177q0 163 134 428q54 113 257 293q180 156 501 214q52 6 86 6h116q230 0 537 -189q428 -345 428 -844q0 -514 -452 -849q-262 -177 -581 -177q-561 0 -898 519q-114 228 -128 422zM465 642q0 -131 165 -153q12 0 98 25q330 -94 330 -116q65 -129 153 -129h49 q107 0 159 147v55q123 123 201 159q74 78 74 153q0 138 -153 201q-19 0 -43 6l-12 -6l-12 6q-110 0 -178 -128q-17 -118 -67 -232q-73 -11 -116 -49h-12q-330 95 -330 128q-46 98 -122 98h-49q-88 0 -135 -128v-37zM514 642v12q0 84 116 110q43 0 86 -49l-12 -6 q-41 19 -55 19q-86 -14 -86 -86v-18q0 -57 74 -67v-19h-19q-74 0 -104 104zM1101 379l6 13q82 -31 110 -31q79 21 79 79v19q0 62 -91 79v19h6q122 -33 122 -123q-29 -122 -110 -122h-30q-50 0 -92 67zM1327 764v37q23 118 134 140h49q99 0 135 -152q0 -110 -116 -159h-62 q-98 0 -140 134zM1370 777q26 -104 97 -104h49q55 24 80 73v73q-42 80 -98 80h-24q-76 0 -104 -110v-12z" />
<glyph unicode="9" horiz-adv-x="2154" d="M50 661q0 544 498 880q264 146 516 146q472 0 795 -370q158 -175 219 -456q18 -94 18 -127v-146q0 -263 -225 -571q-188 -243 -546 -352q-175 -30 -213 -30h-60q-359 0 -680 279q-322 322 -322 747zM663 758q0 -189 401 -686h6q209 235 340 461q47 100 73 195v48 q0 240 -261 365q-84 24 -158 24q-269 0 -383 -279q-18 -46 -18 -128zM821 716v79q0 69 103 163q55 42 122 49h48q140 0 225 -182l6 -73q0 -171 -188 -243q-24 -6 -49 -6h-18q-190 0 -249 213z" />
<glyph unicode=":" horiz-adv-x="557" />
<glyph unicode=";" horiz-adv-x="557" />
<glyph unicode="&#x3c;" horiz-adv-x="1014" />
<glyph unicode="=" horiz-adv-x="1014" />
<glyph unicode="&#x3e;" horiz-adv-x="1014" />
<glyph unicode="?" horiz-adv-x="748" />
<glyph unicode="@" horiz-adv-x="1440" d="M70 -167l10 3q6 0 24 -10v-1q0 -10 -6 -54q34 39 44 40q5 0 7 -27l7 -38q25 41 32 41q6 -4 15 -19v-3q0 -2 -17 -25q-18 -31 -33 -66q-1 -8 -7 -8q-9 0 -21 66q-2 7 -2 12q-19 -18 -42 -55l-3 -2q-5 0 -5 9q0 7 -2 90v8v1v5q0 9 -1 33zM114 916v3q0 13 5 13h2q3 -1 3 -3 q-1 -12 -1 -13t8 -9v-1q0 -5 -5 -5q-12 5 -12 15zM137 315l3 95v10q0 16 -1 47q1 3 5 3q17 0 55 -26q13 -12 13 -27q0 -28 -26 -39q-7 -1 -7 -3q31 -15 31 -35q0 -28 -31 -40h-11q-16 0 -29 11zM156 921v4q0 21 9 28h4q3 -2 3 -5q-7 -8 -7 -27q1 -13 12 -29v-1q-1 -4 -5 -4 q-16 13 -16 34zM186 1479q2 4 21 14q44 37 94 51q24 9 26 14q0 2 4 2q7 0 15 -30q6 -16 14 -29v-4q0 -8 -54 -34l-43 -24v-19q0 -26 5 -51q9 0 72 24h6q10 0 10 -27q3 -16 3 -25q0 -5 -35 -27q-24 -15 -39 -15q-7 -4 -7 -30v-96q0 -11 7 -44v-16q-5 -9 -49 -30q-4 1 -4 6v2 q4 5 6 13q-8 0 -9 32q-11 111 -26 232q-12 65 -12 98zM198 912v6q0 25 11 53l1 1h2q5 0 5 -4q-10 -31 -10 -55q0 -23 10 -38q-1 -4 -5 -4q-11 0 -14 41zM210 -302q0 39 23 62q0 4 9 5h2q2 0 4 -8q13 -9 13 -25v-10q0 -34 -23 -65q-4 -4 -7 -4h-3q-15 0 -18 42v3zM228 392 q0 39 17 68q10 13 16 14h2q9 -10 19 -42v-5q0 -5 -13 -9q-5 -4 -5 -17v-10q0 -21 17 -25h8q6 -1 6 -6v-26q-8 -8 -19 -8q-31 0 -43 37q-5 12 -5 29zM234 916q0 12 8 12h3q6 0 16 -10q4 -4 13 -17q3 20 11 20h2q5 0 8 -19h1q3 8 9 8q8 0 13 -23q10 13 16 13q13 -2 13 -18v-4 q0 -19 -15 -48q-10 -12 -13 -13q10 -68 10 -113v-34q0 -10 -2 -27h1q25 -2 46 -2q15 0 58 1q-5 8 -5 16q-7 0 -15 33v4q0 8 6 26q-8 16 -8 25v5q0 9 6 17q6 31 10 36v8v1q0 17 9 22q8 1 8 4q-17 31 -17 81v31q0 26 16 70q3 15 5 102q5 47 12 71q21 54 33 77q21 29 25 31 q4 3 19 24q32 28 35 28q-3 4 -5 14q0 16 17 28q9 15 27 21q50 17 71 22q63 6 73 6h7q53 0 90 -20q23 -10 42 -29q23 -26 25 -42q1 -1 1 -4v-6l-1 -5q6 -6 25 -20q8 -12 30 -32q10 -17 37 -55q26 -51 26 -73q5 -19 5 -71l-3 -47q-6 -5 -6 -8l1 -5h1q12 11 23 11q18 0 33 -21 q5 -12 5 -23q0 -30 -16 -51q-2 -9 -6 -51q-5 -14 -12 -20h-2q-4 0 -4 3q-1 0 -6 -6q0 -9 1 -9v-5v-21l3 -23q0 -10 -3 -21q28 -88 28 -110v-5q0 -80 -12 -141q-14 -94 -14 -161q-1 0 -2 -22h1q3 2 37 3q0 1 14 2q5 0 10 -24q8 -20 8 -38v-9q-1 -19 -7 -19l-28 -6 q-29 -7 -68 -15v-1q1 -23 1 -33l-8 -62q-19 -79 -19 -82q-4 -28 -11 -107q26 -3 45 -4q15 0 67 10q10 1 33 2q0 11 23 11q1 0 17 2h2q17 -1 17 -8q7 -5 21 -56q6 -15 6 -26q0 -22 -15 -28q-5 -2 -9 -2h-5q-20 0 -36 55q-8 -7 -47 -16q-82 -17 -109 -28q-29 -10 -53 -24 q-33 -22 -40 -22q-14 0 -33 34q-21 31 -67 92q-68 92 -85 110q-10 11 -12 11q-48 -38 -113 -92q-34 -25 -70 -46l-78 -65q-36 -34 -46 -55q-6 -7 -15 -25l-19 -31h-4q-31 5 -53 17q-52 29 -52 60q0 21 19 21q30 0 53 -13h3q6 0 13 13q14 13 27 59q18 52 26 76q11 29 46 115 q14 27 30 98q2 14 5 20q-4 0 -6 19q-4 17 -15 93q-7 38 -26 98q-6 0 -6 7v3h3q-7 28 -18 93l-4 10h-45q-77 0 -89 12q-4 6 -13 72q-8 48 -8 66v10q0 36 13 117q1 0 1 1q-16 26 -19 53q-6 20 -6 36zM244 914q0 -30 17 -72q7 -8 7 -11l-1 -1q19 3 31 3q15 0 20 -6q0 1 7 10 q13 25 13 43q-1 10 -4 10q-10 -7 -14 -22q-3 -2 -5 -2q-6 0 -6 18l-4 15q-2 0 -7 -21l-2 -2h-2q-5 0 -7 16q0 2 -2 14q-2 0 -3 -14v-17q0 -1 -3 -3h-1q-6 0 -9 17q-12 25 -25 30v-5zM259 -160v-4q0 -31 70 -60q7 -3 24 -6q20 30 22 37q-17 10 -47 22q-2 3 -3 7l-1 -1 q-2 0 -25 10q-12 3 -23 3h-12q-5 -2 -5 -8zM268 593q3 -27 7 -27q12 -8 98 -8h14q11 0 16 4q5 0 9 -6q-2 -5 -2 -6q6 -16 16 -83q5 -21 7 -21h2q42 0 164 11v1q0 3 2 12q-12 0 -23 15q-5 11 -6 11h-1q-2 0 -5 -1q-7 0 -25 16q-4 3 -12 12q-21 3 -31 12q-14 14 -14 26v2 q0 4 4 10v1l-16 13q-7 8 -7 15v1q-147 -3 -195 -9q0 -1 -2 -1zM297 -342q0 40 11 69q-3 0 -3 5q5 7 10 7q7 0 19 -12q15 -20 15 -32v-5q0 -23 -21 -52q-8 -8 -14 -8h-3q-12 0 -14 21v7zM306 457v3q0 6 6 6h3q21 0 30 -12q6 -29 13 -46l5 -8v14q0 15 -3 47q0 5 17 5 q8 0 9 -18q6 -49 20 -98q1 0 3 -10q0 -4 -19 -9q0 -2 -7 -3q-4 0 -13 17q-10 12 -12 13v-1q0 -4 3 -36q-3 -2 -6 -2h-19l-8 -2h-1q-4 0 -6 4q-5 0 -5 17q-5 119 -10 119zM333 962q2 7 7 7q9 -2 27 -28q13 -22 13 -48v-1q0 -20 -8 -20h-1q-1 0 -3 3v3q3 4 3 16q0 35 -30 63 q-2 -1 -4 -1q-3 0 -4 6zM384 957q0 4 5 4q4 0 8 -18q5 -7 5 -16v-2q-1 -6 -6 -6h-2q-3 1 -3 5l2 4q0 2 -7 20q-2 7 -2 9zM390 -343q0 44 4 94h1q-4 2 -4 3v2q2 3 4 3q19 -1 54 -33q11 -16 11 -27v-7q0 -28 -18 -47q-18 -11 -36 -11l-9 -3q-7 6 -7 24v2zM426 1490v26 q0 70 35 95q35 38 52 38h25q36 0 54 -22q19 -11 28 -41q4 -10 4 -20v-13q-3 -35 -5 -52q-2 -15 -29 -74q-5 -8 -26 -28q-8 -8 -36 -14q-9 -4 -13 -4h-3q-21 0 -42 13q-15 5 -25 21l-12 32q-7 15 -7 43zM435 951q0 -87 15 -104q11 -32 15 -40q1 -2 5 -2l2 -3v-2l-2 -5 q21 -13 21 -24q7 -12 24 -34l14 -18l26 -15q1 0 9 -6q5 24 14 33q3 0 4 14q5 10 13 14q5 0 12 18q1 4 11 17q5 8 5 25v7q0 12 -1 30q0 9 5 9q3 0 5 -4v-5v-32q0 -20 -5 -31q14 17 27 23q3 2 10 3v2q-1 -1 -2 -1q-7 6 -23 13q-6 7 -6 10v4q0 10 14 14h6q10 -4 10 -7v-2 q0 -1 -3 -3q-4 0 -8 3h-2q-8 0 -8 -7q1 -3 2 -3q4 4 8 4t11 -7q9 -6 19 -6h2q6 0 33 16q2 2 8 3q5 0 8 -8q10 4 10 13q-1 8 -10 20q-1 2 -8 24q-8 15 -8 24v1q0 4 4 6q-1 5 -1 11l1 3q-1 35 -3 57q-6 25 -6 32q0 36 12 56q4 12 29 42q33 29 45 29q0 1 55 3q81 -1 81 -7 q22 -7 22 -25q-5 -16 -14 -16v-5q0 -11 -29 -25l-1 -2l9 -17q33 -24 37 -41q9 -13 9 -30v-8q3 -6 4 -25q0 -12 -12 -35q-28 -32 -40 -36q-42 -27 -87 -27q-25 0 -71 26q-22 8 -33 26v-1q12 -28 12 -35q12 -12 12 -26q0 -18 -28 -26h-1l-14 4q-5 -3 -6 -3h9q8 0 19 -14 q13 -6 21 -12q7 0 12 -11h2q4 0 10 -2q-8 24 -19 48q0 6 4 9h1q5 0 5 -4l-1 -5q12 -22 20 -48q1 -3 8 -4q0 -2 7 -9q6 -21 18 -21q5 -2 6 -6l21 7v1v1q0 17 15 23h3q2 0 6 -3q14 5 19 5h1q2 0 10 -3q28 33 40 33q11 0 11 7q4 7 17 17q0 2 14 10q16 19 16 32q4 17 14 36v3 q-2 27 -8 27q-11 8 -11 9q-1 2 -1 3q0 3 6 24v2l-3 16q2 19 2 21v8q0 11 6 11q4 -1 5 -1q20 7 20 8q2 13 3 46q0 72 -17 107q-12 27 -37 61q-15 23 -21 28q-9 7 -20 22l-23 17q-9 8 -11 12q-26 17 -44 26q-15 9 -21 9l-56 -23q-14 -6 -64 -12q-63 -5 -99 -5q-25 0 -41 10 q-6 -1 -40 -34q-3 -6 -20 -24q-13 -18 -20 -28q-9 -19 -16 -39q-26 -51 -26 -140v-11h1q1 11 26 59q10 11 28 11q26 0 40 -12h6h14q25 -4 25 -9q5 0 6 -11v-5q0 -20 -24 -20q-44 2 -48 8q-11 4 -20 4q-17 0 -23 -14q-21 -21 -25 -23q-3 -25 -11 -48q-9 -17 -14 -51zM442 954 q0 30 17 62l25 28q12 9 53 13q31 0 55 -22q42 -29 42 -42h1v7v4q0 32 -32 50q-18 19 -51 19t-46 -10q-11 -4 -13 -4q-4 2 -4 6q0 3 19 10q11 7 37 7h12q29 0 54 -21q33 -22 33 -54v-8q0 -5 -1 -22q1 -2 1 -4v-2q-1 -2 -3 -2v-5q6 -3 6 -14v-9q0 -12 -11 -28q-2 -10 -16 -21 q-1 0 -25 -15q-25 -9 -37 -9h-11q-37 0 -67 22q-13 8 -22 16q-5 0 -12 26q-4 15 -4 22zM451 954q5 -33 9 -33q5 6 41 28q16 15 73 22q15 0 21 1q3 -1 6 -1l1 1q4 -1 27 -3h2q0 16 -14 35q-49 43 -70 43h-14q-40 -4 -45 -13q-27 -28 -27 -35q-10 -24 -10 -45zM464 318 q6 -53 13 -81q0 -10 36 -25q19 -9 126 -21l134 -6q96 0 158 9q44 8 75 8q2 3 3 12q-1 22 -1 30q-30 -5 -42 -14q-26 -12 -46 -12q-20 -3 -32 -9q-5 3 -21 5q-66 13 -66 28q4 16 44 40q18 17 24 23h4q3 -1 3 -5q14 0 86 27q6 0 21 4h2q5 16 9 16v12l1 8h-1q-87 -12 -240 -25 q-41 -4 -156 -13q-33 -4 -122 -11h-2q-6 0 -9 1zM466 913q29 -27 59 -34q5 -1 27 -2h1v1q-15 4 -29 25q-7 16 -7 23q-3 -2 -5 -2q-5 0 -7 17q-5 -3 -10 -7q1 -7 5 -11v-3q-1 -3 -5 -3q-5 0 -8 12q-5 -3 -5 -4q2 -13 2 -16q-1 -3 -5 -3h-1q-3 0 -5 14q-7 -4 -7 -7zM478 1155 q1 3 13 8q12 9 66 20q22 9 35 9h20l24 4q5 0 5 -5v-1q0 -4 -31 -7h-18q-3 0 -56 -15q-21 -2 -46 -16q-3 -3 -6 -3q-6 0 -6 6zM493 -308q0 23 25 57q20 18 37 18q0 1 2 1q4 -1 4 -3l-1 -4l7 -34v-5q0 -6 -5 -6h-5q-21 0 -26 -14l-1 -6q0 -11 16 -18q4 -1 8 -1q15 0 24 6h1 q3 -1 3 -2v-3q0 -5 -1 -8q1 -5 1 -9v-15q0 -7 -18 -10h-10q-32 0 -54 26q-7 12 -7 23v7zM499 1192q0 15 65 23q14 3 47 7q0 1 2 1q5 -2 5 -5q0 -7 -44 -10q-43 -8 -61 -14q-7 -7 -10 -7q-3 2 -4 5zM513 946q0 -3 3 -14h1v16h1h-1q-4 -1 -4 -2zM515 1007q0 10 28 13 q22 0 38 -15v-1q0 -4 -5 -4q-18 10 -29 10h-5q-13 0 -22 -8q-5 0 -5 5zM518 849v1q0 5 4 5q9 -2 12 -2h3q30 0 75 28q23 19 23 25q9 15 9 16h4q3 -1 3 -2v-3q-12 -26 -19 -30q-22 -23 -46 -31q-32 -13 -49 -13q-19 2 -19 6zM536 1237q1 2 4 4h7q23 0 57 15q0 1 21 4 q5 -2 5 -5q0 -5 -19 -7q-39 -16 -60 -16h-9q-6 0 -6 5zM550 925q0 -13 9 -13q3 1 3 4v1q0 8 -12 10v-2zM599 -242l3 3q39 -3 39 -5l1 -3q-3 -28 -3 -34v-8q0 -16 11 -22h1q8 4 9 58q3 4 5 4q25 -6 25 -10v-2q0 -37 -14 -77q-11 -24 -31 -24q-41 0 -41 85q0 4 -5 34v1z M614 960q6 -6 10 -36v-2q0 -4 -4 -16h2l14 26q2 6 2 14q0 11 -5 11q-1 -6 -5 -6q-3 0 -5 9q-2 1 -3 1h-6v-1zM621 693q5 0 21 -17q1 0 11 -7q5 5 5 11q-7 0 -11 20q0 3 -5 4q0 2 -13 9h-1h-1l-2 -7v-2q-3 -5 -4 -11zM631 725q7 -10 16 -10h1q7 10 20 10q11 8 18 9 q6 -2 12 -2q2 0 10 10q4 3 7 3v1q-6 0 -13 7l-5 -1q-9 0 -17 8q-14 -10 -24 -10q-2 1 -3 1q-7 -18 -21 -24q-1 0 -1 -2zM647 1051q0 1 4 4q6 0 9 -17q5 -10 5 -28v-15q-1 -42 -1 -47v-3l1 -4q-2 -5 -4 -5h-3q-3 2 -3 5q0 28 1 71q0 10 -9 39zM653 1070v1q2 4 6 4 q12 -6 18 -6q10 0 23 36q6 9 10 9q2 0 4 -4q0 -2 -8 -14q-12 -36 -27 -36h-4q-22 3 -22 10zM680 1255v1q0 4 25 4q58 5 110 7q47 8 57 8q19 0 46 -18q6 -1 6 -5q0 -3 -5 -5q-4 0 -20 11q-16 7 -25 7h-5q-4 0 -61 -8q-49 -1 -124 -7q-4 0 -4 5zM693 1030q0 12 7 12q1 0 4 -3 l-1 -9v-1q0 -18 2 -31q-1 -4 -3 -5h-2q-5 0 -5 13q-2 21 -2 24zM694 871v1q0 2 5 13q1 4 1 7q-5 22 -5 25q0 2 1 17q0 2 -2 14q1 7 6 7q4 -1 4 -5v-1q0 -8 1 -17l-1 -12q0 -3 5 -27v-4q0 -11 -9 -21h-2q-1 0 -4 3zM696 1508q3 12 4 12v28v46q0 22 -2 77q6 7 44 13l12 1 q7 0 12 -22q14 -38 43 -69q10 -12 16 -18v1q2 38 4 103q0 10 22 10q4 0 39 3q8 0 8 -24q2 -28 2 -65v-86q0 -18 -14 -18q-12 -3 -22 -3h-9q-45 0 -51 6q-13 12 -33 62l-7 14q-8 -40 -8 -75v-16q-1 -6 -6 -6h-1q-13 0 -39 13q-14 9 -14 13zM718 1203q0 6 24 6q1 0 107 4 q40 -1 40 -7q14 -12 30 -16q16 -10 18 -17v-1q-1 -3 -4 -3h-2q-16 16 -29 17q-9 4 -21 15q-8 2 -20 2h-19q-99 -3 -119 -6q-4 0 -5 6zM720 -249q0 4 23 7l5 5h2q1 0 4 -1q2 0 2 1q7 -1 10 -1q2 0 37 1q5 0 11 -23v-3q0 -7 -18 -7q-16 -6 -18 -7q0 -15 4 -78q0 -9 -27 -9 q-5 0 -5 16v35q0 14 3 31q-17 -5 -22 -5q-7 0 -7 12q0 8 -4 24v2zM724 744q1 0 7 -5l5 1q2 0 4 -3v-5q0 -17 -2 -36q1 -5 2 -5q0 2 22 21q2 3 2 5q-2 8 -2 10q-11 0 -19 10q-12 7 -14 7h-5zM758 953l1 -5q13 13 42 21q22 8 57 8q41 -3 47 -9q23 -7 42 -15h1q8 20 8 33v3l2 2 v4q0 18 -14 40q-17 19 -35 28q-17 7 -35 7h-5q-34 0 -75 -35q-34 -40 -36 -72v-10zM764 937q29 -32 35 -32q5 -3 7 -3v1q-9 17 -9 27q0 18 4 29q-9 -2 -9 -6v-2v-3q-1 -3 -3 -4h-3q-4 1 -4 9q-1 -2 -2 -2l1 -1l-1 -5q2 -7 2 -9q-1 -4 -5 -4h-1q-5 2 -5 14q-4 -3 -7 -6v-3z M778 1233q2 4 6 4q57 4 65 4q27 0 69 -21q15 -3 15 -7q0 -5 -5 -5q-7 0 -49 19q-12 4 -31 5q-55 -4 -63 -4h-2q-5 0 -5 5zM804 836v1q2 3 4 3q13 -5 45 -5q31 0 61 15q44 33 44 46q0 5 5 5h1q3 -1 4 -4q0 -13 -17 -26q-16 -18 -39 -33q-31 -12 -54 -12h-9q-42 1 -44 6 q-1 2 -1 4zM809 1302v4q0 2 8 4q18 -2 21 -2q27 4 31 4q3 0 38 -10q10 0 10 -7q0 -1 -3 -4q-6 0 -42 11h-5q-23 -3 -28 -3h-3q-10 0 -18 1h-7zM811 242q0 -1 2 -2v1q0 1 -2 1zM814 486q2 -7 4 -7q53 6 110 8q27 4 45 6q0 1 14 2q1 2 5 2q1 22 1 28q0 18 -4 42l3 3h2 q4 0 7 -5l-1 -4q2 -22 2 -36q0 -13 -1 -29q4 -31 4 -49v-26q10 1 15 1h14q4 0 11 1q0 33 14 133q8 38 8 63h-1q-4 0 -5 1q-5 0 -57 -5h-80q-9 0 -17 -7q-8 -5 -10 -7v-1q0 -28 -10 -37q-7 -4 -15 -4h-1v-1q0 -20 -17 -28q-3 0 -4 -9q-4 -9 -14 -12q-12 0 -22 -23zM827 253 q0 -2 2 -18v-1q13 -7 49 -12q4 -1 10 -1q7 9 8 18v1h-3q-3 -3 -6 -3q-5 0 -5 5q0 3 8 9q3 5 3 7v1q0 2 -7 3q-6 -2 -9 -2q-3 3 -3 5q1 4 9 7q2 4 2 6v4q0 5 -8 9q-5 -1 -8 -1h-2q-19 -18 -40 -31v-3v-3zM830 926q6 -7 7 -7l2 3v2l-7 8q-2 -4 -2 -6zM836 -270q1 34 4 34t3 4 l4 2q3 0 3 -4h8q5 0 37 -3l33 2q7 0 7 -16q2 -22 2 -26q-1 -3 -4 -5h-20l-5 1v-31l1 -4q0 -1 -1 -1q1 -9 1 -14v-17q0 -7 -14 -7q-11 -4 -14 -4h-1q-4 2 -4 7v33v4v2v6v21v9q-5 2 -11 2h-25q-3 1 -4 5zM844 1025v1q0 5 21 6h1q15 0 36 -11q0 -2 2 -4v-3q-1 -3 -4 -3 q-17 11 -32 11h-8q-3 0 -12 -2q-4 1 -4 5zM858 1378l23 -12l15 -9q-13 22 -30 22h-8v-1zM886 964q1 0 6 -4h1v4h-4h-3zM893 270q9 -3 9 -10v-4q0 -3 -2 -7q2 0 4 -5q54 6 54 11q9 4 23 7q-1 3 -1 8v21h-2q-4 0 -24 -7q-24 -4 -51 -6q-10 -3 -10 -6v-2zM897 905h1q16 7 29 23 q13 11 13 18q-13 5 -20 7v-8l1 -4q-1 -3 -4 -5h-3q-3 0 -4 12l1 9q-6 2 -9 2q0 -6 -3 -10q3 -6 3 -17v-3q0 -10 -5 -24zM947 1525q0 35 6 86q-2 3 -2 4q0 24 19 28q2 0 19 3q28 -4 38 -7q20 -9 83 -28q24 -10 24 -17v-1q-14 -72 -16 -77q-1 -4 -6 -4q-6 0 -68 6 q-13 -95 -20 -166q-2 -49 -5 -49q-2 0 -3 -1q-25 6 -25 16v1q5 131 11 198q0 6 -7 6q-12 0 -43 -5q-5 2 -5 7zM955 1236q3 8 8 8q5 -2 5 -7q0 -4 -5 -6h-2q-6 1 -6 5zM956 1270q1 5 5 5q5 0 8 -5v-3q-3 -4 -6 -4q-7 1 -7 7zM959 -207q0 7 7 7q0 2 1 2h3l3 -4h9q16 2 21 2h3 q11 0 19 -18v-2q0 -8 -10 -8q-24 -2 -26 -5q2 -8 2 -13v-7q1 -1 2 -1q20 4 26 4h6q13 0 13 -23v-1q0 -7 -27 -8h-8l1 -7v-21q20 0 41 7h4q9 0 12 -28q1 0 1 -4q0 -5 -10 -6q-3 0 -32 1q-17 0 -39 -5h-6q-6 0 -9 79q-7 46 -7 54v5zM966 1212q3 7 8 7q4 0 5 -6v-1q0 -6 -8 -6 q-5 2 -5 6zM969 1181v3q1 6 6 6q7 -2 7 -7q0 -3 -8 -5q-4 1 -5 3zM974 1151v4q3 4 7 4t5 -5q-1 -7 -6 -7h-3q-1 0 -3 4zM982 1122q0 4 5 4h2q7 -2 7 -7q-3 -6 -8 -6q-6 2 -6 9zM984 1229q0 7 6 7q6 -2 6 -4v-2q0 -7 -6 -7q-6 1 -6 6zM988 1087q0 3 5 4q10 -2 10 -9 q-2 -5 -5 -5q-10 0 -10 10zM988 1176q0 4 6 5l1 -1l3 1q5 -2 5 -5q-2 -7 -7 -7h-1q-7 1 -7 7zM989 271q0 -7 2 -7q6 3 10 16v4v7q0 6 6 6q4 0 5 -15q0 -7 6 -12h1q5 4 5 11v3q0 3 -1 10q1 6 5 6q7 -2 7 -14q4 -9 7 -10h2q2 0 5 9l-1 5v6q0 4 3 5h2q6 0 6 -6v-7q1 -7 7 -7 l3 3v7q-10 31 -21 31q0 -15 -5 -15h-2q-2 0 -5 7q-5 6 -30 10q-7 6 -10 9q-7 -29 -7 -62zM993 1138q2 10 4 10h4q1 0 3 -6q-2 -9 -7 -9q-4 0 -4 5zM994 1060q0 6 8 6q6 -3 6 -7q-2 -8 -7 -8q-7 3 -7 9zM996 1201q0 2 4 5h1q7 -1 7 -6q-3 -6 -7 -6h-1q-4 2 -4 7zM1001 1099 q0 2 5 6h1q5 0 5 -6q-2 -6 -7 -6q-4 2 -4 6zM1003 345q0 -9 7 -12l24 -6q1 3 5 6q5 52 5 73v7h-15q-15 0 -24 -2v-33l-1 -7q1 -1 2 -1v-2q-2 0 -2 -2q-1 -13 -1 -21zM1005 267h3q0 2 -2 2q0 -1 -1 -2zM1009 1160q3 6 8 6q6 0 7 -7q-2 -7 -7 -7h-2q-6 0 -6 8zM1011 1125 q0 4 4 6h2q4 0 7 -5v-2q0 -5 -7 -6h-2q-4 2 -4 7zM1015 1068v1q0 1 3 3h1q10 -2 10 -7q-2 -5 -7 -5q-7 0 -7 8zM1017 1087v3q0 6 5 6q5 -2 5 -6q0 -5 -6 -7q-3 1 -4 4zM1026 1007q0 -2 1 -20v-18q13 0 16 -17q0 -33 19 -53l1 -5q2 0 5 45q1 0 1 5l-1 -1q-6 0 -9 18v8 q0 11 12 21l2 5v2q0 7 -7 9q-11 0 -19 -16q0 -7 -5 -7q-3 0 -5 6q0 9 15 22q6 4 14 4q13 0 17 -19q-5 -17 -11 -17q-3 -5 -3 -8v-7q0 -3 2 -14h1q14 21 14 40v6q0 11 -7 22q-13 11 -20 11h-4q-7 0 -23 -14q0 -2 -6 -8zM1043 956v4q2 11 9 11h2q1 0 3 -3v-1q0 -2 -5 -7v-2 q11 -17 11 -21q0 -8 -6 -8h-2q-1 0 -3 3v3l2 2q-9 15 -11 19zM1069 314q9 -16 9 -28q0 -1 -1 -7q34 4 34 8q0 22 -5 32q-11 -2 -29 -2q0 -1 -8 -3zM1089 -316q3 54 3 62v14q0 4 -2 56v16q0 9 24 11q25 0 43 -19q6 -12 6 -21q0 -20 -32 -41v-1q15 -11 51 -33l2 -3v-3 q-16 -18 -18 -18h-3q-19 7 -43 15l3 -38q-3 -2 -7 -3l-18 2q0 -1 -5 -2q-4 1 -4 5v1zM1099 1157q19 28 19 29q7 12 26 53q13 20 32 47q0 2 1 2q-3 6 -38 27q-32 25 -32 32q0 8 79 89q22 24 44 50q2 2 5 2q5 -4 14 -6l2 -3l-1 -5q24 -21 24 -27v-4q0 -2 -21 -28q0 -4 -39 -41 q0 -6 25 -27q13 -15 29 -30q3 -4 3 -7v-3q0 -11 -45 -63q-62 -80 -84 -111q-5 -4 -10 -4q-22 8 -32 23q-1 0 -1 5zM1101 512q0 6 3 9q-2 4 -2 6v1q2 5 8 5h1q1 0 2 -3q1 0 10 3q7 0 9 -20q0 -2 3 -23q10 17 14 17q3 -1 13 -19l3 -3q7 45 16 45h3q30 -2 30 -12v-2 q0 -3 -11 -46q-3 -38 -6 -59q-5 -20 -16 -20q-15 0 -35 49h-2q-14 -33 -14 -46q-3 -5 -6 -5q-8 0 -13 53q-10 63 -10 70zM1136 -30v-1q4 -2 9 -20q1 -12 4 -12q4 0 5 -8l-1 -3q15 -55 31 -55h1q17 0 17 21q0 11 -21 71q-6 9 -9 9h-7q-26 -2 -29 -2zM1210 -269q0 10 4 24 q1 3 3 3q23 -6 23 -24v-3q0 -14 -17 -17q-13 3 -13 13v4zM1226 546q0 8 4 10h1l3 -1q0 7 6 8h21q5 0 5 -20q1 -13 1 -21h1q6 9 10 9h2q3 -2 12 -20q11 -17 12 -17q14 15 22 43l3 3h3q7 0 23 -22q2 -3 2 -7v-3q-14 -34 -28 -83q-4 -9 -9 -9q-9 0 -40 44q-6 10 -7 10 q-11 -44 -14 -49l-4 -1q-9 0 -23 83q-6 28 -6 43zM1231 -139q0 5 26 23q6 6 11 6q21 -4 21 -11v-3q0 -7 -18 -19q7 -10 7 -13q6 0 14 9q2 1 3 1q8 0 15 -18v-1q0 -8 -19 -20q0 -1 7 -16q2 0 13 13h3q25 -23 25 -25v-2q-16 -11 -30 -25q-12 -14 -17 -14q-8 0 -21 32 q-18 34 -34 78q-6 2 -6 4v1zM1302 -100q11 35 23 57q1 0 3 1q15 -1 24 -2q4 1 8 1q5 -1 5 -5t-11 -30l-1 -4l36 -12q8 -3 8 -7v-3q-11 -76 -25 -90h-3q-14 6 -21 6q-2 2 -2 3q4 46 9 69v1q0 5 -49 7q-4 5 -4 7v1z" />
<glyph unicode="A" horiz-adv-x="2176" d="M70 551v189q0 198 164 487q198 300 573 420q85 25 201 43v-6l12 6h80q541 0 883 -506q140 -260 140 -517q0 -502 -414 -829q-288 -207 -609 -207h-7q-495 0 -834 432q-150 211 -189 488zM661 758q0 -178 140 -219h12q18 22 18 42v19q-60 126 -60 176q0 106 115 238 q127 91 232 91q214 0 280 -219q12 -57 12 -92v-12q0 -187 -134 -292q-17 -12 -79 -31q-122 0 -122 116q55 269 55 293q0 44 -55 67h-61q-91 -57 -91 -153v-36q0 -12 24 -104q-73 -329 -91 -469v-61v-79h12q102 106 134 268q23 134 37 134q101 -67 146 -67h55q226 0 304 329 l6 85q0 263 -237 366q-57 24 -201 42q-126 0 -262 -73q-189 -130 -189 -323v-36z" />
<glyph unicode="B" horiz-adv-x="2173" d="M49 663q0 456 391 807q302 220 642 220q534 0 868 -471q165 -276 165 -525v-67q0 -361 -300 -697q-216 -195 -415 -250q-86 -31 -214 -49h-202q-159 18 -336 91q-375 190 -525 563q-74 204 -74 378zM575 828q37 -55 43 -55h6l67 43h18q59 0 171 -470q67 -159 135 -159h24 q204 0 513 525q37 100 37 159v25q0 117 -73 152l-61 19h-43q-104 -19 -159 -68q-79 -90 -98 -171q55 19 74 19q73 -6 73 -61v-31q-50 -181 -159 -257h-18q-53 0 -122 465q-45 71 -80 85h-73q-61 -18 -275 -220z" />
<glyph unicode="C" horiz-adv-x="2157" d="M50 590v128q0 314 261 638q342 334 742 334h48q323 0 645 -249q239 -240 292 -432q36 -80 48 -182.5t12 -133.5v-54v-43q-24 -221 -97 -371q-161 -326 -492 -492q-237 -98 -426 -98h-12q-382 0 -699 280q-199 207 -249 365q-55 123 -73 310zM664 997q17 -91 115 -91 q80 0 110 91v6q0 94 -116 110q-71 0 -109 -79v-37zM676 249q2 -12 12 -12h170q12 0 12 12v554l-12 24h-170q-12 -2 -12 -12v-566zM980 249q2 -12 12 -12h170q12 0 12 12v310q15 128 104 128q103 0 103 -128v-310q2 -12 12 -12h183v383q0 103 -98 189q-74 30 -91 30h-61 q-71 -3 -139 -73h-13v61h-194v-578z" />
<glyph unicode="D" horiz-adv-x="2150" d="M39 661q0 406 317 743q330 286 694 286h42q344 0 664 -262q340 -345 340 -724v-98q0 -220 -170 -517q-210 -300 -572 -414q-168 -42 -280 -42h-6q-419 0 -749 328q-280 320 -280 700zM636 296q172 -79 298 -79q264 0 450 213q134 186 134 353v42q97 93 98 104v6 q-35 -18 -98 -31l-6 13q57 33 85 91v6h-6q-90 -43 -109 -43h-18q-67 55 -122 61h-49q-102 0 -164 -115q-18 -30 -18 -79v-49q0 -12 -13 -12q-191 26 -328 134l-85 79h-7q0 -10 -24 -49v-73q8 -62 85 -140v-6q-42 0 -85 24v-6q0 -117 152 -201l-12 -6h-30l-31 6v-12 q70 -128 177 -128v-18q-120 -73 -238 -73h-36v-12z" />
<glyph unicode="E" horiz-adv-x="2144" d="M30 682v12q0 14 6 24q0 7 -6 7q39 298 159 482q190 309 586 440q148 42 256 42h62q380 0 720 -323q239 -290 263 -525q18 -111 18 -141v-85q0 -206 -140 -477q-204 -334 -581 -464q-191 -49 -299 -49h-24q-395 0 -733 318q-287 318 -287 739zM775 609h104q9 0 18 -19 v-525l3 -37h217v568q2 13 12 13h177q12 0 31 201v12h-208q-12 0 -12 12v147q0 94 110 104h122v183q0 18 -128 18h-31q-211 0 -275 -158q-12 -33 -24 -98l6 -189q0 -9 -18 -19h-104v-213z" />
<glyph unicode="F" horiz-adv-x="2170" d="M50 618v61q0 398 323 730q328 280 675 280h61q382 0 724 -328q274 -328 274 -682v-30q0 -404 -322 -731q-318 -286 -694 -286h-24q-393 0 -731 317q-231 266 -267 535q-19 102 -19 134zM677 417l420 -237l420 237v481q-58 41 -414 244h-12q-414 -236 -414 -244v-97 q20 -4 414 -231q16 0 256 140l6 -13v-176q-186 -125 -268 -152q-157 105 -250 140q-151 -85 -158 -85v-7zM933 843v13q6 16 164 97h6q148 -83 158 -97v-13q-158 -85 -170 -85q-111 67 -158 85z" />
<glyph unicode="G" horiz-adv-x="2147" d="M40 633v91q4 139 97 377q73 151 243 322q215 183 486 243l152 19h67q446 0 797 -402q213 -303 213 -632q0 -357 -262 -675q-334 -346 -766 -346h-6q-429 0 -754 340q-267 308 -267 663zM666 621q0 -219 188 -414q34 -24 67 -24q146 43 152 43h6q29 0 146 -37h37 q95 0 194 231q6 11 6 24q-127 70 -127 207q0 104 103 183q-70 97 -176 97h-25q-17 0 -170 -49q-108 43 -158 43q-170 0 -231 -195q-12 -46 -12 -85v-24zM1067 943h18q177 52 177 207v18h-13q-82 0 -164 -122l-18 -60v-43z" />
<glyph unicode="H" horiz-adv-x="2147" d="M40 655v6q0 496 414 822q294 207 609 207q427 0 767 -341q262 -307 262 -700q0 -542 -505 -877q-264 -140 -475 -140h-92q-210 0 -475 140q-505 332 -505 883zM612 259q0 -91 159 -158q95 -18 146 -18q252 0 347 182q18 48 18 61v37q0 109 -189 237q-18 31 -18 49 q0 36 122 146q36 57 36 103v49q-6 73 -91 158l12 7h55q12 0 91 42v12q-82 -6 -121 -6h-116l-37 6q-341 -41 -341 -255v-37q0 -141 177 -201h85l12 -6q-12 -22 -12 -49q0 -42 37 -91l-213 -43q-159 -72 -159 -201v-24zM728 320q0 76 98 128q62 36 200 36q165 -95 165 -188 q0 -135 -189 -159h-24q-250 24 -250 183zM801 971q18 147 140 147q91 0 159 -165q6 -59 18 -97q-27 -146 -116 -146h-43q-74 0 -133 134q-25 55 -25 127zM1313 655q2 -12 12 -12h115q13 -2 13 -12v-128h67v128q2 12 12 12h128v67h-128q-12 0 -12 12v116q0 12 -13 12h-54 v-128q0 -12 -13 -12h-127v-55z" />
<glyph unicode="I" horiz-adv-x="2163" d="M60 630v43q0 486 421 818q280 196 562 196h91q414 0 764 -385q220 -299 220 -647q0 -536 -495 -880q-267 -140 -458 -140q0 -6 -6 -6t-6 6l-31 -6q-664 0 -977 610q-85 203 -85 391zM530 887q0 -45 49 -153q-7 -63 -7 -73q0 -312 294 -464q83 -49 207 -49h86 q117 -43 134 -43h67q137 0 251 165q30 94 30 104v73q0 49 -43 128v110q0 253 -256 428q-126 61 -257 61q-9 0 -73 -6q-86 49 -177 49q-185 0 -287 -208q-18 -73 -18 -122zM811 508v25q9 28 61 48q41 0 85 -85q0 -47 110 -73l12 6l13 -6q90 0 134 85q0 93 -214 122 q-189 47 -189 183q0 142 201 178q23 6 55 6h19q238 -25 238 -171q-14 -39 -49 -55h-18q-40 0 -98 97q-25 25 -92 31q-122 -17 -122 -73q0 -70 238 -110q171 -53 171 -177v-13q0 -169 -250 -201h-18q-211 0 -275 134q-12 23 -12 49z" />
<glyph unicode="J" horiz-adv-x="2131" d="M40 664q0 555 512 889q240 134 493 134h67q349 0 664 -280q216 -227 274 -439q43 -167 43 -231v-128q0 -274 -213 -579q-337 -396 -817 -396q-498 0 -834 433q-189 273 -189 597zM527 889q36 -451 147 -451q196 -55 298 -55q35 14 61 128v37h12v-18q0 -100 232 -116 q67 -28 67 -146v-31q0 -47 -49 -73h-116q-49 0 -49 49v18q0 26 92 37v79h-43q-146 0 -146 -98q-6 -23 -6 -48v-19q0 -140 158 -140h128q109 0 153 116q73 228 73 432q0 530 -80 530q-154 37 -329 37q-38 91 -134 91h-103q-69 0 -104 -67v-152q0 -33 -36 -49h-140 q-86 0 -86 -91zM552 1005h6q39 12 55 12h128q12 0 12 12q0 19 -6 116q12 55 12 61h-6q-10 -2 -201 -201zM1240 688v6q0 49 61 55q49 0 61 -67v-6l-6 -12q-42 12 -73 12h-31q-12 0 -12 12z" />
<glyph unicode="K" horiz-adv-x="2163" d="M40 636v61q0 180 116 438q203 362 597 506q176 49 311 49h43q304 0 609 -225q390 -335 390 -805q0 -488 -408 -823q-303 -207 -543 -207h-164q-232 0 -537 201q-234 204 -280 323q-134 251 -134 482zM558 660q0 -312 317 -475q47 -20 146 -37h92q187 0 365 195 q110 165 110 287l-6 12l6 12l-6 12q0 6 6 6q0 225 -213 402q-154 98 -275 98h-54q-222 0 -403 -232q-85 -148 -85 -280zM601 617l18 13h158q9 0 43 -165q12 0 12 -43q-81 -30 -122 -54q-41 0 -97 188q-6 11 -12 61zM601 691q0 125 97 249h12q39 -25 116 -54v-31 q-28 -65 -42 -183l-13 -6h-152q-15 0 -18 25zM735 331q65 49 116 49q57 -89 140 -177v-12q-173 41 -256 140zM735 977v12q154 134 256 134l6 -12q-34 -13 -153 -183h-6q-92 26 -103 49zM826 684q27 189 55 189q160 -20 171 -30v-159q0 -8 -19 -18h-189q-4 0 -18 18zM832 617 q2 13 12 13h195q13 -2 13 -13v-146q0 -20 -177 -36q-43 93 -43 182zM899 392q8 12 122 24h12q9 0 19 -18v-171l-6 -12q-131 111 -147 177zM899 916q0 54 147 189l6 -12v-183q0 -9 -19 -18h-18q-116 10 -116 24zM1088 221v183q2 12 12 12h19q128 -8 128 -30 q-41 -85 -147 -177q-12 0 -12 12zM1088 465v152q2 13 12 13h208q12 -2 12 -13q-22 -160 -61 -182q-157 19 -171 30zM1088 684v153q0 20 183 36q49 -102 49 -189q0 -8 -18 -18h-195q-9 0 -19 18zM1088 904v189q2 12 12 12q114 -102 153 -183q0 -21 -122 -30h-31q-12 0 -12 12 zM1149 1117q6 0 6 6q100 -6 232 -109l30 -37q-74 -49 -122 -49q-48 91 -146 189zM1155 191v12q55 52 147 183q103 -39 103 -55v-6q-78 -93 -250 -134zM1314 435v6q28 59 48 189h171q12 -2 12 -13q0 -133 -109 -249q-122 54 -122 67zM1320 886q86 36 116 54h12 q97 -119 97 -249v-7q0 -8 -18 -18h-152q-21 0 -31 134q-24 46 -24 86z" />
<glyph unicode="L" horiz-adv-x="2150" d="M50 657q0 521 468 863q276 170 565 170h6q390 0 728 -310q292 -322 292 -723q0 -552 -510 -886q-247 -140 -516 -140q-544 0 -887 498q-146 275 -146 528zM597 153q6 0 6 -6l255 67h12q151 -61 237 -61h24q221 0 395 189q121 157 121 340q0 312 -315 480q-101 36 -177 36 h-54q-324 0 -480 -364q-18 -95 -18 -116v-79q0 -90 67 -224q-43 -170 -73 -262zM688 633v73q0 214 249 371q100 36 194 36q275 0 407 -292q24 -73 24 -151q0 -6 -6 -6q0 -7 6 -7q0 -199 -224 -364q-124 -55 -213 -55q-102 0 -243 67h-18l-116 -30h-12l-12 6q37 137 37 152 q-73 131 -73 200zM858 797q0 -151 249 -322q106 -48 133 -48h37q109 26 109 91v30q-3 19 -121 61h-12l-67 -67q-125 49 -195 170v6q43 52 43 73q-42 128 -73 128h-18q-85 -22 -85 -122z" />
<glyph unicode="M" d="M50 599v110q11 230 134 462q340 517 894 517q503 0 839 -438q189 -286 189 -596q0 -359 -262 -675q-331 -347 -766 -347q-495 0 -833 426q-106 142 -171 371zM476 642q0 -344 85 -390q66 -30 304 -30h548q191 0 225 85q36 91 36 292v85q0 285 -73 335q-55 36 -566 36 t-511 -79q-39 -24 -48 -328v-6zM956 484v322h6q287 -149 298 -164l-285 -158h-19z" />
<glyph unicode="N" horiz-adv-x="2163" d="M60 625v92q0 240 189 543q346 427 806 427h73q393 0 720 -330q210 -245 257 -512q18 -156 18 -183q0 -244 -134 -507q-55 -119 -275 -317q-296 -208 -629 -208q-519 0 -854 464q-171 273 -171 531zM622 424q0 -151 128 -226q79 -43 128 -43h476q94 8 195 104 q74 116 74 226q4 35 4 66q0 221 -206 227l12 73q0 231 -177 299q-57 18 -103 18h-80q-241 0 -317 -36q-134 -74 -134 -336v-372zM829 466v19q0 66 98 79h390q92 -20 92 -92q0 -50 -67 -85h-434q-79 20 -79 79zM853 857v18q7 80 80 80h207q61 0 86 -61v-37q0 -37 -61 -73 h-226q-86 18 -86 73z" />
<glyph unicode="O" horiz-adv-x="2183" d="M60 602v92q0 323 257 648q336 348 776 348q503 0 844 -440q189 -293 189 -587q0 -440 -342 -770q-308 -263 -648 -263h-86q-417 0 -752 367q-210 285 -226 507q-12 70 -12 98zM690 504q8 -55 55 -55q67 0 67 86v226q-6 73 -61 73q-61 -6 -61 -55v-275zM836 431 q0 -80 92 -80q24 0 24 -12v-122q0 -48 37 -67h49q37 21 37 55v128q0 9 18 18h55q9 0 18 -18v-134q0 -49 49 -49h19q46 0 55 61v128q0 14 85 18l25 37v428h-563v-391zM836 853h563v24q0 105 -141 202q43 72 43 85h-6q-50 -79 -61 -79q-19 12 -92 24q-85 -6 -147 -24 q-43 71 -43 79h-12q0 -22 37 -73v-12q-141 -103 -141 -226zM965 969v12q0 9 18 18h12q9 0 19 -18v-12q0 -19 -25 -19q-24 10 -24 19zM1227 969v18q2 12 13 12h18q9 0 18 -18v-12q-6 -19 -36 -19zM1429 510q0 -47 61 -67q61 20 61 61v245q0 85 -67 85q-34 0 -55 -43v-281z " />
<glyph unicode="P" horiz-adv-x="2173" d="M50 597h6l-6 13v36q0 561 500 898q258 146 532 146q566 0 903 -531q128 -262 128 -476v-67q0 -206 -140 -476q-204 -335 -568 -458q-179 -55 -323 -55q-490 0 -837 427q-189 299 -189 531q-6 0 -6 12zM575 335q0 -250 238 -250h525q250 0 250 219v190q0 232 -226 232 h-561q-226 0 -226 -245v-146zM691 579v37q2 12 12 12h177q9 0 18 -18v-13q0 -31 -18 -36h-55v-354q0 -12 -12 -12h-37q-18 6 -18 36v330h-49q-9 0 -18 18zM782 1232q74 -256 74 -281v-146h67v165l73 262h-61q-37 -132 -37 -158h-18q0 25 -37 158h-61zM892 225v275q0 9 19 18 h6q36 -4 36 -18v-238q0 -12 19 -12q27 11 30 24v226q0 9 18 18h25q9 0 18 -18v-293q0 -12 -12 -12h-31q-16 0 -18 30q-55 -36 -61 -36q-32 0 -49 36zM996 903q0 -110 86 -110q85 10 85 85v165q0 62 -61 85h-49q-61 -30 -61 -67q0 -6 6 -6l-6 -30v-122zM1057 872v183 q0 9 18 19h13q24 -9 24 -55v-129q0 -42 -37 -42zM1118 213v403q2 12 12 12h31q9 0 18 -18v-116h6l31 24h18q55 0 55 -85v-177q-6 -67 -49 -67q-20 0 -55 24l-24 -18h-25q-8 0 -18 18zM1179 262q0 -9 18 -19h19q12 0 12 13v177l-6 30h-31q-12 -2 -12 -12v-189zM1222 823 q0 -8 18 -18h49q3 0 31 24q12 0 12 -24h42q13 0 13 12v299h-55q0 -12 -6 -12l6 -30v-159q0 -6 -6 -6l6 -12v-7q-16 -30 -25 -30h-18q-12 0 -12 12v244h-55v-293zM1332 323l6 43l-6 36q0 122 97 122q68 0 80 -91v-67q0 -9 -19 -19h-91q0 -6 -6 -18q6 -42 6 -67v-12l30 -7 q16 0 25 68h36q9 0 19 -19v-12q-14 -91 -73 -91h-31q-73 0 -73 134zM1399 402q6 0 6 -6q12 6 18 6q12 -6 19 -6l6 12v19q0 31 -19 36h-18q-12 0 -12 -61z" />
<glyph unicode="Q" horiz-adv-x="2144" d="M30 662q0 430 354 775q330 250 604 250h147q236 0 537 -195q227 -177 329 -409q92 -221 92 -373v-85q0 -342 -281 -678q-326 -317 -757 -317q-538 0 -879 501q-146 270 -146 531zM512 478q0 -260 165 -347q59 -33 323 -33q70 0 153 2q308 0 354 67q104 83 104 275v409 q0 242 -171 317l-76 25l-77 6h-445q-238 0 -318 -232q-12 -71 -12 -171v-318zM610 582v135q0 305 49 305q49 79 201 79h427q232 0 232 -244v-433q-31 -226 -189 -226h-177q-124 0 -262 -6q-230 0 -269 146q-12 81 -12 244zM781 643q0 -197 226 -274h122q219 79 219 280v13 q0 114 -116 213q-79 55 -164 55h-6q-189 0 -263 -195q-10 -13 -18 -92zM878 643q22 190 184 190h6q132 0 177 -141q6 -8 6 -43q-29 -189 -183 -189q-122 0 -177 122q-8 10 -13 61zM1293 936q27 -61 68 -61t67 61q-14 74 -74 74q-61 -19 -61 -74z" />
<glyph unicode="R" horiz-adv-x="2154" d="M40 645v55q0 184 122 445q65 140 268 317q293 225 640 225q488 0 822 -414q207 -291 207 -609v-25q0 -372 -298 -706q-326 -299 -689 -299h-97q-397 0 -737 366q-238 307 -238 645zM460 664q0 -52 61 -116v-18q0 -306 457 -378q18 -6 85 -6q395 0 536 274q17 120 25 140 q55 50 55 116q0 90 -110 134h-49q-16 0 -79 -31q-92 67 -341 104v6q73 216 85 219h6q165 -42 189 -55q23 -103 92 -103h42q92 15 92 116q-19 103 -104 103h-18q-53 0 -104 -67h-6l-219 55q-92 -257 -110 -280q-178 0 -353 -98q-52 31 -73 31h-37q-122 -33 -122 -122v-24z M503 639v61q37 73 97 73q46 -7 49 -24q-73 -61 -116 -146h-6zM808 566v18q0 45 60 80h37q58 0 79 -86v-6q-21 -79 -73 -79h-36q-51 0 -67 73zM862 347v18q0 9 19 18h6q62 -49 128 -54h109q37 0 134 54h6q0 -3 13 -18v-18q-40 -48 -159 -73h-91q-84 0 -165 73zM1167 566v18 q20 80 79 80h31q67 -30 67 -92q0 -59 -73 -79h-31q-73 17 -73 73zM1423 1035v31q0 56 79 67q53 0 61 -73v-13q0 -54 -73 -61q-39 0 -67 49zM1490 749q0 16 49 24q97 -23 97 -91v-37q-23 -42 -30 -42q-47 77 -116 146z" />
<glyph unicode="S" horiz-adv-x="2141" d="M40 671q0 535 500 877q251 140 523 140h7q509 0 834 -433q189 -279 189 -542v-103q0 -347 -305 -683q-333 -292 -676 -292h-91q-310 0 -628 250q-353 321 -353 786zM448 658q0 -197 213 -268q40 0 61 -6q191 0 268 189q13 40 13 55v67q0 115 -147 213q-76 31 -103 31h-67 q-65 -8 -146 -67q-92 -88 -92 -214zM1124 658q0 -165 183 -262l104 -18q77 0 176 67q98 102 98 189v55q0 143 -183 238q-84 18 -97 18q-138 0 -238 -134q-43 -86 -43 -153z" />
<glyph unicode="T" horiz-adv-x="2150" d="M40 676q28 282 97 420q71 158 269 353q262 197 493 226q55 12 79 12h189q204 -14 445 -146q184 -121 323 -317q118 -171 164 -463v-164q0 -233 -189 -530q-338 -433 -840 -433q-382 0 -695 274q-230 198 -317 579zM600 310q206 -237 482 -237q242 0 408 158v18 q0 13 -12 13q-174 -98 -360 -98h-42q-223 0 -469 158h-7v-12zM765 530q34 -195 177 -195h91q63 0 164 91q78 -91 110 -91q122 102 122 121q-61 81 -61 165v231q0 207 -116 238q-76 37 -158 37q-209 0 -286 -159q-19 -44 -19 -73q31 -24 171 -24q30 103 103 103h25 q85 0 85 -79v-61q0 -10 -244 -49q-164 -86 -164 -219v-36zM966 572q0 124 177 140h18q12 -2 12 -12v-97q-41 -134 -122 -134q-70 0 -85 103zM1398 298l7 -12q45 12 85 12q42 -8 42 -24q-6 -42 -30 -116h12q67 59 67 158q-13 10 -55 19l-12 -6h-6q-6 0 -6 6 q-104 -15 -104 -37z" />
<glyph unicode="U" horiz-adv-x="2163" d="M50 675v37q0 6 6 6q0 6 -6 6q31 229 104 387q213 403 638 539q166 43 294 43q511 0 852 -448q184 -288 184 -564v-67q0 -177 -116 -435q-209 -377 -607 -509q-142 -43 -258 -43h-98q-435 0 -778 399q-215 294 -215 649zM498 295l18 -12h294q9 0 19 18v43q0 149 -141 190 q-33 6 -37 6q-100 0 -147 -134q0 -60 -6 -62l6 -12zM516 724q0 -147 147 -147q130 0 147 160q0 129 -159 153q-120 0 -135 -153v-13zM859 332q0 -33 31 -49h325q12 0 12 12v80q-26 190 -190 190q-141 0 -178 -196v-37zM878 773q0 -118 122 -159h49q6 0 6 -6q160 33 160 190 q0 80 -104 141q-53 18 -74 18q-133 0 -159 -165v-19zM1270 295q2 -12 12 -12h386l6 31v43q0 179 -153 233q-32 6 -61 6q-138 0 -184 -160q-6 -32 -6 -73v-68zM1282 835q27 -190 178 -190q177 0 196 202q-29 178 -178 178q0 6 -6 6l-12 -6q-6 0 -6 6q-145 0 -172 -196z" />
<glyph unicode="V" horiz-adv-x="2141" d="M40 665q0 372 275 695q319 330 769 330q562 0 897 -537q122 -251 122 -464v-61q0 -366 -311 -708q-314 -287 -733 -287q-511 0 -854 470q-165 285 -165 562zM321 518q6 -76 6 -79h12q6 61 6 91q0 13 -6 67h-12q-6 -52 -6 -79zM370 512q12 -65 12 -85v-37h12v6 q12 87 12 122v6q0 32 -12 128q-12 -2 -12 -12v-18zM431 512q12 -106 12 -146h12v6q12 96 12 128v36q-12 135 -12 141h-12v-6q-12 -141 -12 -159zM492 506q6 -113 6 -140l12 -7h6q12 149 12 165q-12 147 -12 159h-6q-12 -2 -12 -12q0 -16 -6 -165zM553 494q6 -107 6 -135 l12 -6h6l12 165l-12 159h-6q-12 -2 -12 -12q-6 -149 -6 -171zM608 518q10 -165 24 -165h6l12 177q-6 171 -12 244h-6q-12 0 -12 -18q0 -69 -12 -238zM669 469q9 -122 24 -122q2 12 12 12q0 43 6 159q-6 219 -6 305l-12 6h-12v-24q0 -34 -6 -85q0 -7 6 -7l-6 -30v-134 q0 -6 -6 -6l6 -13v-18q0 -6 -6 -6l6 -12v-6q0 -19 -6 -19zM730 530q7 -183 24 -183l12 6q6 113 6 165v31q0 93 -6 305l-12 6l-12 -6q-6 -122 -6 -183v-92q0 -25 -6 -49zM797 396q6 -49 18 -49h6q0 10 12 25q0 71 7 146q-7 147 -7 330q-9 24 -18 24l-12 -6q-6 -221 -6 -336 v-91l6 -43h-6zM858 506q0 -23 6 -153l12 -6h12q5 67 13 67q0 6 -6 6l6 31v12q0 263 -13 403h-24zM919 530q6 -64 6 -171q3 0 18 -12h6q13 26 13 31q0 87 6 140q-6 109 -6 238v37q0 67 -19 67q-8 0 -18 -18v-68q0 -130 -6 -244zM986 384q4 -37 18 -37h6l13 6q6 122 6 183v86 q0 64 -6 195h6l-6 12v86h-31l-6 -31v-500zM1047 506q0 -159 18 -159h7q3 0 18 12q0 52 6 165q-6 283 -6 415l-18 12q-12 -6 -19 -6q-6 -244 -6 -366v-73zM1108 378q8 -31 18 -31h525q177 29 177 196q-38 170 -171 170h-18q-15 0 -67 -12q-8 105 -116 226q-110 73 -207 73 q-135 -12 -135 -36l-6 -13q6 -248 6 -372v-134q0 -26 -6 -67z" />
<glyph unicode="W" horiz-adv-x="2144" d="M50 587v157q0 148 121 413q90 157 249 297q191 163 473 218q64 12 85 12h187q204 -14 443 -145q485 -337 485 -873q0 -527 -467 -861q-267 -164 -558 -164q-380 0 -691 273q-223 234 -266 400q-49 132 -61 273zM396 963q8 -79 78 -79v-6q230 60 431 60h12q389 0 715 -169 q24 -6 43 -6q61 0 72 97q0 116 -533 230q-158 18 -315 24l-12 -6q-6 0 -6 6l-31 -6h-30q-418 -24 -418 -115q-6 -10 -6 -30zM456 666q12 -73 61 -73h36q232 48 352 48q294 0 606 -163q24 -6 42 -6q49 0 61 66q-12 119 -449 218q-65 19 -291 31q-412 -31 -412 -103 q0 -7 -6 -18zM499 375q12 -55 30 -55h12q249 36 340 36h18q304 0 521 -139h18q55 8 55 54v7q0 77 -352 175q-145 19 -188 19h-115q-339 -26 -339 -79v-18z" />
<glyph unicode="X" horiz-adv-x="2157" d="M40 640v43q0 423 360 763q146 116 256 159q190 78 342 85h147q143 0 384 -104q185 -85 366 -311q208 -278 208 -623q0 -414 -342 -756q-311 -263 -689 -263q-580 0 -910 543q-122 245 -122 464zM479 744q0 -349 245 -647q98 -79 201 -79h55q189 0 464 122 q197 116 213 195q16 8 37 104v140q0 247 -207 580q-115 101 -226 110h-55q-266 0 -580 -183q-147 -122 -147 -263v-79zM699 701q0 41 122 73l-30 104v6q0 51 67 61q47 0 73 -110q9 -18 12 -18l159 55q-24 80 -24 86v48q22 37 61 37q50 0 79 -122q6 0 6 -6q66 24 104 30 q55 -18 55 -67q0 -52 -122 -85v-12q12 -13 49 -147q17 0 109 31q55 -18 55 -80q0 -36 -122 -79q19 -37 31 -98v-6q0 -55 -73 -61q-38 0 -74 128h-12q-22 -12 -152 -55l24 -85v-49q-21 -37 -61 -37q-49 0 -79 129h-19q-18 -17 -91 -31q-55 19 -55 67q0 50 122 86v12 q-46 139 -61 152q0 -14 -92 -30h-18q-43 25 -43 73zM974 695q12 -12 55 -159h6q12 0 165 55v6q-13 16 -55 153l-12 6q-1 -9 -159 -61z" />
<glyph unicode="Y" d="M50 657v7q0 535 477 867q259 159 531 159h43q498 0 843 -464q165 -285 165 -520v-104q0 -237 -189 -543q-335 -428 -856 -428q-494 0 -831 440q-183 268 -183 586zM484 389q0 -122 256 -190q22 0 55 -6q68 42 68 86q-96 43 -141 91v6h18q101 -61 294 -91h165 q157 29 293 91v-6q-75 -73 -159 -91v-6q58 -80 86 -80q142 0 287 128q0 10 12 25v104q0 159 -134 488q-133 129 -312 129l-6 -12q179 -69 208 -104v-6q-202 79 -306 79h-128q-129 -5 -330 -79q16 34 189 97q0 8 37 13v18q-126 0 -293 -110q-141 -273 -159 -574zM795 578 q37 104 104 104h12q83 0 104 -116q-15 -116 -104 -116h-18q-82 0 -98 128zM1186 572q18 110 104 110h6q83 0 104 -116v-6q-17 -110 -104 -110h-6q-104 0 -104 122z" />
<glyph unicode="Z" horiz-adv-x="2167" d="M50 668h6q0 6 -6 6q28 289 98 421q66 153 250 342q318 256 665 256h55q385 0 720 -323q187 -216 238 -434q17 -32 37 -195v-147q0 -149 -104 -384q-194 -380 -604 -525q-155 -49 -311 -49q-613 0 -934 574q-104 222 -104 433q-6 0 -6 25zM660 240l19 -12h213l13 -6 q-7 -9 -7 -110q11 -6 25 -6h165q40 305 67 305q10 6 24 6h104q212 0 293 190q24 70 24 122v42q0 69 -97 141q12 46 12 85q0 134 -159 196q-70 24 -342 24q-207 0 -207 -31q-128 -789 -147 -946z" />
<glyph unicode="[" horiz-adv-x="758" />
<glyph unicode="\" horiz-adv-x="569" />
<glyph unicode="]" horiz-adv-x="758" />
<glyph unicode="^" horiz-adv-x="1014" />
<glyph unicode="_" horiz-adv-x="1024" />
<glyph unicode="`" horiz-adv-x="1024" />
<glyph unicode="a" horiz-adv-x="2163" d="M50 629v60q0 343 280 676q334 322 748 322q462 0 809 -395q219 -308 219 -627v-6q0 -520 -468 -864q-269 -164 -566 -164q-489 0 -821 420q-201 287 -201 578zM610 221h231q12 -2 12 -12v-116h128l133 128h177q34 0 176 158q8 0 110 110v614h-900q-67 -171 -67 -195v-687 zM762 391v609q2 12 12 12h705q13 -2 13 -12v-463q-154 -164 -165 -164h-231l-127 -122h-7v122h-182q-9 0 -18 18zM1005 580h91l-6 30v195l6 30h-91v-255zM1248 580h85v255h-85v-255z" />
<glyph unicode="b" horiz-adv-x="2157" d="M50 665q0 510 432 833q276 189 541 189h110q285 0 596 -231q217 -199 286 -389q49 -85 85 -305v-146q0 -314 -255 -632q-223 -230 -438 -292q-178 -55 -268 -55v6q-12 -6 -18 -6q-761 0 -1035 736q-36 156 -36 292zM670 483q0 -53 49 -61q274 76 274 103v37 q-31 42 -274 121q-43 0 -49 -115v-85zM762 1085q18 -62 249 -402l18 -12h31q21 0 30 67l-6 43h6l-36 395q-25 12 -43 12q-249 -44 -249 -85v-18zM835 191q30 -49 170 -86l43 -6q36 8 36 55v103q0 14 6 25q-6 10 -6 24v12l6 37q-6 12 -6 18l6 12q-16 41 -36 49h-31 q-188 -194 -188 -231v-12zM1163 610q0 -8 37 -36h6q280 62 280 85l6 12q-40 138 -134 195h-24q-55 -61 -171 -225v-31zM1175 434q0 -26 140 -237l25 -19h6q104 56 152 189q0 40 -158 79q0 6 -116 37h-18q-31 -16 -31 -49z" />
<glyph unicode="c" horiz-adv-x="2157" d="M40 665q0 126 67 359q64 185 292 420q322 243 620 243h110q302 0 626 -255q237 -244 280 -420q43 -102 61 -274v-140q0 -248 -207 -559q-341 -402 -809 -402q-600 0 -931 566q-103 238 -103 438q-6 0 -6 24zM478 562q0 -219 255 -341q85 -18 177 -18h267q276 0 372 121 q86 54 139 244q7 52 7 79q0 299 -305 426l-67 18h-146q-104 0 -261 -134l-43 6h-42q-101 0 -237 -103q-116 -137 -116 -244v-54zM563 550v66q0 119 152 225q60 37 146 37q167 0 341 -231v-6q-13 -37 -49 -37q-12 0 -194 171q-50 18 -67 18h-37q-188 0 -213 -219 q0 -135 152 -195q110 0 177 -85l-6 -12l-31 6h-30q-253 0 -323 189q-18 54 -18 73zM806 598q13 37 49 37q249 -238 262 -238q82 -30 109 -30h24q199 0 274 225l6 43v30q0 129 -152 237q-87 31 -134 31t-158 -43q-51 31 -61 31v12q42 54 207 85h12q365 -62 365 -365 q0 -247 -243 -347q-83 -24 -122 -24h-6q-164 0 -346 207q-86 82 -86 109z" />
<glyph unicode="d" horiz-adv-x="2167" d="M40 631l6 12l-6 12l6 13q0 6 -6 6q18 200 67 342q166 409 568 592q217 79 397 79q388 0 701 -275q235 -241 281 -445q49 -157 49 -244v-141q0 -135 -104 -384q-199 -373 -592 -519q-158 -49 -281 -49h-103q-407 0 -745 372q-205 275 -226 525q0 39 -12 104zM632 814 q0 -34 214 -244l97 -116l-12 -6h-6q-14 0 -24 6q-11 -6 -25 -6q-6 0 -6 6l-12 -6h-55q-6 0 -6 6l-12 -6h-129l-12 6l-6 -12v-305h299q12 0 12 12v281q2 12 13 12q236 -223 335 -305h299v317h-610q-12 0 -12 12q316 170 616 324l13 24v287h-306q-11 -3 -238 -433 q-91 -173 -91 -190h-19v623h-317v-287zM669 808v12h232q12 -2 12 -12v-250h-6zM1047 552v12q256 488 263 488l6 -12v-220h219q13 -2 13 -12q-491 -256 -501 -256zM1053 411l12 6h238q13 -1 13 -12v-219q0 -13 -13 -13q-250 232 -250 238z" />
<glyph unicode="e" horiz-adv-x="2147" d="M40 664q0 569 533 902q253 121 448 121h97q231 0 526 -182q292 -210 400 -557q36 -152 36 -230v-109q0 -301 -254 -623q-338 -345 -769 -345q-367 0 -690 272q-327 327 -327 751zM415 628q0 -322 315 -539q181 -91 327 -91q335 0 551 303q103 176 103 351q0 324 -309 551 q-163 91 -357 91q-343 0 -551 -333q-79 -143 -79 -309v-24zM440 652q0 317 302 527q145 84 279 84h66q303 0 503 -296q83 -141 90 -291v-54q0 -172 -145 -376q-208 -218 -478 -218q-301 0 -502 267q-115 165 -115 357zM506 646q0 -314 297 -491h12l-260 709h-7 q-42 -109 -42 -218zM603 955h6q61 0 182 6q0 -3 12 -19v-12q0 -20 -79 -24l194 -593h12q0 31 115 357q-80 228 -97 236q-67 6 -67 24v12q0 10 25 19q109 -6 145 -6q38 0 157 6q12 -20 12 -31q-25 -24 -78 -24l193 -587h6q91 294 91 363q0 91 -84 218q-13 45 -13 61 q14 96 91 96v6q-169 140 -327 140h-90q-178 -15 -345 -164q-61 -70 -61 -78v-6zM912 113q76 -17 145 -24q182 22 182 36q0 17 -121 345q-43 108 -43 121q-23 -25 -85 -236q-78 -196 -78 -242zM1348 174q167 86 248 327q18 80 18 108v97q-6 76 -61 200h-6l6 -30v-30 q0 -92 -145 -479q-60 -175 -60 -193z" />
<glyph unicode="f" horiz-adv-x="2170" d="M50 665v24q0 341 269 665q331 336 756 336q572 0 904 -525q134 -258 134 -488v-31q0 -433 -372 -781q-322 -238 -641 -238q-11 6 -25 6q-6 0 -6 -6q-403 0 -744 330q-275 318 -275 708zM581 866q177 -552 238 -726q37 -55 92 -55q38 0 463 146l7 43q0 35 -37 140v43 q0 78 177 116q61 41 61 73q-6 58 -165 513q-40 37 -67 37h-43q-662 -208 -689 -232q-37 -33 -37 -98zM618 897q0 48 48 48h19q55 -42 55 -85v-49q-16 -30 -49 -30h-18q-55 34 -55 116zM642 890q20 -85 43 -85h12q9 0 18 18v37q-18 48 -36 61h-19q-10 0 -18 -31zM685 707v6 q0 16 49 25q13 0 42 -122h31q12 -2 12 -12q0 -14 -73 -31h-6q-13 0 -13 12t25 12v13q-21 91 -43 91q-12 -6 -18 -6zM746 958q0 15 49 30q24 -41 48 -128h7q10 6 24 6l6 -12q-2 -15 -79 -37l-6 12l18 25v6q-20 91 -37 91q-10 -6 -24 -6zM752 494v12q15 20 49 30 q17 -23 49 -128h12q12 6 18 6l6 -12v-6q0 -12 -79 -30q-12 0 -12 12q30 25 30 30q-14 19 -36 92l-31 -6h-6zM813 750q16 31 49 31q23 -33 49 -122h36v-13q-34 -30 -85 -30l-6 12q30 16 30 24l-36 98q-20 -12 -31 -12zM819 280q0 47 61 55q42 0 67 -98v-18q-8 -55 -55 -55 q-49 0 -73 116zM850 274q0 -69 54 -85l19 24q-17 91 -37 91h-30zM880 530q16 49 55 49h18q55 -35 55 -116q0 -32 -36 -49h-31q-35 0 -61 116zM880 958v42q0 9 31 31h36q55 -39 55 -98v-12q0 -49 -61 -55q-35 0 -61 92zM904 970q19 -80 49 -80q13 0 25 31q0 47 -37 85h-30 l-7 -30v-6zM911 518q20 -79 42 -79h13q13 0 18 30q0 73 -55 86q-5 0 -18 -19l6 -12q0 -6 -6 -6zM941 774q19 55 61 55q51 0 73 -116q-15 -48 -55 -48h-18q-61 52 -61 109zM953 323v18q22 37 55 37q35 0 67 -74v-61q0 -11 -42 -36q-80 13 -80 116zM978 335q0 -57 36 -98h6 l31 6v31q-20 79 -43 79h-6zM978 774q0 -85 49 -85h12q0 7 6 18q-9 98 -49 98q-12 -6 -18 -6v-25zM1002 1043q0 9 37 31h12q20 -15 55 -123q37 0 37 -12q0 -7 -61 -30h-19q-12 0 -12 12t24 12q-24 92 -24 104l-43 -6zM1014 579v12q0 16 49 31q43 -88 43 -122h30q13 -2 13 -12 q-1 -17 -86 -37l-6 12v6q0 12 25 12v7q-25 97 -37 97zM1075 811q7 61 55 61q51 0 74 -98v-12q0 -36 -49 -61q-60 0 -80 110zM1082 372q0 27 42 48h25q61 -41 61 -122q-10 -27 -37 -42h-37q-54 40 -54 116zM1106 823q0 -71 37 -91h12q18 0 18 24q0 63 -37 92l-30 -6v-19z M1112 347q16 -67 37 -67h18q12 0 12 12v49q-24 54 -36 55h-13q-8 0 -18 -18v-31zM1136 1092q0 16 49 24q44 -109 55 -122h31v-12q-42 -31 -80 -31l-6 13l25 24q-26 92 -55 92q-19 0 -19 12zM1143 622q0 33 54 49q74 -26 74 -122q0 -25 -31 -43h-43q-54 40 -54 116zM1173 610 q0 -53 37 -80h18q6 0 18 25q-6 31 -30 85h-31q-12 -2 -12 -12v-18zM1204 884v13q15 0 42 18h6q16 0 49 -128l31 6l6 -12v-13q-70 -24 -86 -24l-6 12q0 14 31 18q-27 104 -43 104q-11 -6 -24 -6zM1210 427v6q0 16 49 24q19 -20 54 -128q25 0 25 -12q-51 -25 -73 -25l-6 12 q0 7 24 25q-29 86 -43 98l-18 -13q-12 0 -12 13zM1265 1116q16 49 61 49q44 0 67 -91v-25q0 -49 -49 -49h-18q-61 45 -61 116zM1277 640v37q21 36 55 36q46 0 67 -97v-37q-21 -36 -61 -36q-61 41 -61 97zM1295 1116q0 -59 37 -91h18q9 0 18 18v12q-16 86 -48 86 q-19 -5 -25 -25zM1301 652q20 -77 37 -79h18q9 0 18 18q0 72 -48 98q-25 -6 -25 -37zM1332 927q26 31 55 31q12 -21 49 -129l12 7h12q12 -2 12 -13q-27 -30 -85 -30l-6 12q14 12 24 12v6l-31 98h-12l-18 -12zM1362 439q43 -142 43 -177h6q145 168 171 329q-52 -47 -171 -73 q-49 -36 -49 -73v-6zM1405 695v6q0 34 37 55h30q55 -39 55 -91v-43q0 -8 -30 -31h-37q-55 47 -55 104zM1436 695q12 -79 36 -79h18q13 0 13 12v6q0 72 -37 98h-24l-6 -31v-6z" />
<glyph unicode="g" horiz-adv-x="2163" d="M50 626v91q0 221 164 505q336 468 870 468q467 0 803 -395q219 -305 219 -627q0 -505 -444 -852q-290 -182 -584 -182q-457 0 -797 377q-231 314 -231 615zM628 334l359 -49q0 6 6 6l-6 12v316l6 13l-12 6l-353 6v-310zM628 680l347 6q0 -6 6 -6l6 12v341l-347 -43h-12 v-310zM1042 279l486 -67v426h-486v-359zM1042 686h450l30 6q0 -6 6 -6v432q-35 -12 -486 -73v-359z" />
<glyph unicode="h" horiz-adv-x="2186" d="M50 631v55q0 399 337 735q308 269 704 269q484 0 820 -416q208 -294 208 -612q0 -488 -416 -833q-287 -202 -588 -202h-49q-495 0 -826 435q-190 284 -190 569zM570 704h98q12 0 12 -18q-79 -331 -79 -367q24 -110 61 -110q0 -11 67 -25h37q74 0 159 98v6h13 q0 -11 -19 -79v-13h153q10 0 55 202q61 306 147 306q0 7 19 7h30q58 0 74 -80v-24q-68 -235 -68 -288q0 -98 111 -135h42q138 0 184 196h-6q-23 0 -49 18h-6q-34 -104 -86 -104h-6q-24 10 -24 43q67 246 67 306v37q0 118 -129 165h-49q-81 -7 -189 -128h-7l25 110l-12 6 h-233q-31 -102 -31 -129h98q13 -1 13 -12q-79 -349 -129 -349q-10 -30 -104 -55q-38 13 -43 31v30q0 43 117 478l-13 6h-238q-37 0 -43 -67zM723 998q0 -58 104 -79q86 31 86 85v31q0 47 -67 80h-43q-65 0 -80 -86v-31z" />
<glyph unicode="i" d="M50 648v25q0 482 437 832q296 182 553 182h73q321 0 644 -255q346 -335 346 -771q0 -527 -480 -869q-275 -158 -559 -158q-163 0 -394 85q-327 150 -511 480q-109 248 -109 449zM670 922q0 -536 382 -802h43q182 120 285 334h85q12 0 12 12v91q0 9 -145 49 q-128 94 -128 255q0 57 73 67q67 -10 67 -67q-6 -108 -18 -164v-24h121q26 0 30 188q0 169 -194 200h-18q-140 0 -188 -158l-7 -42q0 -215 183 -352v-6q-57 -126 -183 -231q-168 134 -236 401q-22 90 -37 249h-97q-6 0 -6 6q-11 -6 -24 -6z" />
<glyph unicode="j" horiz-adv-x="2157" d="M40 660v12q0 359 263 673q217 222 391 275q195 73 342 73h86q236 -13 464 -134q520 -340 520 -899v-67q0 -6 -6 -6q0 -6 6 -6q-31 -230 -110 -379q-182 -360 -575 -514q-201 -61 -360 -61q-74 3 -74 12q-6 0 -6 -6q-182 0 -476 165q-465 350 -465 862zM450 367h256v104 q-24 0 -24 12v91q10 62 49 62l18 -25v-128q0 -12 -18 -12v-55l-6 -43q3 0 18 -13h238v111h-36q-13 0 -13 12v165q0 104 -122 104q-60 0 -116 -61q-12 0 -12 12v201h-232v-110h30q12 -1 12 -12v-299q0 -12 -12 -12h-30v-104zM994 373q1 -13 12 -13h220l43 7v104h-31 q-12 0 -12 12v250q0 13 -12 13h-208q-12 -2 -12 -13v-97q39 0 42 -19v-134q0 -12 -12 -12h-30v-98zM1073 782q2 -12 12 -12h135v98h-135q-12 -2 -12 -12v-74zM1287 501q0 -115 171 -147q19 -6 73 -6q233 24 233 184l6 30q0 171 -171 171q0 6 -13 6q-8 0 -103 -24l-13 18v6 q0 10 25 25h226v85l6 43l-18 12h-318q-49 0 -49 -122q-6 0 -31 -146q0 -16 129 -25l43 25h30q11 0 37 -43v-55q-16 -80 -74 -80q-37 14 -42 37q12 31 12 49q0 34 -73 55q-86 -21 -86 -86v-12z" />
<glyph unicode="k" horiz-adv-x="2157" d="M40 665q0 498 433 836q237 163 501 189h171q273 0 598 -244q360 -342 360 -781q0 -512 -452 -855q-270 -177 -579 -177q-561 0 -892 513q-140 248 -140 519zM504 298q8 -61 61 -61h1013q61 9 61 61v653q0 37 -36 62h-1063q-36 -22 -36 -55v-660zM559 292v12l305 361 q-48 56 -293 286h6q58 -39 366 -299q64 -56 129 -103q260 211 469 390l7 -12q-115 -100 -269 -262l299 -354v-13l-342 336h-6q0 -17 -158 -165l-171 159q-168 -176 -342 -336z" />
<glyph unicode="l" horiz-adv-x="2163" d="M50 659v6q0 447 348 769q195 181 512 244q82 12 104 12h128q151 0 391 -104q573 -320 573 -933q0 -558 -531 -897q-271 -128 -500 -128q-259 0 -543 159q-482 337 -482 872zM630 92q12 0 12 -7l12 7h683l31 -7l6 13v445q0 12 -12 12h-49q-12 -2 -12 -12v-366 q0 -12 -13 -12h-567l-18 12q6 122 6 183v116q0 79 -18 79h-61v-463zM770 256q0 -18 24 -18q111 0 202 6q91 -6 201 -6l24 6v92q-12 0 -12 6l-30 -6h-354l-43 6l-12 -19q0 -6 6 -6l-6 -30v-31zM776 409q278 -25 439 -43q12 4 12 92q-55 12 -414 42h-19q-18 0 -18 -79v-12z M807 610l427 -110l30 80q-14 18 -201 61l-226 67q-30 -31 -30 -98zM886 848q365 -226 390 -226l37 67v19q-358 208 -384 213q-43 -56 -43 -73zM1087 1086q222 -338 250 -366h6q67 37 67 55q-234 351 -256 366q0 -6 -67 -55zM1362 1220q6 -77 73 -439h6q39 0 85 12 q-54 356 -79 439h-6z" />
<glyph unicode="m" d="M50 661q6 10 6 24v67q0 156 140 437q217 334 571 449q177 49 285 49h67q164 0 425 -109q559 -336 559 -924q0 -544 -510 -880q-272 -140 -474 -140h-79q-164 0 -413 103q-168 84 -316 243q-172 208 -218 401q-37 141 -37 188v67q0 14 -6 25zM663 855q22 -176 177 -389 q266 -297 449 -297h37q151 105 176 164q0 36 -134 115q-56 50 -91 55q-46 -23 -97 -67q-85 0 -249 249l-18 61q78 66 78 97q-87 222 -109 237h-24q-43 0 -182 -152l-13 -43l7 -12q-7 -12 -7 -18z" />
<glyph unicode="n" horiz-adv-x="2147" d="M40 636v55q0 246 158 518q196 310 573 438q83 27 244 43h109q202 0 475 -146q104 -53 275 -244q225 -295 225 -639q0 -403 -311 -738q-329 -292 -731 -292q-229 0 -493 134q-148 73 -329 299q-195 285 -195 572zM442 392h317q5 0 12 3l6 552l-12 6h-116v-134 q0 -9 -18 -18h-189v-409zM564 508v183q0 9 18 18h55q12 -2 12 -12v-195q0 -9 -18 -18h-43q-9 0 -24 24zM812 852l134 -3l2 98l-13 6h-109q-12 -2 -12 -12zM814 405q2 -13 12 -13h116v409h-122q0 -13 -6 -13v-383zM984 271h335v530h-335v-366q2 -12 12 -12h183q12 -2 12 -12 v-37q0 -12 -12 -12h-195v-91zM1112 533v164q2 12 12 12h55q12 -2 12 -12v-164q0 -13 -12 -13h-55q-12 0 -12 13zM1362 271h335v530h-335v-366q2 -12 12 -12h183q12 -2 12 -12v-37q0 -12 -12 -12h-183q-12 -2 -12 -12v-79zM1490 533v164q2 12 12 12h55q12 -2 12 -12v-164 q0 -13 -12 -13h-55q-12 0 -12 13z" />
<glyph unicode="o" d="M40 659q0 566 525 903q260 128 433 128h140q231 0 531 -189q174 -138 268 -281q159 -289 159 -482v-158q-11 -203 -146 -458q-195 -313 -598 -451q-94 -25 -263 -43q-11 6 -18 6l-12 -6q-289 26 -415 98q-365 172 -519 530q-85 187 -85 403zM681 738q0 -205 305 -543 q87 -69 122 -73q150 40 360 397q67 153 67 250q0 192 -177 348q-121 85 -232 85h-49q-116 -12 -244 -98q-152 -165 -152 -317v-49zM845 769q25 134 49 134q35 -73 86 -73h24q91 23 91 91v19q0 26 -42 79q10 7 61 12q170 0 244 -201q6 -42 6 -67q0 -146 -165 -232 q-39 -12 -55 -12h-67q-117 0 -213 158z" />
<glyph unicode="p" horiz-adv-x="2167" d="M50 659q0 531 491 879q280 152 534 152q428 0 752 -328q279 -303 279 -709q0 -485 -418 -819q-275 -200 -613 -200q-546 0 -886 509q-139 268 -139 516zM493 762l12 -6q3 0 18 12q0 -6 6 -6q-24 -67 -24 -139q0 -282 327 -480q139 -48 201 -48h66q332 0 516 400 q48 160 48 249q-6 33 -6 48h-6q0 -30 -12 -30q-12 113 -49 206q-28 55 -36 55v-6l6 -43h-12q-24 90 -279 207q-105 30 -115 30h-146q-157 -20 -291 -127q0 -8 -54 -55q-31 11 -37 91h-6q-44 -21 -67 -231q-36 -31 -60 -127zM723 1017q156 151 352 151q143 0 255 -91 q-10 -7 -61 -12v-6q224 -94 224 -188v-12q0 -12 -12 -12q0 9 -18 18h-12v-6l18 -133q-6 -11 -6 -25v-42q0 -12 -12 -12q-27 59 -36 60l6 -42v-24q0 -147 -61 -200q0 6 -6 6q6 14 12 60h-12q-56 -106 -194 -151h-30q-96 0 -207 79v18h6q121 0 219 79q36 0 36 12v12 q-34 42 -85 42q-37 0 -97 -36h-36q-57 0 -128 103v6q0 9 37 36l79 -18l6 12v19q-18 59 -18 66q97 70 97 85v6q0 14 -85 18q0 5 -61 61q0 53 79 128h-6q-73 -20 -140 -73h-6l-54 6q-11 0 -37 -12z" />
<glyph unicode="q" d="M50 598v128q0 244 189 535q125 163 273 262q280 170 560 170q420 0 742 -316q203 -226 256 -438q36 -157 36 -238v-73q0 -317 -237 -626q-335 -371 -779 -371h-6q-211 0 -407 79q-199 89 -341 237q-195 187 -268 511q-18 81 -18 140zM549 647q0 -306 310 -469 q111 -48 219 -48q327 0 499 340q20 69 30 165v48q0 25 -12 79h-517v-194q2 -12 12 -12h274q12 -2 12 -13q-104 -200 -286 -200h-30q-215 0 -298 255q-6 43 -6 73q0 183 206 292q80 18 122 18q106 0 201 -79q16 0 146 146q-144 146 -359 146q-292 0 -468 -292 q-55 -106 -55 -225v-30z" />
<glyph unicode="r" d="M50 595l6 30v49l-6 36q30 244 103 395q62 139 255 333q322 249 649 249h49q387 0 728 -328q216 -257 261 -521q13 -112 13 -207q0 -69 -7 -127q-16 -140 -91 -291q-78 -156 -249 -328q-318 -255 -680 -255q-496 0 -837 431q-188 293 -188 534h-6zM535 571 q0 -142 128 -322q179 -188 431 -188q343 0 509 382q25 99 25 176q0 304 -322 492q-130 42 -182 42h-103q-127 -13 -267 -103q-219 -197 -219 -407l13 -6h364q12 0 12 12v91q0 10 24 25h267q9 0 18 -18v-280q0 -12 -12 -12h-279q-9 0 -18 18v79q-3 13 -25 25h-345l-13 6z" />
<glyph unicode="s" d="M50 628v60q0 478 442 817q288 182 545 182l12 -6l36 6q476 0 823 -430q188 -270 188 -617q0 -451 -393 -787q-186 -153 -485 -206q-88 -12 -97 -12h-84q-154 0 -388 91q-322 155 -496 478q-103 226 -103 424zM583 325q0 -133 175 -194l43 -6q127 0 272 146 q142 -146 266 -146q173 0 224 194v30q0 87 -133 345q-220 466 -266 466q-32 25 -67 25h-42q-128 0 -248 -315q-218 -415 -224 -497v-48zM643 337v30q0 44 279 594q66 163 157 163q94 0 188 -248q200 -372 236 -509v-36q0 -113 -152 -145h-18q-105 0 -212 139 q132 175 134 303q-35 163 -164 163h-24q-170 -23 -170 -163v-31q0 -103 134 -278q-121 -133 -206 -133h-43q-67 0 -127 97q-12 39 -12 54zM958 603v31q0 53 79 97h72q79 -38 79 -103v-6q0 -94 -103 -243h-12q-115 136 -115 224z" />
<glyph unicode="t" d="M50 657q0 532 491 879q106 61 219 97q82 37 279 55h78q149 0 370 -85q210 -79 419 -333q200 -290 200 -565v-115q0 -140 -103 -382q-190 -366 -564 -509q-185 -67 -358 -67q-534 0 -879 491q-152 280 -152 534zM572 226l655 -127q327 67 363 85l-133 849q-109 0 -170 79 q-73 0 -73 30q-36 79 -115 79q0 9 -36 30h-49q-125 0 -212 -273l-139 -54zM729 348q0 30 31 91q79 -49 109 -49q42 12 42 49q0 32 -97 115q-30 42 -30 79v42q0 77 109 158q37 18 127 30q13 0 85 -18v-30l-42 -103l-67 18h-18q-73 0 -73 -61q0 -13 128 -115q30 -56 30 -85 v-42q0 -108 -140 -158h-30q-105 0 -164 79zM851 1009q78 206 188 206l6 -12q-74 -47 -103 -176q-27 -28 -85 -36q-6 11 -6 18zM984 1039q14 65 85 127h6q15 0 30 -78q0 -32 -109 -55zM1130 1172l12 7q48 -51 48 -79q-6 -18 -36 -18h-6q-14 0 -18 90z" />
<glyph unicode="u" horiz-adv-x="2154" d="M50 664q0 490 430 829q290 194 587 194h6q338 0 642 -224q251 -226 327 -454q61 -197 61 -321v-55q0 -396 -345 -745q-311 -254 -691 -254q-506 0 -841 454q-176 266 -176 576zM625 706q0 -196 206 -303q60 -18 121 -18q186 0 321 194l6 30q-7 79 -78 79h-12 q-35 0 -158 -127q-54 -19 -73 -19h-12q-134 0 -163 182q0 73 194 248q60 49 60 91q0 85 -91 85q-45 0 -266 -254q-55 -72 -55 -188zM874 688q29 -61 84 -61q34 0 158 127q38 17 85 25q112 0 163 -134q0 -20 6 -30q0 -102 -175 -248q-79 -75 -79 -115q0 -71 85 -79 q60 3 284 266q43 87 43 158v18q0 206 -218 303q-60 18 -79 18h-36q-183 0 -321 -206v-42z" />
<glyph unicode="v" horiz-adv-x="2183" d="M50 662q0 426 341 760q200 184 505 250q73 6 109 18q7 0 7 -6l30 6h79q14 0 24 -6q6 0 6 6q330 -49 499 -170q303 -203 433 -603q18 -88 30 -207v-103q0 -228 -170 -517q-338 -463 -865 -463q-497 0 -833 432q-195 279 -195 603zM561 643q0 -196 183 -377 q157 -116 249 -116h31q164 276 164 292h-6q-59 -18 -104 -18q-155 0 -273 268q-143 243 -153 249q-85 -113 -85 -273v-19q0 -6 -6 -6zM683 966q126 -211 164 -292h6q11 0 25 79q72 134 231 134h371h37q11 6 18 6v18q-178 268 -444 268q-240 0 -408 -189v-24zM890 655 q35 -194 195 -194h12q169 0 188 201q-29 182 -158 182q0 6 -36 12q-201 -31 -201 -201zM1066 144h31q273 0 432 256q67 128 67 195v115q-10 146 -67 146h-298q-13 -2 -13 -12q104 -80 104 -195q0 -82 -189 -371q-18 -47 -67 -122v-12z" />
<glyph unicode="w" horiz-adv-x="2173" d="M50 657q0 557 507 892q245 141 532 141q526 0 861 -477q159 -259 159 -513v-85q0 -399 -360 -746q-243 -186 -495 -226q-82 -12 -104 -12h-129q-293 0 -611 244q-360 334 -360 782zM802 725q1 -13 12 -13h85q12 -1 12 -12v-324q0 -140 172 -207q41 -6 67 -6h30 q104 0 177 36q0 19 -42 153q-62 -18 -86 -18q-72 0 -85 110v268q2 13 12 13h165v152h-165q-12 0 -12 13v232h-153q-55 -220 -116 -220q0 -6 -73 -55v-122z" />
<glyph unicode="x" horiz-adv-x="2170" d="M50 613v86q0 373 299 689q311 299 732 299q405 0 720 -299q305 -323 305 -726q0 -396 -281 -708q-249 -232 -415 -268q-162 -55 -286 -55h-98q-318 0 -634 256q-342 331 -342 726zM678 58q0 -49 61 -61q43 0 147 134q119 146 232 257h189q122 0 122 164q12 6 116 562 q-12 97 -86 97h-677q-104 -15 -104 -104v-1049zM807 253v793q9 37 73 37h463q61 -4 61 -37q-22 -183 -67 -183h-244q-61 0 -61 -48q0 -74 43 -74h207q49 -7 49 -36q-22 -183 -55 -183h-195q-45 0 -171 -177l-97 -104z" />
<glyph unicode="y" horiz-adv-x="2202" d="M50 666q0 517 478 865q262 159 564 159q550 0 889 -515q141 -266 141 -521q0 -432 -349 -772q-312 -258 -656 -258h-62q-457 0 -797 411q-208 280 -208 631zM540 292h368q208 0 239 196v13q0 128 -116 190q80 62 80 116v74q0 84 -129 129q-66 12 -86 12h-356v-730z M700 427v178q2 12 12 12h141q135 0 135 -86v-49q-32 -67 -104 -67h-172q-12 0 -12 12zM700 740v147q2 12 12 12h123q122 0 122 -73v-31q0 -57 -79 -67h-166q-12 0 -12 12zM1166 568q0 -176 159 -257q65 -19 98 -19h43q114 0 190 111l31 61h-135q-1 -32 -86 -67h-18 q-114 0 -135 116v12l12 6h362l12 7l-6 12v6q0 213 -166 276l-43 12h-91q-59 0 -154 -80q-73 -101 -73 -196zM1294 899h276q13 0 13 12v74h-289v-86zM1319 623v25q0 67 104 92h12q111 -17 111 -111v-6h-227z" />
<glyph unicode="z" horiz-adv-x="2189" d="M60 666q0 265 165 544q178 300 593 440q153 37 275 37q550 0 892 -507q141 -255 141 -532q0 -484 -416 -819q-282 -202 -568 -202h-86q-429 0 -770 385q-226 303 -226 654zM610 275q39 -128 116 -128q0 -13 31 -13h24q147 38 147 147v18q0 111 -122 153q-32 6 -37 6 q-159 -31 -159 -152v-31zM610 685q2 -13 12 -13h43q179 0 367 -195q116 -166 116 -300v-24q0 -9 18 -19h147l18 13q-5 157 -97 354q-152 243 -441 330q-122 21 -122 25l-12 -6l-43 6l-6 -13v-158zM610 1045q0 -9 18 -18q7 0 7 6q277 0 550 -208q224 -214 275 -409 q43 -124 43 -233v-36q1 -13 12 -13h153q8 0 18 19q0 195 -110 458q-61 139 -251 324q-314 275 -709 275l-6 -12v-153z" />
<glyph unicode="{" horiz-adv-x="1014" />
<glyph unicode="|" horiz-adv-x="1014" />
<glyph unicode="}" horiz-adv-x="1014" />
<glyph unicode="~" horiz-adv-x="1014" />
<glyph unicode="&#xa1;" horiz-adv-x="672" />
<glyph unicode="&#xa2;" horiz-adv-x="1139" />
<glyph unicode="&#xa3;" horiz-adv-x="1014" />
<glyph unicode="&#xa4;" horiz-adv-x="1014" />
<glyph unicode="&#xa5;" horiz-adv-x="1262" />
<glyph unicode="&#xa6;" horiz-adv-x="1014" />
<glyph unicode="&#xa7;" horiz-adv-x="1014" />
<glyph unicode="&#xa8;" horiz-adv-x="1024" />
<glyph unicode="&#xa9;" horiz-adv-x="1440" d="M70 -167l10 3q6 0 24 -10v-1q0 -10 -6 -54q34 39 44 40q5 0 7 -27l7 -38q25 41 32 41q6 -4 15 -19v-3q0 -2 -17 -25q-18 -31 -33 -66q-1 -8 -7 -8q-9 0 -21 66q-2 7 -2 12q-19 -18 -42 -55l-3 -2q-5 0 -5 9q0 7 -2 90v8v1v5q0 9 -1 33zM114 916v3q0 13 5 13h2q3 -1 3 -3 q-1 -12 -1 -13t8 -9v-1q0 -5 -5 -5q-12 5 -12 15zM137 315l3 95v10q0 16 -1 47q1 3 5 3q17 0 55 -26q13 -12 13 -27q0 -28 -26 -39q-7 -1 -7 -3q31 -15 31 -35q0 -28 -31 -40h-11q-16 0 -29 11zM156 921v4q0 21 9 28h4q3 -2 3 -5q-7 -8 -7 -27q1 -13 12 -29v-1q-1 -4 -5 -4 q-16 13 -16 34zM186 1479q2 4 21 14q44 37 94 51q24 9 26 14q0 2 4 2q7 0 15 -30q6 -16 14 -29v-4q0 -8 -54 -34l-43 -24v-19q0 -26 5 -51q9 0 72 24h6q10 0 10 -27q3 -16 3 -25q0 -5 -35 -27q-24 -15 -39 -15q-7 -4 -7 -30v-96q0 -11 7 -44v-16q-5 -9 -49 -30q-4 1 -4 6v2 q4 5 6 13q-8 0 -9 32q-11 111 -26 232q-12 65 -12 98zM198 912v6q0 25 11 53l1 1h2q5 0 5 -4q-10 -31 -10 -55q0 -23 10 -38q-1 -4 -5 -4q-11 0 -14 41zM210 -302q0 39 23 62q0 4 9 5h2q2 0 4 -8q13 -9 13 -25v-10q0 -34 -23 -65q-4 -4 -7 -4h-3q-15 0 -18 42v3zM228 392 q0 39 17 68q10 13 16 14h2q9 -10 19 -42v-5q0 -5 -13 -9q-5 -4 -5 -17v-10q0 -21 17 -25h8q6 -1 6 -6v-26q-8 -8 -19 -8q-31 0 -43 37q-5 12 -5 29zM234 916q0 12 8 12h3q6 0 16 -10q4 -4 13 -17q3 20 11 20h2q5 0 8 -19h1q3 8 9 8q8 0 13 -23q10 13 16 13q13 -2 13 -18v-4 q0 -19 -15 -48q-10 -12 -13 -13q10 -68 10 -113v-34q0 -10 -2 -27h1q25 -2 46 -2q15 0 58 1q-5 8 -5 16q-7 0 -15 33v4q0 8 6 26q-8 16 -8 25v5q0 9 6 17q6 31 10 36v8v1q0 17 9 22q8 1 8 4q-17 31 -17 81v31q0 26 16 70q3 15 5 102q5 47 12 71q21 54 33 77q21 29 25 31 q4 3 19 24q32 28 35 28q-3 4 -5 14q0 16 17 28q9 15 27 21q50 17 71 22q63 6 73 6h7q53 0 90 -20q23 -10 42 -29q23 -26 25 -42q1 -1 1 -4v-6l-1 -5q6 -6 25 -20q8 -12 30 -32q10 -17 37 -55q26 -51 26 -73q5 -19 5 -71l-3 -47q-6 -5 -6 -8l1 -5h1q12 11 23 11q18 0 33 -21 q5 -12 5 -23q0 -30 -16 -51q-2 -9 -6 -51q-5 -14 -12 -20h-2q-4 0 -4 3q-1 0 -6 -6q0 -9 1 -9v-5v-21l3 -23q0 -10 -3 -21q28 -88 28 -110v-5q0 -80 -12 -141q-14 -94 -14 -161q-1 0 -2 -22h1q3 2 37 3q0 1 14 2q5 0 10 -24q8 -20 8 -38v-9q-1 -19 -7 -19l-28 -6 q-29 -7 -68 -15v-1q1 -23 1 -33l-8 -62q-19 -79 -19 -82q-4 -28 -11 -107q26 -3 45 -4q15 0 67 10q10 1 33 2q0 11 23 11q1 0 17 2h2q17 -1 17 -8q7 -5 21 -56q6 -15 6 -26q0 -22 -15 -28q-5 -2 -9 -2h-5q-20 0 -36 55q-8 -7 -47 -16q-82 -17 -109 -28q-29 -10 -53 -24 q-33 -22 -40 -22q-14 0 -33 34q-21 31 -67 92q-68 92 -85 110q-10 11 -12 11q-48 -38 -113 -92q-34 -25 -70 -46l-78 -65q-36 -34 -46 -55q-6 -7 -15 -25l-19 -31h-4q-31 5 -53 17q-52 29 -52 60q0 21 19 21q30 0 53 -13h3q6 0 13 13q14 13 27 59q18 52 26 76q11 29 46 115 q14 27 30 98q2 14 5 20q-4 0 -6 19q-4 17 -15 93q-7 38 -26 98q-6 0 -6 7v3h3q-7 28 -18 93l-4 10h-45q-77 0 -89 12q-4 6 -13 72q-8 48 -8 66v10q0 36 13 117q1 0 1 1q-16 26 -19 53q-6 20 -6 36zM244 914q0 -30 17 -72q7 -8 7 -11l-1 -1q19 3 31 3q15 0 20 -6q0 1 7 10 q13 25 13 43q-1 10 -4 10q-10 -7 -14 -22q-3 -2 -5 -2q-6 0 -6 18l-4 15q-2 0 -7 -21l-2 -2h-2q-5 0 -7 16q0 2 -2 14q-2 0 -3 -14v-17q0 -1 -3 -3h-1q-6 0 -9 17q-12 25 -25 30v-5zM259 -160v-4q0 -31 70 -60q7 -3 24 -6q20 30 22 37q-17 10 -47 22q-2 3 -3 7l-1 -1 q-2 0 -25 10q-12 3 -23 3h-12q-5 -2 -5 -8zM268 593q3 -27 7 -27q12 -8 98 -8h14q11 0 16 4q5 0 9 -6q-2 -5 -2 -6q6 -16 16 -83q5 -21 7 -21h2q42 0 164 11v1q0 3 2 12q-12 0 -23 15q-5 11 -6 11h-1q-2 0 -5 -1q-7 0 -25 16q-4 3 -12 12q-21 3 -31 12q-14 14 -14 26v2 q0 4 4 10v1l-16 13q-7 8 -7 15v1q-147 -3 -195 -9q0 -1 -2 -1zM297 -342q0 40 11 69q-3 0 -3 5q5 7 10 7q7 0 19 -12q15 -20 15 -32v-5q0 -23 -21 -52q-8 -8 -14 -8h-3q-12 0 -14 21v7zM306 457v3q0 6 6 6h3q21 0 30 -12q6 -29 13 -46l5 -8v14q0 15 -3 47q0 5 17 5 q8 0 9 -18q6 -49 20 -98q1 0 3 -10q0 -4 -19 -9q0 -2 -7 -3q-4 0 -13 17q-10 12 -12 13v-1q0 -4 3 -36q-3 -2 -6 -2h-19l-8 -2h-1q-4 0 -6 4q-5 0 -5 17q-5 119 -10 119zM333 962q2 7 7 7q9 -2 27 -28q13 -22 13 -48v-1q0 -20 -8 -20h-1q-1 0 -3 3v3q3 4 3 16q0 35 -30 63 q-2 -1 -4 -1q-3 0 -4 6zM384 957q0 4 5 4q4 0 8 -18q5 -7 5 -16v-2q-1 -6 -6 -6h-2q-3 1 -3 5l2 4q0 2 -7 20q-2 7 -2 9zM390 -343q0 44 4 94h1q-4 2 -4 3v2q2 3 4 3q19 -1 54 -33q11 -16 11 -27v-7q0 -28 -18 -47q-18 -11 -36 -11l-9 -3q-7 6 -7 24v2zM426 1490v26 q0 70 35 95q35 38 52 38h25q36 0 54 -22q19 -11 28 -41q4 -10 4 -20v-13q-3 -35 -5 -52q-2 -15 -29 -74q-5 -8 -26 -28q-8 -8 -36 -14q-9 -4 -13 -4h-3q-21 0 -42 13q-15 5 -25 21l-12 32q-7 15 -7 43zM435 951q0 -87 15 -104q11 -32 15 -40q1 -2 5 -2l2 -3v-2l-2 -5 q21 -13 21 -24q7 -12 24 -34l14 -18l26 -15q1 0 9 -6q5 24 14 33q3 0 4 14q5 10 13 14q5 0 12 18q1 4 11 17q5 8 5 25v7q0 12 -1 30q0 9 5 9q3 0 5 -4v-5v-32q0 -20 -5 -31q14 17 27 23q3 2 10 3v2q-1 -1 -2 -1q-7 6 -23 13q-6 7 -6 10v4q0 10 14 14h6q10 -4 10 -7v-2 q0 -1 -3 -3q-4 0 -8 3h-2q-8 0 -8 -7q1 -3 2 -3q4 4 8 4t11 -7q9 -6 19 -6h2q6 0 33 16q2 2 8 3q5 0 8 -8q10 4 10 13q-1 8 -10 20q-1 2 -8 24q-8 15 -8 24v1q0 4 4 6q-1 5 -1 11l1 3q-1 35 -3 57q-6 25 -6 32q0 36 12 56q4 12 29 42q33 29 45 29q0 1 55 3q81 -1 81 -7 q22 -7 22 -25q-5 -16 -14 -16v-5q0 -11 -29 -25l-1 -2l9 -17q33 -24 37 -41q9 -13 9 -30v-8q3 -6 4 -25q0 -12 -12 -35q-28 -32 -40 -36q-42 -27 -87 -27q-25 0 -71 26q-22 8 -33 26v-1q12 -28 12 -35q12 -12 12 -26q0 -18 -28 -26h-1l-14 4q-5 -3 -6 -3h9q8 0 19 -14 q13 -6 21 -12q7 0 12 -11h2q4 0 10 -2q-8 24 -19 48q0 6 4 9h1q5 0 5 -4l-1 -5q12 -22 20 -48q1 -3 8 -4q0 -2 7 -9q6 -21 18 -21q5 -2 6 -6l21 7v1v1q0 17 15 23h3q2 0 6 -3q14 5 19 5h1q2 0 10 -3q28 33 40 33q11 0 11 7q4 7 17 17q0 2 14 10q16 19 16 32q4 17 14 36v3 q-2 27 -8 27q-11 8 -11 9q-1 2 -1 3q0 3 6 24v2l-3 16q2 19 2 21v8q0 11 6 11q4 -1 5 -1q20 7 20 8q2 13 3 46q0 72 -17 107q-12 27 -37 61q-15 23 -21 28q-9 7 -20 22l-23 17q-9 8 -11 12q-26 17 -44 26q-15 9 -21 9l-56 -23q-14 -6 -64 -12q-63 -5 -99 -5q-25 0 -41 10 q-6 -1 -40 -34q-3 -6 -20 -24q-13 -18 -20 -28q-9 -19 -16 -39q-26 -51 -26 -140v-11h1q1 11 26 59q10 11 28 11q26 0 40 -12h6h14q25 -4 25 -9q5 0 6 -11v-5q0 -20 -24 -20q-44 2 -48 8q-11 4 -20 4q-17 0 -23 -14q-21 -21 -25 -23q-3 -25 -11 -48q-9 -17 -14 -51zM442 954 q0 30 17 62l25 28q12 9 53 13q31 0 55 -22q42 -29 42 -42h1v7v4q0 32 -32 50q-18 19 -51 19t-46 -10q-11 -4 -13 -4q-4 2 -4 6q0 3 19 10q11 7 37 7h12q29 0 54 -21q33 -22 33 -54v-8q0 -5 -1 -22q1 -2 1 -4v-2q-1 -2 -3 -2v-5q6 -3 6 -14v-9q0 -12 -11 -28q-2 -10 -16 -21 q-1 0 -25 -15q-25 -9 -37 -9h-11q-37 0 -67 22q-13 8 -22 16q-5 0 -12 26q-4 15 -4 22zM451 954q5 -33 9 -33q5 6 41 28q16 15 73 22q15 0 21 1q3 -1 6 -1l1 1q4 -1 27 -3h2q0 16 -14 35q-49 43 -70 43h-14q-40 -4 -45 -13q-27 -28 -27 -35q-10 -24 -10 -45zM464 318 q6 -53 13 -81q0 -10 36 -25q19 -9 126 -21l134 -6q96 0 158 9q44 8 75 8q2 3 3 12q-1 22 -1 30q-30 -5 -42 -14q-26 -12 -46 -12q-20 -3 -32 -9q-5 3 -21 5q-66 13 -66 28q4 16 44 40q18 17 24 23h4q3 -1 3 -5q14 0 86 27q6 0 21 4h2q5 16 9 16v12l1 8h-1q-87 -12 -240 -25 q-41 -4 -156 -13q-33 -4 -122 -11h-2q-6 0 -9 1zM466 913q29 -27 59 -34q5 -1 27 -2h1v1q-15 4 -29 25q-7 16 -7 23q-3 -2 -5 -2q-5 0 -7 17q-5 -3 -10 -7q1 -7 5 -11v-3q-1 -3 -5 -3q-5 0 -8 12q-5 -3 -5 -4q2 -13 2 -16q-1 -3 -5 -3h-1q-3 0 -5 14q-7 -4 -7 -7zM478 1155 q1 3 13 8q12 9 66 20q22 9 35 9h20l24 4q5 0 5 -5v-1q0 -4 -31 -7h-18q-3 0 -56 -15q-21 -2 -46 -16q-3 -3 -6 -3q-6 0 -6 6zM493 -308q0 23 25 57q20 18 37 18q0 1 2 1q4 -1 4 -3l-1 -4l7 -34v-5q0 -6 -5 -6h-5q-21 0 -26 -14l-1 -6q0 -11 16 -18q4 -1 8 -1q15 0 24 6h1 q3 -1 3 -2v-3q0 -5 -1 -8q1 -5 1 -9v-15q0 -7 -18 -10h-10q-32 0 -54 26q-7 12 -7 23v7zM499 1192q0 15 65 23q14 3 47 7q0 1 2 1q5 -2 5 -5q0 -7 -44 -10q-43 -8 -61 -14q-7 -7 -10 -7q-3 2 -4 5zM513 946q0 -3 3 -14h1v16h1h-1q-4 -1 -4 -2zM515 1007q0 10 28 13 q22 0 38 -15v-1q0 -4 -5 -4q-18 10 -29 10h-5q-13 0 -22 -8q-5 0 -5 5zM518 849v1q0 5 4 5q9 -2 12 -2h3q30 0 75 28q23 19 23 25q9 15 9 16h4q3 -1 3 -2v-3q-12 -26 -19 -30q-22 -23 -46 -31q-32 -13 -49 -13q-19 2 -19 6zM536 1237q1 2 4 4h7q23 0 57 15q0 1 21 4 q5 -2 5 -5q0 -5 -19 -7q-39 -16 -60 -16h-9q-6 0 -6 5zM550 925q0 -13 9 -13q3 1 3 4v1q0 8 -12 10v-2zM599 -242l3 3q39 -3 39 -5l1 -3q-3 -28 -3 -34v-8q0 -16 11 -22h1q8 4 9 58q3 4 5 4q25 -6 25 -10v-2q0 -37 -14 -77q-11 -24 -31 -24q-41 0 -41 85q0 4 -5 34v1z M614 960q6 -6 10 -36v-2q0 -4 -4 -16h2l14 26q2 6 2 14q0 11 -5 11q-1 -6 -5 -6q-3 0 -5 9q-2 1 -3 1h-6v-1zM621 693q5 0 21 -17q1 0 11 -7q5 5 5 11q-7 0 -11 20q0 3 -5 4q0 2 -13 9h-1h-1l-2 -7v-2q-3 -5 -4 -11zM631 725q7 -10 16 -10h1q7 10 20 10q11 8 18 9 q6 -2 12 -2q2 0 10 10q4 3 7 3v1q-6 0 -13 7l-5 -1q-9 0 -17 8q-14 -10 -24 -10q-2 1 -3 1q-7 -18 -21 -24q-1 0 -1 -2zM647 1051q0 1 4 4q6 0 9 -17q5 -10 5 -28v-15q-1 -42 -1 -47v-3l1 -4q-2 -5 -4 -5h-3q-3 2 -3 5q0 28 1 71q0 10 -9 39zM653 1070v1q2 4 6 4 q12 -6 18 -6q10 0 23 36q6 9 10 9q2 0 4 -4q0 -2 -8 -14q-12 -36 -27 -36h-4q-22 3 -22 10zM680 1255v1q0 4 25 4q58 5 110 7q47 8 57 8q19 0 46 -18q6 -1 6 -5q0 -3 -5 -5q-4 0 -20 11q-16 7 -25 7h-5q-4 0 -61 -8q-49 -1 -124 -7q-4 0 -4 5zM693 1030q0 12 7 12q1 0 4 -3 l-1 -9v-1q0 -18 2 -31q-1 -4 -3 -5h-2q-5 0 -5 13q-2 21 -2 24zM694 871v1q0 2 5 13q1 4 1 7q-5 22 -5 25q0 2 1 17q0 2 -2 14q1 7 6 7q4 -1 4 -5v-1q0 -8 1 -17l-1 -12q0 -3 5 -27v-4q0 -11 -9 -21h-2q-1 0 -4 3zM696 1508q3 12 4 12v28v46q0 22 -2 77q6 7 44 13l12 1 q7 0 12 -22q14 -38 43 -69q10 -12 16 -18v1q2 38 4 103q0 10 22 10q4 0 39 3q8 0 8 -24q2 -28 2 -65v-86q0 -18 -14 -18q-12 -3 -22 -3h-9q-45 0 -51 6q-13 12 -33 62l-7 14q-8 -40 -8 -75v-16q-1 -6 -6 -6h-1q-13 0 -39 13q-14 9 -14 13zM718 1203q0 6 24 6q1 0 107 4 q40 -1 40 -7q14 -12 30 -16q16 -10 18 -17v-1q-1 -3 -4 -3h-2q-16 16 -29 17q-9 4 -21 15q-8 2 -20 2h-19q-99 -3 -119 -6q-4 0 -5 6zM720 -249q0 4 23 7l5 5h2q1 0 4 -1q2 0 2 1q7 -1 10 -1q2 0 37 1q5 0 11 -23v-3q0 -7 -18 -7q-16 -6 -18 -7q0 -15 4 -78q0 -9 -27 -9 q-5 0 -5 16v35q0 14 3 31q-17 -5 -22 -5q-7 0 -7 12q0 8 -4 24v2zM724 744q1 0 7 -5l5 1q2 0 4 -3v-5q0 -17 -2 -36q1 -5 2 -5q0 2 22 21q2 3 2 5q-2 8 -2 10q-11 0 -19 10q-12 7 -14 7h-5zM758 953l1 -5q13 13 42 21q22 8 57 8q41 -3 47 -9q23 -7 42 -15h1q8 20 8 33v3l2 2 v4q0 18 -14 40q-17 19 -35 28q-17 7 -35 7h-5q-34 0 -75 -35q-34 -40 -36 -72v-10zM764 937q29 -32 35 -32q5 -3 7 -3v1q-9 17 -9 27q0 18 4 29q-9 -2 -9 -6v-2v-3q-1 -3 -3 -4h-3q-4 1 -4 9q-1 -2 -2 -2l1 -1l-1 -5q2 -7 2 -9q-1 -4 -5 -4h-1q-5 2 -5 14q-4 -3 -7 -6v-3z M778 1233q2 4 6 4q57 4 65 4q27 0 69 -21q15 -3 15 -7q0 -5 -5 -5q-7 0 -49 19q-12 4 -31 5q-55 -4 -63 -4h-2q-5 0 -5 5zM804 836v1q2 3 4 3q13 -5 45 -5q31 0 61 15q44 33 44 46q0 5 5 5h1q3 -1 4 -4q0 -13 -17 -26q-16 -18 -39 -33q-31 -12 -54 -12h-9q-42 1 -44 6 q-1 2 -1 4zM809 1302v4q0 2 8 4q18 -2 21 -2q27 4 31 4q3 0 38 -10q10 0 10 -7q0 -1 -3 -4q-6 0 -42 11h-5q-23 -3 -28 -3h-3q-10 0 -18 1h-7zM811 242q0 -1 2 -2v1q0 1 -2 1zM814 486q2 -7 4 -7q53 6 110 8q27 4 45 6q0 1 14 2q1 2 5 2q1 22 1 28q0 18 -4 42l3 3h2 q4 0 7 -5l-1 -4q2 -22 2 -36q0 -13 -1 -29q4 -31 4 -49v-26q10 1 15 1h14q4 0 11 1q0 33 14 133q8 38 8 63h-1q-4 0 -5 1q-5 0 -57 -5h-80q-9 0 -17 -7q-8 -5 -10 -7v-1q0 -28 -10 -37q-7 -4 -15 -4h-1v-1q0 -20 -17 -28q-3 0 -4 -9q-4 -9 -14 -12q-12 0 -22 -23zM827 253 q0 -2 2 -18v-1q13 -7 49 -12q4 -1 10 -1q7 9 8 18v1h-3q-3 -3 -6 -3q-5 0 -5 5q0 3 8 9q3 5 3 7v1q0 2 -7 3q-6 -2 -9 -2q-3 3 -3 5q1 4 9 7q2 4 2 6v4q0 5 -8 9q-5 -1 -8 -1h-2q-19 -18 -40 -31v-3v-3zM830 926q6 -7 7 -7l2 3v2l-7 8q-2 -4 -2 -6zM836 -270q1 34 4 34t3 4 l4 2q3 0 3 -4h8q5 0 37 -3l33 2q7 0 7 -16q2 -22 2 -26q-1 -3 -4 -5h-20l-5 1v-31l1 -4q0 -1 -1 -1q1 -9 1 -14v-17q0 -7 -14 -7q-11 -4 -14 -4h-1q-4 2 -4 7v33v4v2v6v21v9q-5 2 -11 2h-25q-3 1 -4 5zM844 1025v1q0 5 21 6h1q15 0 36 -11q0 -2 2 -4v-3q-1 -3 -4 -3 q-17 11 -32 11h-8q-3 0 -12 -2q-4 1 -4 5zM858 1378l23 -12l15 -9q-13 22 -30 22h-8v-1zM886 964q1 0 6 -4h1v4h-4h-3zM893 270q9 -3 9 -10v-4q0 -3 -2 -7q2 0 4 -5q54 6 54 11q9 4 23 7q-1 3 -1 8v21h-2q-4 0 -24 -7q-24 -4 -51 -6q-10 -3 -10 -6v-2zM897 905h1q16 7 29 23 q13 11 13 18q-13 5 -20 7v-8l1 -4q-1 -3 -4 -5h-3q-3 0 -4 12l1 9q-6 2 -9 2q0 -6 -3 -10q3 -6 3 -17v-3q0 -10 -5 -24zM947 1525q0 35 6 86q-2 3 -2 4q0 24 19 28q2 0 19 3q28 -4 38 -7q20 -9 83 -28q24 -10 24 -17v-1q-14 -72 -16 -77q-1 -4 -6 -4q-6 0 -68 6 q-13 -95 -20 -166q-2 -49 -5 -49q-2 0 -3 -1q-25 6 -25 16v1q5 131 11 198q0 6 -7 6q-12 0 -43 -5q-5 2 -5 7zM955 1236q3 8 8 8q5 -2 5 -7q0 -4 -5 -6h-2q-6 1 -6 5zM956 1270q1 5 5 5q5 0 8 -5v-3q-3 -4 -6 -4q-7 1 -7 7zM959 -207q0 7 7 7q0 2 1 2h3l3 -4h9q16 2 21 2h3 q11 0 19 -18v-2q0 -8 -10 -8q-24 -2 -26 -5q2 -8 2 -13v-7q1 -1 2 -1q20 4 26 4h6q13 0 13 -23v-1q0 -7 -27 -8h-8l1 -7v-21q20 0 41 7h4q9 0 12 -28q1 0 1 -4q0 -5 -10 -6q-3 0 -32 1q-17 0 -39 -5h-6q-6 0 -9 79q-7 46 -7 54v5zM966 1212q3 7 8 7q4 0 5 -6v-1q0 -6 -8 -6 q-5 2 -5 6zM969 1181v3q1 6 6 6q7 -2 7 -7q0 -3 -8 -5q-4 1 -5 3zM974 1151v4q3 4 7 4t5 -5q-1 -7 -6 -7h-3q-1 0 -3 4zM982 1122q0 4 5 4h2q7 -2 7 -7q-3 -6 -8 -6q-6 2 -6 9zM984 1229q0 7 6 7q6 -2 6 -4v-2q0 -7 -6 -7q-6 1 -6 6zM988 1087q0 3 5 4q10 -2 10 -9 q-2 -5 -5 -5q-10 0 -10 10zM988 1176q0 4 6 5l1 -1l3 1q5 -2 5 -5q-2 -7 -7 -7h-1q-7 1 -7 7zM989 271q0 -7 2 -7q6 3 10 16v4v7q0 6 6 6q4 0 5 -15q0 -7 6 -12h1q5 4 5 11v3q0 3 -1 10q1 6 5 6q7 -2 7 -14q4 -9 7 -10h2q2 0 5 9l-1 5v6q0 4 3 5h2q6 0 6 -6v-7q1 -7 7 -7 l3 3v7q-10 31 -21 31q0 -15 -5 -15h-2q-2 0 -5 7q-5 6 -30 10q-7 6 -10 9q-7 -29 -7 -62zM993 1138q2 10 4 10h4q1 0 3 -6q-2 -9 -7 -9q-4 0 -4 5zM994 1060q0 6 8 6q6 -3 6 -7q-2 -8 -7 -8q-7 3 -7 9zM996 1201q0 2 4 5h1q7 -1 7 -6q-3 -6 -7 -6h-1q-4 2 -4 7zM1001 1099 q0 2 5 6h1q5 0 5 -6q-2 -6 -7 -6q-4 2 -4 6zM1003 345q0 -9 7 -12l24 -6q1 3 5 6q5 52 5 73v7h-15q-15 0 -24 -2v-33l-1 -7q1 -1 2 -1v-2q-2 0 -2 -2q-1 -13 -1 -21zM1005 267h3q0 2 -2 2q0 -1 -1 -2zM1009 1160q3 6 8 6q6 0 7 -7q-2 -7 -7 -7h-2q-6 0 -6 8zM1011 1125 q0 4 4 6h2q4 0 7 -5v-2q0 -5 -7 -6h-2q-4 2 -4 7zM1015 1068v1q0 1 3 3h1q10 -2 10 -7q-2 -5 -7 -5q-7 0 -7 8zM1017 1087v3q0 6 5 6q5 -2 5 -6q0 -5 -6 -7q-3 1 -4 4zM1026 1007q0 -2 1 -20v-18q13 0 16 -17q0 -33 19 -53l1 -5q2 0 5 45q1 0 1 5l-1 -1q-6 0 -9 18v8 q0 11 12 21l2 5v2q0 7 -7 9q-11 0 -19 -16q0 -7 -5 -7q-3 0 -5 6q0 9 15 22q6 4 14 4q13 0 17 -19q-5 -17 -11 -17q-3 -5 -3 -8v-7q0 -3 2 -14h1q14 21 14 40v6q0 11 -7 22q-13 11 -20 11h-4q-7 0 -23 -14q0 -2 -6 -8zM1043 956v4q2 11 9 11h2q1 0 3 -3v-1q0 -2 -5 -7v-2 q11 -17 11 -21q0 -8 -6 -8h-2q-1 0 -3 3v3l2 2q-9 15 -11 19zM1069 314q9 -16 9 -28q0 -1 -1 -7q34 4 34 8q0 22 -5 32q-11 -2 -29 -2q0 -1 -8 -3zM1089 -316q3 54 3 62v14q0 4 -2 56v16q0 9 24 11q25 0 43 -19q6 -12 6 -21q0 -20 -32 -41v-1q15 -11 51 -33l2 -3v-3 q-16 -18 -18 -18h-3q-19 7 -43 15l3 -38q-3 -2 -7 -3l-18 2q0 -1 -5 -2q-4 1 -4 5v1zM1099 1157q19 28 19 29q7 12 26 53q13 20 32 47q0 2 1 2q-3 6 -38 27q-32 25 -32 32q0 8 79 89q22 24 44 50q2 2 5 2q5 -4 14 -6l2 -3l-1 -5q24 -21 24 -27v-4q0 -2 -21 -28q0 -4 -39 -41 q0 -6 25 -27q13 -15 29 -30q3 -4 3 -7v-3q0 -11 -45 -63q-62 -80 -84 -111q-5 -4 -10 -4q-22 8 -32 23q-1 0 -1 5zM1101 512q0 6 3 9q-2 4 -2 6v1q2 5 8 5h1q1 0 2 -3q1 0 10 3q7 0 9 -20q0 -2 3 -23q10 17 14 17q3 -1 13 -19l3 -3q7 45 16 45h3q30 -2 30 -12v-2 q0 -3 -11 -46q-3 -38 -6 -59q-5 -20 -16 -20q-15 0 -35 49h-2q-14 -33 -14 -46q-3 -5 -6 -5q-8 0 -13 53q-10 63 -10 70zM1136 -30v-1q4 -2 9 -20q1 -12 4 -12q4 0 5 -8l-1 -3q15 -55 31 -55h1q17 0 17 21q0 11 -21 71q-6 9 -9 9h-7q-26 -2 -29 -2zM1210 -269q0 10 4 24 q1 3 3 3q23 -6 23 -24v-3q0 -14 -17 -17q-13 3 -13 13v4zM1226 546q0 8 4 10h1l3 -1q0 7 6 8h21q5 0 5 -20q1 -13 1 -21h1q6 9 10 9h2q3 -2 12 -20q11 -17 12 -17q14 15 22 43l3 3h3q7 0 23 -22q2 -3 2 -7v-3q-14 -34 -28 -83q-4 -9 -9 -9q-9 0 -40 44q-6 10 -7 10 q-11 -44 -14 -49l-4 -1q-9 0 -23 83q-6 28 -6 43zM1231 -139q0 5 26 23q6 6 11 6q21 -4 21 -11v-3q0 -7 -18 -19q7 -10 7 -13q6 0 14 9q2 1 3 1q8 0 15 -18v-1q0 -8 -19 -20q0 -1 7 -16q2 0 13 13h3q25 -23 25 -25v-2q-16 -11 -30 -25q-12 -14 -17 -14q-8 0 -21 32 q-18 34 -34 78q-6 2 -6 4v1zM1302 -100q11 35 23 57q1 0 3 1q15 -1 24 -2q4 1 8 1q5 -1 5 -5t-11 -30l-1 -4l36 -12q8 -3 8 -7v-3q-11 -76 -25 -90h-3q-14 6 -21 6q-2 2 -2 3q4 46 9 69v1q0 5 -49 7q-4 5 -4 7v1z" />
<glyph unicode="&#xaa;" horiz-adv-x="648" />
<glyph unicode="&#xab;" horiz-adv-x="944" />
<glyph unicode="&#xac;" horiz-adv-x="1014" />
<glyph unicode="&#xad;" horiz-adv-x="670" />
<glyph unicode="&#xae;" horiz-adv-x="1440" d="M70 -167l10 3q6 0 24 -10v-1q0 -10 -6 -54q34 39 44 40q5 0 7 -27l7 -38q25 41 32 41q6 -4 15 -19v-3q0 -2 -17 -25q-18 -31 -33 -66q-1 -8 -7 -8q-9 0 -21 66q-2 7 -2 12q-19 -18 -42 -55l-3 -2q-5 0 -5 9q0 7 -2 90v8v1v5q0 9 -1 33zM114 916v3q0 13 5 13h2q3 -1 3 -3 q-1 -12 -1 -13t8 -9v-1q0 -5 -5 -5q-12 5 -12 15zM137 315l3 95v10q0 16 -1 47q1 3 5 3q17 0 55 -26q13 -12 13 -27q0 -28 -26 -39q-7 -1 -7 -3q31 -15 31 -35q0 -28 -31 -40h-11q-16 0 -29 11zM156 921v4q0 21 9 28h4q3 -2 3 -5q-7 -8 -7 -27q1 -13 12 -29v-1q-1 -4 -5 -4 q-16 13 -16 34zM186 1479q2 4 21 14q44 37 94 51q24 9 26 14q0 2 4 2q7 0 15 -30q6 -16 14 -29v-4q0 -8 -54 -34l-43 -24v-19q0 -26 5 -51q9 0 72 24h6q10 0 10 -27q3 -16 3 -25q0 -5 -35 -27q-24 -15 -39 -15q-7 -4 -7 -30v-96q0 -11 7 -44v-16q-5 -9 -49 -30q-4 1 -4 6v2 q4 5 6 13q-8 0 -9 32q-11 111 -26 232q-12 65 -12 98zM198 912v6q0 25 11 53l1 1h2q5 0 5 -4q-10 -31 -10 -55q0 -23 10 -38q-1 -4 -5 -4q-11 0 -14 41zM210 -302q0 39 23 62q0 4 9 5h2q2 0 4 -8q13 -9 13 -25v-10q0 -34 -23 -65q-4 -4 -7 -4h-3q-15 0 -18 42v3zM228 392 q0 39 17 68q10 13 16 14h2q9 -10 19 -42v-5q0 -5 -13 -9q-5 -4 -5 -17v-10q0 -21 17 -25h8q6 -1 6 -6v-26q-8 -8 -19 -8q-31 0 -43 37q-5 12 -5 29zM234 916q0 12 8 12h3q6 0 16 -10q4 -4 13 -17q3 20 11 20h2q5 0 8 -19h1q3 8 9 8q8 0 13 -23q10 13 16 13q13 -2 13 -18v-4 q0 -19 -15 -48q-10 -12 -13 -13q10 -68 10 -113v-34q0 -10 -2 -27h1q25 -2 46 -2q15 0 58 1q-5 8 -5 16q-7 0 -15 33v4q0 8 6 26q-8 16 -8 25v5q0 9 6 17q6 31 10 36v8v1q0 17 9 22q8 1 8 4q-17 31 -17 81v31q0 26 16 70q3 15 5 102q5 47 12 71q21 54 33 77q21 29 25 31 q4 3 19 24q32 28 35 28q-3 4 -5 14q0 16 17 28q9 15 27 21q50 17 71 22q63 6 73 6h7q53 0 90 -20q23 -10 42 -29q23 -26 25 -42q1 -1 1 -4v-6l-1 -5q6 -6 25 -20q8 -12 30 -32q10 -17 37 -55q26 -51 26 -73q5 -19 5 -71l-3 -47q-6 -5 -6 -8l1 -5h1q12 11 23 11q18 0 33 -21 q5 -12 5 -23q0 -30 -16 -51q-2 -9 -6 -51q-5 -14 -12 -20h-2q-4 0 -4 3q-1 0 -6 -6q0 -9 1 -9v-5v-21l3 -23q0 -10 -3 -21q28 -88 28 -110v-5q0 -80 -12 -141q-14 -94 -14 -161q-1 0 -2 -22h1q3 2 37 3q0 1 14 2q5 0 10 -24q8 -20 8 -38v-9q-1 -19 -7 -19l-28 -6 q-29 -7 -68 -15v-1q1 -23 1 -33l-8 -62q-19 -79 -19 -82q-4 -28 -11 -107q26 -3 45 -4q15 0 67 10q10 1 33 2q0 11 23 11q1 0 17 2h2q17 -1 17 -8q7 -5 21 -56q6 -15 6 -26q0 -22 -15 -28q-5 -2 -9 -2h-5q-20 0 -36 55q-8 -7 -47 -16q-82 -17 -109 -28q-29 -10 -53 -24 q-33 -22 -40 -22q-14 0 -33 34q-21 31 -67 92q-68 92 -85 110q-10 11 -12 11q-48 -38 -113 -92q-34 -25 -70 -46l-78 -65q-36 -34 -46 -55q-6 -7 -15 -25l-19 -31h-4q-31 5 -53 17q-52 29 -52 60q0 21 19 21q30 0 53 -13h3q6 0 13 13q14 13 27 59q18 52 26 76q11 29 46 115 q14 27 30 98q2 14 5 20q-4 0 -6 19q-4 17 -15 93q-7 38 -26 98q-6 0 -6 7v3h3q-7 28 -18 93l-4 10h-45q-77 0 -89 12q-4 6 -13 72q-8 48 -8 66v10q0 36 13 117q1 0 1 1q-16 26 -19 53q-6 20 -6 36zM244 914q0 -30 17 -72q7 -8 7 -11l-1 -1q19 3 31 3q15 0 20 -6q0 1 7 10 q13 25 13 43q-1 10 -4 10q-10 -7 -14 -22q-3 -2 -5 -2q-6 0 -6 18l-4 15q-2 0 -7 -21l-2 -2h-2q-5 0 -7 16q0 2 -2 14q-2 0 -3 -14v-17q0 -1 -3 -3h-1q-6 0 -9 17q-12 25 -25 30v-5zM259 -160v-4q0 -31 70 -60q7 -3 24 -6q20 30 22 37q-17 10 -47 22q-2 3 -3 7l-1 -1 q-2 0 -25 10q-12 3 -23 3h-12q-5 -2 -5 -8zM268 593q3 -27 7 -27q12 -8 98 -8h14q11 0 16 4q5 0 9 -6q-2 -5 -2 -6q6 -16 16 -83q5 -21 7 -21h2q42 0 164 11v1q0 3 2 12q-12 0 -23 15q-5 11 -6 11h-1q-2 0 -5 -1q-7 0 -25 16q-4 3 -12 12q-21 3 -31 12q-14 14 -14 26v2 q0 4 4 10v1l-16 13q-7 8 -7 15v1q-147 -3 -195 -9q0 -1 -2 -1zM297 -342q0 40 11 69q-3 0 -3 5q5 7 10 7q7 0 19 -12q15 -20 15 -32v-5q0 -23 -21 -52q-8 -8 -14 -8h-3q-12 0 -14 21v7zM306 457v3q0 6 6 6h3q21 0 30 -12q6 -29 13 -46l5 -8v14q0 15 -3 47q0 5 17 5 q8 0 9 -18q6 -49 20 -98q1 0 3 -10q0 -4 -19 -9q0 -2 -7 -3q-4 0 -13 17q-10 12 -12 13v-1q0 -4 3 -36q-3 -2 -6 -2h-19l-8 -2h-1q-4 0 -6 4q-5 0 -5 17q-5 119 -10 119zM333 962q2 7 7 7q9 -2 27 -28q13 -22 13 -48v-1q0 -20 -8 -20h-1q-1 0 -3 3v3q3 4 3 16q0 35 -30 63 q-2 -1 -4 -1q-3 0 -4 6zM384 957q0 4 5 4q4 0 8 -18q5 -7 5 -16v-2q-1 -6 -6 -6h-2q-3 1 -3 5l2 4q0 2 -7 20q-2 7 -2 9zM390 -343q0 44 4 94h1q-4 2 -4 3v2q2 3 4 3q19 -1 54 -33q11 -16 11 -27v-7q0 -28 -18 -47q-18 -11 -36 -11l-9 -3q-7 6 -7 24v2zM426 1490v26 q0 70 35 95q35 38 52 38h25q36 0 54 -22q19 -11 28 -41q4 -10 4 -20v-13q-3 -35 -5 -52q-2 -15 -29 -74q-5 -8 -26 -28q-8 -8 -36 -14q-9 -4 -13 -4h-3q-21 0 -42 13q-15 5 -25 21l-12 32q-7 15 -7 43zM435 951q0 -87 15 -104q11 -32 15 -40q1 -2 5 -2l2 -3v-2l-2 -5 q21 -13 21 -24q7 -12 24 -34l14 -18l26 -15q1 0 9 -6q5 24 14 33q3 0 4 14q5 10 13 14q5 0 12 18q1 4 11 17q5 8 5 25v7q0 12 -1 30q0 9 5 9q3 0 5 -4v-5v-32q0 -20 -5 -31q14 17 27 23q3 2 10 3v2q-1 -1 -2 -1q-7 6 -23 13q-6 7 -6 10v4q0 10 14 14h6q10 -4 10 -7v-2 q0 -1 -3 -3q-4 0 -8 3h-2q-8 0 -8 -7q1 -3 2 -3q4 4 8 4t11 -7q9 -6 19 -6h2q6 0 33 16q2 2 8 3q5 0 8 -8q10 4 10 13q-1 8 -10 20q-1 2 -8 24q-8 15 -8 24v1q0 4 4 6q-1 5 -1 11l1 3q-1 35 -3 57q-6 25 -6 32q0 36 12 56q4 12 29 42q33 29 45 29q0 1 55 3q81 -1 81 -7 q22 -7 22 -25q-5 -16 -14 -16v-5q0 -11 -29 -25l-1 -2l9 -17q33 -24 37 -41q9 -13 9 -30v-8q3 -6 4 -25q0 -12 -12 -35q-28 -32 -40 -36q-42 -27 -87 -27q-25 0 -71 26q-22 8 -33 26v-1q12 -28 12 -35q12 -12 12 -26q0 -18 -28 -26h-1l-14 4q-5 -3 -6 -3h9q8 0 19 -14 q13 -6 21 -12q7 0 12 -11h2q4 0 10 -2q-8 24 -19 48q0 6 4 9h1q5 0 5 -4l-1 -5q12 -22 20 -48q1 -3 8 -4q0 -2 7 -9q6 -21 18 -21q5 -2 6 -6l21 7v1v1q0 17 15 23h3q2 0 6 -3q14 5 19 5h1q2 0 10 -3q28 33 40 33q11 0 11 7q4 7 17 17q0 2 14 10q16 19 16 32q4 17 14 36v3 q-2 27 -8 27q-11 8 -11 9q-1 2 -1 3q0 3 6 24v2l-3 16q2 19 2 21v8q0 11 6 11q4 -1 5 -1q20 7 20 8q2 13 3 46q0 72 -17 107q-12 27 -37 61q-15 23 -21 28q-9 7 -20 22l-23 17q-9 8 -11 12q-26 17 -44 26q-15 9 -21 9l-56 -23q-14 -6 -64 -12q-63 -5 -99 -5q-25 0 -41 10 q-6 -1 -40 -34q-3 -6 -20 -24q-13 -18 -20 -28q-9 -19 -16 -39q-26 -51 -26 -140v-11h1q1 11 26 59q10 11 28 11q26 0 40 -12h6h14q25 -4 25 -9q5 0 6 -11v-5q0 -20 -24 -20q-44 2 -48 8q-11 4 -20 4q-17 0 -23 -14q-21 -21 -25 -23q-3 -25 -11 -48q-9 -17 -14 -51zM442 954 q0 30 17 62l25 28q12 9 53 13q31 0 55 -22q42 -29 42 -42h1v7v4q0 32 -32 50q-18 19 -51 19t-46 -10q-11 -4 -13 -4q-4 2 -4 6q0 3 19 10q11 7 37 7h12q29 0 54 -21q33 -22 33 -54v-8q0 -5 -1 -22q1 -2 1 -4v-2q-1 -2 -3 -2v-5q6 -3 6 -14v-9q0 -12 -11 -28q-2 -10 -16 -21 q-1 0 -25 -15q-25 -9 -37 -9h-11q-37 0 -67 22q-13 8 -22 16q-5 0 -12 26q-4 15 -4 22zM451 954q5 -33 9 -33q5 6 41 28q16 15 73 22q15 0 21 1q3 -1 6 -1l1 1q4 -1 27 -3h2q0 16 -14 35q-49 43 -70 43h-14q-40 -4 -45 -13q-27 -28 -27 -35q-10 -24 -10 -45zM464 318 q6 -53 13 -81q0 -10 36 -25q19 -9 126 -21l134 -6q96 0 158 9q44 8 75 8q2 3 3 12q-1 22 -1 30q-30 -5 -42 -14q-26 -12 -46 -12q-20 -3 -32 -9q-5 3 -21 5q-66 13 -66 28q4 16 44 40q18 17 24 23h4q3 -1 3 -5q14 0 86 27q6 0 21 4h2q5 16 9 16v12l1 8h-1q-87 -12 -240 -25 q-41 -4 -156 -13q-33 -4 -122 -11h-2q-6 0 -9 1zM466 913q29 -27 59 -34q5 -1 27 -2h1v1q-15 4 -29 25q-7 16 -7 23q-3 -2 -5 -2q-5 0 -7 17q-5 -3 -10 -7q1 -7 5 -11v-3q-1 -3 -5 -3q-5 0 -8 12q-5 -3 -5 -4q2 -13 2 -16q-1 -3 -5 -3h-1q-3 0 -5 14q-7 -4 -7 -7zM478 1155 q1 3 13 8q12 9 66 20q22 9 35 9h20l24 4q5 0 5 -5v-1q0 -4 -31 -7h-18q-3 0 -56 -15q-21 -2 -46 -16q-3 -3 -6 -3q-6 0 -6 6zM493 -308q0 23 25 57q20 18 37 18q0 1 2 1q4 -1 4 -3l-1 -4l7 -34v-5q0 -6 -5 -6h-5q-21 0 -26 -14l-1 -6q0 -11 16 -18q4 -1 8 -1q15 0 24 6h1 q3 -1 3 -2v-3q0 -5 -1 -8q1 -5 1 -9v-15q0 -7 -18 -10h-10q-32 0 -54 26q-7 12 -7 23v7zM499 1192q0 15 65 23q14 3 47 7q0 1 2 1q5 -2 5 -5q0 -7 -44 -10q-43 -8 -61 -14q-7 -7 -10 -7q-3 2 -4 5zM513 946q0 -3 3 -14h1v16h1h-1q-4 -1 -4 -2zM515 1007q0 10 28 13 q22 0 38 -15v-1q0 -4 -5 -4q-18 10 -29 10h-5q-13 0 -22 -8q-5 0 -5 5zM518 849v1q0 5 4 5q9 -2 12 -2h3q30 0 75 28q23 19 23 25q9 15 9 16h4q3 -1 3 -2v-3q-12 -26 -19 -30q-22 -23 -46 -31q-32 -13 -49 -13q-19 2 -19 6zM536 1237q1 2 4 4h7q23 0 57 15q0 1 21 4 q5 -2 5 -5q0 -5 -19 -7q-39 -16 -60 -16h-9q-6 0 -6 5zM550 925q0 -13 9 -13q3 1 3 4v1q0 8 -12 10v-2zM599 -242l3 3q39 -3 39 -5l1 -3q-3 -28 -3 -34v-8q0 -16 11 -22h1q8 4 9 58q3 4 5 4q25 -6 25 -10v-2q0 -37 -14 -77q-11 -24 -31 -24q-41 0 -41 85q0 4 -5 34v1z M614 960q6 -6 10 -36v-2q0 -4 -4 -16h2l14 26q2 6 2 14q0 11 -5 11q-1 -6 -5 -6q-3 0 -5 9q-2 1 -3 1h-6v-1zM621 693q5 0 21 -17q1 0 11 -7q5 5 5 11q-7 0 -11 20q0 3 -5 4q0 2 -13 9h-1h-1l-2 -7v-2q-3 -5 -4 -11zM631 725q7 -10 16 -10h1q7 10 20 10q11 8 18 9 q6 -2 12 -2q2 0 10 10q4 3 7 3v1q-6 0 -13 7l-5 -1q-9 0 -17 8q-14 -10 -24 -10q-2 1 -3 1q-7 -18 -21 -24q-1 0 -1 -2zM647 1051q0 1 4 4q6 0 9 -17q5 -10 5 -28v-15q-1 -42 -1 -47v-3l1 -4q-2 -5 -4 -5h-3q-3 2 -3 5q0 28 1 71q0 10 -9 39zM653 1070v1q2 4 6 4 q12 -6 18 -6q10 0 23 36q6 9 10 9q2 0 4 -4q0 -2 -8 -14q-12 -36 -27 -36h-4q-22 3 -22 10zM680 1255v1q0 4 25 4q58 5 110 7q47 8 57 8q19 0 46 -18q6 -1 6 -5q0 -3 -5 -5q-4 0 -20 11q-16 7 -25 7h-5q-4 0 -61 -8q-49 -1 -124 -7q-4 0 -4 5zM693 1030q0 12 7 12q1 0 4 -3 l-1 -9v-1q0 -18 2 -31q-1 -4 -3 -5h-2q-5 0 -5 13q-2 21 -2 24zM694 871v1q0 2 5 13q1 4 1 7q-5 22 -5 25q0 2 1 17q0 2 -2 14q1 7 6 7q4 -1 4 -5v-1q0 -8 1 -17l-1 -12q0 -3 5 -27v-4q0 -11 -9 -21h-2q-1 0 -4 3zM696 1508q3 12 4 12v28v46q0 22 -2 77q6 7 44 13l12 1 q7 0 12 -22q14 -38 43 -69q10 -12 16 -18v1q2 38 4 103q0 10 22 10q4 0 39 3q8 0 8 -24q2 -28 2 -65v-86q0 -18 -14 -18q-12 -3 -22 -3h-9q-45 0 -51 6q-13 12 -33 62l-7 14q-8 -40 -8 -75v-16q-1 -6 -6 -6h-1q-13 0 -39 13q-14 9 -14 13zM718 1203q0 6 24 6q1 0 107 4 q40 -1 40 -7q14 -12 30 -16q16 -10 18 -17v-1q-1 -3 -4 -3h-2q-16 16 -29 17q-9 4 -21 15q-8 2 -20 2h-19q-99 -3 -119 -6q-4 0 -5 6zM720 -249q0 4 23 7l5 5h2q1 0 4 -1q2 0 2 1q7 -1 10 -1q2 0 37 1q5 0 11 -23v-3q0 -7 -18 -7q-16 -6 -18 -7q0 -15 4 -78q0 -9 -27 -9 q-5 0 -5 16v35q0 14 3 31q-17 -5 -22 -5q-7 0 -7 12q0 8 -4 24v2zM724 744q1 0 7 -5l5 1q2 0 4 -3v-5q0 -17 -2 -36q1 -5 2 -5q0 2 22 21q2 3 2 5q-2 8 -2 10q-11 0 -19 10q-12 7 -14 7h-5zM758 953l1 -5q13 13 42 21q22 8 57 8q41 -3 47 -9q23 -7 42 -15h1q8 20 8 33v3l2 2 v4q0 18 -14 40q-17 19 -35 28q-17 7 -35 7h-5q-34 0 -75 -35q-34 -40 -36 -72v-10zM764 937q29 -32 35 -32q5 -3 7 -3v1q-9 17 -9 27q0 18 4 29q-9 -2 -9 -6v-2v-3q-1 -3 -3 -4h-3q-4 1 -4 9q-1 -2 -2 -2l1 -1l-1 -5q2 -7 2 -9q-1 -4 -5 -4h-1q-5 2 -5 14q-4 -3 -7 -6v-3z M778 1233q2 4 6 4q57 4 65 4q27 0 69 -21q15 -3 15 -7q0 -5 -5 -5q-7 0 -49 19q-12 4 -31 5q-55 -4 -63 -4h-2q-5 0 -5 5zM804 836v1q2 3 4 3q13 -5 45 -5q31 0 61 15q44 33 44 46q0 5 5 5h1q3 -1 4 -4q0 -13 -17 -26q-16 -18 -39 -33q-31 -12 -54 -12h-9q-42 1 -44 6 q-1 2 -1 4zM809 1302v4q0 2 8 4q18 -2 21 -2q27 4 31 4q3 0 38 -10q10 0 10 -7q0 -1 -3 -4q-6 0 -42 11h-5q-23 -3 -28 -3h-3q-10 0 -18 1h-7zM811 242q0 -1 2 -2v1q0 1 -2 1zM814 486q2 -7 4 -7q53 6 110 8q27 4 45 6q0 1 14 2q1 2 5 2q1 22 1 28q0 18 -4 42l3 3h2 q4 0 7 -5l-1 -4q2 -22 2 -36q0 -13 -1 -29q4 -31 4 -49v-26q10 1 15 1h14q4 0 11 1q0 33 14 133q8 38 8 63h-1q-4 0 -5 1q-5 0 -57 -5h-80q-9 0 -17 -7q-8 -5 -10 -7v-1q0 -28 -10 -37q-7 -4 -15 -4h-1v-1q0 -20 -17 -28q-3 0 -4 -9q-4 -9 -14 -12q-12 0 -22 -23zM827 253 q0 -2 2 -18v-1q13 -7 49 -12q4 -1 10 -1q7 9 8 18v1h-3q-3 -3 -6 -3q-5 0 -5 5q0 3 8 9q3 5 3 7v1q0 2 -7 3q-6 -2 -9 -2q-3 3 -3 5q1 4 9 7q2 4 2 6v4q0 5 -8 9q-5 -1 -8 -1h-2q-19 -18 -40 -31v-3v-3zM830 926q6 -7 7 -7l2 3v2l-7 8q-2 -4 -2 -6zM836 -270q1 34 4 34t3 4 l4 2q3 0 3 -4h8q5 0 37 -3l33 2q7 0 7 -16q2 -22 2 -26q-1 -3 -4 -5h-20l-5 1v-31l1 -4q0 -1 -1 -1q1 -9 1 -14v-17q0 -7 -14 -7q-11 -4 -14 -4h-1q-4 2 -4 7v33v4v2v6v21v9q-5 2 -11 2h-25q-3 1 -4 5zM844 1025v1q0 5 21 6h1q15 0 36 -11q0 -2 2 -4v-3q-1 -3 -4 -3 q-17 11 -32 11h-8q-3 0 -12 -2q-4 1 -4 5zM858 1378l23 -12l15 -9q-13 22 -30 22h-8v-1zM886 964q1 0 6 -4h1v4h-4h-3zM893 270q9 -3 9 -10v-4q0 -3 -2 -7q2 0 4 -5q54 6 54 11q9 4 23 7q-1 3 -1 8v21h-2q-4 0 -24 -7q-24 -4 -51 -6q-10 -3 -10 -6v-2zM897 905h1q16 7 29 23 q13 11 13 18q-13 5 -20 7v-8l1 -4q-1 -3 -4 -5h-3q-3 0 -4 12l1 9q-6 2 -9 2q0 -6 -3 -10q3 -6 3 -17v-3q0 -10 -5 -24zM947 1525q0 35 6 86q-2 3 -2 4q0 24 19 28q2 0 19 3q28 -4 38 -7q20 -9 83 -28q24 -10 24 -17v-1q-14 -72 -16 -77q-1 -4 -6 -4q-6 0 -68 6 q-13 -95 -20 -166q-2 -49 -5 -49q-2 0 -3 -1q-25 6 -25 16v1q5 131 11 198q0 6 -7 6q-12 0 -43 -5q-5 2 -5 7zM955 1236q3 8 8 8q5 -2 5 -7q0 -4 -5 -6h-2q-6 1 -6 5zM956 1270q1 5 5 5q5 0 8 -5v-3q-3 -4 -6 -4q-7 1 -7 7zM959 -207q0 7 7 7q0 2 1 2h3l3 -4h9q16 2 21 2h3 q11 0 19 -18v-2q0 -8 -10 -8q-24 -2 -26 -5q2 -8 2 -13v-7q1 -1 2 -1q20 4 26 4h6q13 0 13 -23v-1q0 -7 -27 -8h-8l1 -7v-21q20 0 41 7h4q9 0 12 -28q1 0 1 -4q0 -5 -10 -6q-3 0 -32 1q-17 0 -39 -5h-6q-6 0 -9 79q-7 46 -7 54v5zM966 1212q3 7 8 7q4 0 5 -6v-1q0 -6 -8 -6 q-5 2 -5 6zM969 1181v3q1 6 6 6q7 -2 7 -7q0 -3 -8 -5q-4 1 -5 3zM974 1151v4q3 4 7 4t5 -5q-1 -7 -6 -7h-3q-1 0 -3 4zM982 1122q0 4 5 4h2q7 -2 7 -7q-3 -6 -8 -6q-6 2 -6 9zM984 1229q0 7 6 7q6 -2 6 -4v-2q0 -7 -6 -7q-6 1 -6 6zM988 1087q0 3 5 4q10 -2 10 -9 q-2 -5 -5 -5q-10 0 -10 10zM988 1176q0 4 6 5l1 -1l3 1q5 -2 5 -5q-2 -7 -7 -7h-1q-7 1 -7 7zM989 271q0 -7 2 -7q6 3 10 16v4v7q0 6 6 6q4 0 5 -15q0 -7 6 -12h1q5 4 5 11v3q0 3 -1 10q1 6 5 6q7 -2 7 -14q4 -9 7 -10h2q2 0 5 9l-1 5v6q0 4 3 5h2q6 0 6 -6v-7q1 -7 7 -7 l3 3v7q-10 31 -21 31q0 -15 -5 -15h-2q-2 0 -5 7q-5 6 -30 10q-7 6 -10 9q-7 -29 -7 -62zM993 1138q2 10 4 10h4q1 0 3 -6q-2 -9 -7 -9q-4 0 -4 5zM994 1060q0 6 8 6q6 -3 6 -7q-2 -8 -7 -8q-7 3 -7 9zM996 1201q0 2 4 5h1q7 -1 7 -6q-3 -6 -7 -6h-1q-4 2 -4 7zM1001 1099 q0 2 5 6h1q5 0 5 -6q-2 -6 -7 -6q-4 2 -4 6zM1003 345q0 -9 7 -12l24 -6q1 3 5 6q5 52 5 73v7h-15q-15 0 -24 -2v-33l-1 -7q1 -1 2 -1v-2q-2 0 -2 -2q-1 -13 -1 -21zM1005 267h3q0 2 -2 2q0 -1 -1 -2zM1009 1160q3 6 8 6q6 0 7 -7q-2 -7 -7 -7h-2q-6 0 -6 8zM1011 1125 q0 4 4 6h2q4 0 7 -5v-2q0 -5 -7 -6h-2q-4 2 -4 7zM1015 1068v1q0 1 3 3h1q10 -2 10 -7q-2 -5 -7 -5q-7 0 -7 8zM1017 1087v3q0 6 5 6q5 -2 5 -6q0 -5 -6 -7q-3 1 -4 4zM1026 1007q0 -2 1 -20v-18q13 0 16 -17q0 -33 19 -53l1 -5q2 0 5 45q1 0 1 5l-1 -1q-6 0 -9 18v8 q0 11 12 21l2 5v2q0 7 -7 9q-11 0 -19 -16q0 -7 -5 -7q-3 0 -5 6q0 9 15 22q6 4 14 4q13 0 17 -19q-5 -17 -11 -17q-3 -5 -3 -8v-7q0 -3 2 -14h1q14 21 14 40v6q0 11 -7 22q-13 11 -20 11h-4q-7 0 -23 -14q0 -2 -6 -8zM1043 956v4q2 11 9 11h2q1 0 3 -3v-1q0 -2 -5 -7v-2 q11 -17 11 -21q0 -8 -6 -8h-2q-1 0 -3 3v3l2 2q-9 15 -11 19zM1069 314q9 -16 9 -28q0 -1 -1 -7q34 4 34 8q0 22 -5 32q-11 -2 -29 -2q0 -1 -8 -3zM1089 -316q3 54 3 62v14q0 4 -2 56v16q0 9 24 11q25 0 43 -19q6 -12 6 -21q0 -20 -32 -41v-1q15 -11 51 -33l2 -3v-3 q-16 -18 -18 -18h-3q-19 7 -43 15l3 -38q-3 -2 -7 -3l-18 2q0 -1 -5 -2q-4 1 -4 5v1zM1099 1157q19 28 19 29q7 12 26 53q13 20 32 47q0 2 1 2q-3 6 -38 27q-32 25 -32 32q0 8 79 89q22 24 44 50q2 2 5 2q5 -4 14 -6l2 -3l-1 -5q24 -21 24 -27v-4q0 -2 -21 -28q0 -4 -39 -41 q0 -6 25 -27q13 -15 29 -30q3 -4 3 -7v-3q0 -11 -45 -63q-62 -80 -84 -111q-5 -4 -10 -4q-22 8 -32 23q-1 0 -1 5zM1101 512q0 6 3 9q-2 4 -2 6v1q2 5 8 5h1q1 0 2 -3q1 0 10 3q7 0 9 -20q0 -2 3 -23q10 17 14 17q3 -1 13 -19l3 -3q7 45 16 45h3q30 -2 30 -12v-2 q0 -3 -11 -46q-3 -38 -6 -59q-5 -20 -16 -20q-15 0 -35 49h-2q-14 -33 -14 -46q-3 -5 -6 -5q-8 0 -13 53q-10 63 -10 70zM1136 -30v-1q4 -2 9 -20q1 -12 4 -12q4 0 5 -8l-1 -3q15 -55 31 -55h1q17 0 17 21q0 11 -21 71q-6 9 -9 9h-7q-26 -2 -29 -2zM1210 -269q0 10 4 24 q1 3 3 3q23 -6 23 -24v-3q0 -14 -17 -17q-13 3 -13 13v4zM1226 546q0 8 4 10h1l3 -1q0 7 6 8h21q5 0 5 -20q1 -13 1 -21h1q6 9 10 9h2q3 -2 12 -20q11 -17 12 -17q14 15 22 43l3 3h3q7 0 23 -22q2 -3 2 -7v-3q-14 -34 -28 -83q-4 -9 -9 -9q-9 0 -40 44q-6 10 -7 10 q-11 -44 -14 -49l-4 -1q-9 0 -23 83q-6 28 -6 43zM1231 -139q0 5 26 23q6 6 11 6q21 -4 21 -11v-3q0 -7 -18 -19q7 -10 7 -13q6 0 14 9q2 1 3 1q8 0 15 -18v-1q0 -8 -19 -20q0 -1 7 -16q2 0 13 13h3q25 -23 25 -25v-2q-16 -11 -30 -25q-12 -14 -17 -14q-8 0 -21 32 q-18 34 -34 78q-6 2 -6 4v1zM1302 -100q11 35 23 57q1 0 3 1q15 -1 24 -2q4 1 8 1q5 -1 5 -5t-11 -30l-1 -4l36 -12q8 -3 8 -7v-3q-11 -76 -25 -90h-3q-14 6 -21 6q-2 2 -2 3q4 46 9 69v1q0 5 -49 7q-4 5 -4 7v1z" />
<glyph unicode="&#xaf;" horiz-adv-x="670" />
<glyph unicode="&#xb0;" horiz-adv-x="2163" d="M610 221h231q12 -2 12 -12v-116h128l133 128h177q34 0 176 158q8 0 110 110v614h-900q-67 -171 -67 -195v-687zM762 391v609q2 12 12 12h705q13 -2 13 -12v-463q-154 -164 -165 -164h-231l-127 -122h-7v122h-182q-9 0 -18 18zM1005 580h91l-6 30v195l6 30h-91v-255z M1248 580h85v255h-85v-255z" />
<glyph unicode="&#xb1;" horiz-adv-x="2157" d="M670 483q0 -53 49 -61q274 76 274 103v37q-31 42 -274 121q-43 0 -49 -115v-85zM762 1085q18 -62 249 -402l18 -12h31q21 0 30 67l-6 43h6l-36 395q-25 12 -43 12q-249 -44 -249 -85v-18zM835 191q30 -49 170 -86l43 -6q36 8 36 55v103q0 14 6 25q-6 10 -6 24v12l6 37 q-6 12 -6 18l6 12q-16 41 -36 49h-31q-188 -194 -188 -231v-12zM1163 610q0 -8 37 -36h6q280 62 280 85l6 12q-40 138 -134 195h-24q-55 -61 -171 -225v-31zM1175 434q0 -26 140 -237l25 -19h6q104 56 152 189q0 40 -158 79q0 6 -116 37h-18q-31 -16 -31 -49z" />
<glyph unicode="&#xb2;" horiz-adv-x="2157" d="M478 562q0 -219 255 -341q85 -18 177 -18h267q276 0 372 121q86 54 139 244q7 52 7 79q0 299 -305 426l-67 18h-146q-104 0 -261 -134l-43 6h-42q-101 0 -237 -103q-116 -137 -116 -244v-54zM563 550v66q0 119 152 225q60 37 146 37q167 0 341 -231v-6q-13 -37 -49 -37 q-12 0 -194 171q-50 18 -67 18h-37q-188 0 -213 -219q0 -135 152 -195q110 0 177 -85l-6 -12l-31 6h-30q-253 0 -323 189q-18 54 -18 73zM806 598q13 37 49 37q249 -238 262 -238q82 -30 109 -30h24q199 0 274 225l6 43v30q0 129 -152 237q-87 31 -134 31t-158 -43 q-51 31 -61 31v12q42 54 207 85h12q365 -62 365 -365q0 -247 -243 -347q-83 -24 -122 -24h-6q-164 0 -346 207q-86 82 -86 109z" />
<glyph unicode="&#xb3;" horiz-adv-x="2167" d="M632 814q0 -34 214 -244l97 -116l-12 -6h-6q-14 0 -24 6q-11 -6 -25 -6q-6 0 -6 6l-12 -6h-55q-6 0 -6 6l-12 -6h-129l-12 6l-6 -12v-305h299q12 0 12 12v281q2 12 13 12q236 -223 335 -305h299v317h-610q-12 0 -12 12q316 170 616 324l13 24v287h-306q-11 -3 -238 -433 q-91 -173 -91 -190h-19v623h-317v-287zM669 808v12h232q12 -2 12 -12v-250h-6zM1047 552v12q256 488 263 488l6 -12v-220h219q13 -2 13 -12q-491 -256 -501 -256zM1053 411l12 6h238q13 -1 13 -12v-219q0 -13 -13 -13q-250 232 -250 238z" />
<glyph unicode="&#xb4;" horiz-adv-x="2147" d="M415 628q0 -322 315 -539q181 -91 327 -91q335 0 551 303q103 176 103 351q0 324 -309 551q-163 91 -357 91q-343 0 -551 -333q-79 -143 -79 -309v-24zM440 652q0 317 302 527q145 84 279 84h66q303 0 503 -296q83 -141 90 -291v-54q0 -172 -145 -376 q-208 -218 -478 -218q-301 0 -502 267q-115 165 -115 357zM506 646q0 -314 297 -491h12l-260 709h-7q-42 -109 -42 -218zM603 955h6q61 0 182 6q0 -3 12 -19v-12q0 -20 -79 -24l194 -593h12q0 31 115 357q-80 228 -97 236q-67 6 -67 24v12q0 10 25 19q109 -6 145 -6 q38 0 157 6q12 -20 12 -31q-25 -24 -78 -24l193 -587h6q91 294 91 363q0 91 -84 218q-13 45 -13 61q14 96 91 96v6q-169 140 -327 140h-90q-178 -15 -345 -164q-61 -70 -61 -78v-6zM912 113q76 -17 145 -24q182 22 182 36q0 17 -121 345q-43 108 -43 121q-23 -25 -85 -236 q-78 -196 -78 -242zM1348 174q167 86 248 327q18 80 18 108v97q-6 76 -61 200h-6l6 -30v-30q0 -92 -145 -479q-60 -175 -60 -193z" />
<glyph unicode="&#xb5;" horiz-adv-x="2170" d="M581 866q177 -552 238 -726q37 -55 92 -55q38 0 463 146l7 43q0 35 -37 140v43q0 78 177 116q61 41 61 73q-6 58 -165 513q-40 37 -67 37h-43q-662 -208 -689 -232q-37 -33 -37 -98zM618 897q0 48 48 48h19q55 -42 55 -85v-49q-16 -30 -49 -30h-18q-55 34 -55 116z M642 890q20 -85 43 -85h12q9 0 18 18v37q-18 48 -36 61h-19q-10 0 -18 -31zM685 707v6q0 16 49 25q13 0 42 -122h31q12 -2 12 -12q0 -14 -73 -31h-6q-13 0 -13 12t25 12v13q-21 91 -43 91q-12 -6 -18 -6zM746 958q0 15 49 30q24 -41 48 -128h7q10 6 24 6l6 -12 q-2 -15 -79 -37l-6 12l18 25v6q-20 91 -37 91q-10 -6 -24 -6zM752 494v12q15 20 49 30q17 -23 49 -128h12q12 6 18 6l6 -12v-6q0 -12 -79 -30q-12 0 -12 12q30 25 30 30q-14 19 -36 92l-31 -6h-6zM813 750q16 31 49 31q23 -33 49 -122h36v-13q-34 -30 -85 -30l-6 12 q30 16 30 24l-36 98q-20 -12 -31 -12zM819 280q0 47 61 55q42 0 67 -98v-18q-8 -55 -55 -55q-49 0 -73 116zM850 274q0 -69 54 -85l19 24q-17 91 -37 91h-30zM880 530q16 49 55 49h18q55 -35 55 -116q0 -32 -36 -49h-31q-35 0 -61 116zM880 958v42q0 9 31 31h36 q55 -39 55 -98v-12q0 -49 -61 -55q-35 0 -61 92zM904 970q19 -80 49 -80q13 0 25 31q0 47 -37 85h-30l-7 -30v-6zM911 518q20 -79 42 -79h13q13 0 18 30q0 73 -55 86q-5 0 -18 -19l6 -12q0 -6 -6 -6zM941 774q19 55 61 55q51 0 73 -116q-15 -48 -55 -48h-18q-61 52 -61 109z M953 323v18q22 37 55 37q35 0 67 -74v-61q0 -11 -42 -36q-80 13 -80 116zM978 335q0 -57 36 -98h6l31 6v31q-20 79 -43 79h-6zM978 774q0 -85 49 -85h12q0 7 6 18q-9 98 -49 98q-12 -6 -18 -6v-25zM1002 1043q0 9 37 31h12q20 -15 55 -123q37 0 37 -12q0 -7 -61 -30h-19 q-12 0 -12 12t24 12q-24 92 -24 104l-43 -6zM1014 579v12q0 16 49 31q43 -88 43 -122h30q13 -2 13 -12q-1 -17 -86 -37l-6 12v6q0 12 25 12v7q-25 97 -37 97zM1075 811q7 61 55 61q51 0 74 -98v-12q0 -36 -49 -61q-60 0 -80 110zM1082 372q0 27 42 48h25q61 -41 61 -122 q-10 -27 -37 -42h-37q-54 40 -54 116zM1106 823q0 -71 37 -91h12q18 0 18 24q0 63 -37 92l-30 -6v-19zM1112 347q16 -67 37 -67h18q12 0 12 12v49q-24 54 -36 55h-13q-8 0 -18 -18v-31zM1136 1092q0 16 49 24q44 -109 55 -122h31v-12q-42 -31 -80 -31l-6 13l25 24 q-26 92 -55 92q-19 0 -19 12zM1143 622q0 33 54 49q74 -26 74 -122q0 -25 -31 -43h-43q-54 40 -54 116zM1173 610q0 -53 37 -80h18q6 0 18 25q-6 31 -30 85h-31q-12 -2 -12 -12v-18zM1204 884v13q15 0 42 18h6q16 0 49 -128l31 6l6 -12v-13q-70 -24 -86 -24l-6 12 q0 14 31 18q-27 104 -43 104q-11 -6 -24 -6zM1210 427v6q0 16 49 24q19 -20 54 -128q25 0 25 -12q-51 -25 -73 -25l-6 12q0 7 24 25q-29 86 -43 98l-18 -13q-12 0 -12 13zM1265 1116q16 49 61 49q44 0 67 -91v-25q0 -49 -49 -49h-18q-61 45 -61 116zM1277 640v37 q21 36 55 36q46 0 67 -97v-37q-21 -36 -61 -36q-61 41 -61 97zM1295 1116q0 -59 37 -91h18q9 0 18 18v12q-16 86 -48 86q-19 -5 -25 -25zM1301 652q20 -77 37 -79h18q9 0 18 18q0 72 -48 98q-25 -6 -25 -37zM1332 927q26 31 55 31q12 -21 49 -129l12 7h12q12 -2 12 -13 q-27 -30 -85 -30l-6 12q14 12 24 12v6l-31 98h-12l-18 -12zM1362 439q43 -142 43 -177h6q145 168 171 329q-52 -47 -171 -73q-49 -36 -49 -73v-6zM1405 695v6q0 34 37 55h30q55 -39 55 -91v-43q0 -8 -30 -31h-37q-55 47 -55 104zM1436 695q12 -79 36 -79h18q13 0 13 12v6 q0 72 -37 98h-24l-6 -31v-6z" />
<glyph unicode="&#xb6;" horiz-adv-x="2163" d="M628 334l359 -49q0 6 6 6l-6 12v316l6 13l-12 6l-353 6v-310zM628 680l347 6q0 -6 6 -6l6 12v341l-347 -43h-12v-310zM1042 279l486 -67v426h-486v-359zM1042 686h450l30 6q0 -6 6 -6v432q-35 -12 -486 -73v-359z" />
<glyph unicode="&#xb7;" horiz-adv-x="2186" d="M570 704h98q12 0 12 -18q-79 -331 -79 -367q24 -110 61 -110q0 -11 67 -25h37q74 0 159 98v6h13q0 -11 -19 -79v-13h153q10 0 55 202q61 306 147 306q0 7 19 7h30q58 0 74 -80v-24q-68 -235 -68 -288q0 -98 111 -135h42q138 0 184 196h-6q-23 0 -49 18h-6 q-34 -104 -86 -104h-6q-24 10 -24 43q67 246 67 306v37q0 118 -129 165h-49q-81 -7 -189 -128h-7l25 110l-12 6h-233q-31 -102 -31 -129h98q13 -1 13 -12q-79 -349 -129 -349q-10 -30 -104 -55q-38 13 -43 31v30q0 43 117 478l-13 6h-238q-37 0 -43 -67zM723 998 q0 -58 104 -79q86 31 86 85v31q0 47 -67 80h-43q-65 0 -80 -86v-31z" />
<glyph unicode="&#xb8;" d="M670 922q0 -536 382 -802h43q182 120 285 334h85q12 0 12 12v91q0 9 -145 49q-128 94 -128 255q0 57 73 67q67 -10 67 -67q-6 -108 -18 -164v-24h121q26 0 30 188q0 169 -194 200h-18q-140 0 -188 -158l-7 -42q0 -215 183 -352v-6q-57 -126 -183 -231q-168 134 -236 401 q-22 90 -37 249h-97q-6 0 -6 6q-11 -6 -24 -6z" />
<glyph unicode="&#xb9;" horiz-adv-x="2157" d="M450 367h256v104q-24 0 -24 12v91q10 62 49 62l18 -25v-128q0 -12 -18 -12v-55l-6 -43q3 0 18 -13h238v111h-36q-13 0 -13 12v165q0 104 -122 104q-60 0 -116 -61q-12 0 -12 12v201h-232v-110h30q12 -1 12 -12v-299q0 -12 -12 -12h-30v-104zM994 373q1 -13 12 -13h220 l43 7v104h-31q-12 0 -12 12v250q0 13 -12 13h-208q-12 -2 -12 -13v-97q39 0 42 -19v-134q0 -12 -12 -12h-30v-98zM1073 782q2 -12 12 -12h135v98h-135q-12 -2 -12 -12v-74zM1287 501q0 -115 171 -147q19 -6 73 -6q233 24 233 184l6 30q0 171 -171 171q0 6 -13 6 q-8 0 -103 -24l-13 18v6q0 10 25 25h226v85l6 43l-18 12h-318q-49 0 -49 -122q-6 0 -31 -146q0 -16 129 -25l43 25h30q11 0 37 -43v-55q-16 -80 -74 -80q-37 14 -42 37q12 31 12 49q0 34 -73 55q-86 -21 -86 -86v-12z" />
<glyph unicode="&#xba;" horiz-adv-x="2157" d="M504 298q8 -61 61 -61h1013q61 9 61 61v653q0 37 -36 62h-1063q-36 -22 -36 -55v-660zM559 292v12l305 361q-48 56 -293 286h6q58 -39 366 -299q64 -56 129 -103q260 211 469 390l7 -12q-115 -100 -269 -262l299 -354v-13l-342 336h-6q0 -17 -158 -165l-171 159 q-168 -176 -342 -336z" />
<glyph unicode="&#xbb;" horiz-adv-x="2163" d="M630 92q12 0 12 -7l12 7h683l31 -7l6 13v445q0 12 -12 12h-49q-12 -2 -12 -12v-366q0 -12 -13 -12h-567l-18 12q6 122 6 183v116q0 79 -18 79h-61v-463zM770 256q0 -18 24 -18q111 0 202 6q91 -6 201 -6l24 6v92q-12 0 -12 6l-30 -6h-354l-43 6l-12 -19q0 -6 6 -6l-6 -30 v-31zM776 409q278 -25 439 -43q12 4 12 92q-55 12 -414 42h-19q-18 0 -18 -79v-12zM807 610l427 -110l30 80q-14 18 -201 61l-226 67q-30 -31 -30 -98zM886 848q365 -226 390 -226l37 67v19q-358 208 -384 213q-43 -56 -43 -73zM1087 1086q222 -338 250 -366h6q67 37 67 55 q-234 351 -256 366q0 -6 -67 -55zM1362 1220q6 -77 73 -439h6q39 0 85 12q-54 356 -79 439h-6z" />
<glyph unicode="&#xbc;" d="M663 855q22 -176 177 -389q266 -297 449 -297h37q151 105 176 164q0 36 -134 115q-56 50 -91 55q-46 -23 -97 -67q-85 0 -249 249l-18 61q78 66 78 97q-87 222 -109 237h-24q-43 0 -182 -152l-13 -43l7 -12q-7 -12 -7 -18z" />
<glyph unicode="&#xbd;" horiz-adv-x="2147" d="M442 392h317q5 0 12 3l6 552l-12 6h-116v-134q0 -9 -18 -18h-189v-409zM564 508v183q0 9 18 18h55q12 -2 12 -12v-195q0 -9 -18 -18h-43q-9 0 -24 24zM812 852l134 -3l2 98l-13 6h-109q-12 -2 -12 -12zM814 405q2 -13 12 -13h116v409h-122q0 -13 -6 -13v-383zM984 271 h335v530h-335v-366q2 -12 12 -12h183q12 -2 12 -12v-37q0 -12 -12 -12h-195v-91zM1112 533v164q2 12 12 12h55q12 -2 12 -12v-164q0 -13 -12 -13h-55q-12 0 -12 13zM1362 271h335v530h-335v-366q2 -12 12 -12h183q12 -2 12 -12v-37q0 -12 -12 -12h-183q-12 -2 -12 -12v-79z M1490 533v164q2 12 12 12h55q12 -2 12 -12v-164q0 -13 -12 -13h-55q-12 0 -12 13z" />
<glyph unicode="&#xbe;" d="M681 738q0 -205 305 -543q87 -69 122 -73q150 40 360 397q67 153 67 250q0 192 -177 348q-121 85 -232 85h-49q-116 -12 -244 -98q-152 -165 -152 -317v-49zM845 769q25 134 49 134q35 -73 86 -73h24q91 23 91 91v19q0 26 -42 79q10 7 61 12q170 0 244 -201q6 -42 6 -67 q0 -146 -165 -232q-39 -12 -55 -12h-67q-117 0 -213 158z" />
<glyph unicode="&#xbf;" horiz-adv-x="2167" d="M493 762l12 -6q3 0 18 12q0 -6 6 -6q-24 -67 -24 -139q0 -282 327 -480q139 -48 201 -48h66q332 0 516 400q48 160 48 249q-6 33 -6 48h-6q0 -30 -12 -30q-12 113 -49 206q-28 55 -36 55v-6l6 -43h-12q-24 90 -279 207q-105 30 -115 30h-146q-157 -20 -291 -127 q0 -8 -54 -55q-31 11 -37 91h-6q-44 -21 -67 -231q-36 -31 -60 -127zM723 1017q156 151 352 151q143 0 255 -91q-10 -7 -61 -12v-6q224 -94 224 -188v-12q0 -12 -12 -12q0 9 -18 18h-12v-6l18 -133q-6 -11 -6 -25v-42q0 -12 -12 -12q-27 59 -36 60l6 -42v-24 q0 -147 -61 -200q0 6 -6 6q6 14 12 60h-12q-56 -106 -194 -151h-30q-96 0 -207 79v18h6q121 0 219 79q36 0 36 12v12q-34 42 -85 42q-37 0 -97 -36h-36q-57 0 -128 103v6q0 9 37 36l79 -18l6 12v19q-18 59 -18 66q97 70 97 85v6q0 14 -85 18q0 5 -61 61q0 53 79 128h-6 q-73 -20 -140 -73h-6l-54 6q-11 0 -37 -12z" />
<glyph unicode="&#xc0;" d="M549 647q0 -306 310 -469q111 -48 219 -48q327 0 499 340q20 69 30 165v48q0 25 -12 79h-517v-194q2 -12 12 -12h274q12 -2 12 -13q-104 -200 -286 -200h-30q-215 0 -298 255q-6 43 -6 73q0 183 206 292q80 18 122 18q106 0 201 -79q16 0 146 146q-144 146 -359 146 q-292 0 -468 -292q-55 -106 -55 -225v-30z" />
<glyph unicode="&#xc1;" d="M535 571q0 -142 128 -322q179 -188 431 -188q343 0 509 382q25 99 25 176q0 304 -322 492q-130 42 -182 42h-103q-127 -13 -267 -103q-219 -197 -219 -407l13 -6h364q12 0 12 12v91q0 10 24 25h267q9 0 18 -18v-280q0 -12 -12 -12h-279q-9 0 -18 18v79q-3 13 -25 25h-345 l-13 6z" />
<glyph unicode="&#xc2;" d="M583 325q0 -133 175 -194l43 -6q127 0 272 146q142 -146 266 -146q173 0 224 194v30q0 87 -133 345q-220 466 -266 466q-32 25 -67 25h-42q-128 0 -248 -315q-218 -415 -224 -497v-48zM643 337v30q0 44 279 594q66 163 157 163q94 0 188 -248q200 -372 236 -509v-36 q0 -113 -152 -145h-18q-105 0 -212 139q132 175 134 303q-35 163 -164 163h-24q-170 -23 -170 -163v-31q0 -103 134 -278q-121 -133 -206 -133h-43q-67 0 -127 97q-12 39 -12 54zM958 603v31q0 53 79 97h72q79 -38 79 -103v-6q0 -94 -103 -243h-12q-115 136 -115 224z" />
<glyph unicode="&#xc3;" d="M572 226l655 -127q327 67 363 85l-133 849q-109 0 -170 79q-73 0 -73 30q-36 79 -115 79q0 9 -36 30h-49q-125 0 -212 -273l-139 -54zM729 348q0 30 31 91q79 -49 109 -49q42 12 42 49q0 32 -97 115q-30 42 -30 79v42q0 77 109 158q37 18 127 30q13 0 85 -18v-30 l-42 -103l-67 18h-18q-73 0 -73 -61q0 -13 128 -115q30 -56 30 -85v-42q0 -108 -140 -158h-30q-105 0 -164 79zM851 1009q78 206 188 206l6 -12q-74 -47 -103 -176q-27 -28 -85 -36q-6 11 -6 18zM984 1039q14 65 85 127h6q15 0 30 -78q0 -32 -109 -55zM1130 1172l12 7 q48 -51 48 -79q-6 -18 -36 -18h-6q-14 0 -18 90z" />
<glyph unicode="&#xc4;" horiz-adv-x="2154" d="M625 706q0 -196 206 -303q60 -18 121 -18q186 0 321 194l6 30q-7 79 -78 79h-12q-35 0 -158 -127q-54 -19 -73 -19h-12q-134 0 -163 182q0 73 194 248q60 49 60 91q0 85 -91 85q-45 0 -266 -254q-55 -72 -55 -188zM874 688q29 -61 84 -61q34 0 158 127q38 17 85 25 q112 0 163 -134q0 -20 6 -30q0 -102 -175 -248q-79 -75 -79 -115q0 -71 85 -79q60 3 284 266q43 87 43 158v18q0 206 -218 303q-60 18 -79 18h-36q-183 0 -321 -206v-42z" />
<glyph unicode="&#xc5;" horiz-adv-x="2183" d="M561 643q0 -196 183 -377q157 -116 249 -116h31q164 276 164 292h-6q-59 -18 -104 -18q-155 0 -273 268q-143 243 -153 249q-85 -113 -85 -273v-19q0 -6 -6 -6zM683 966q126 -211 164 -292h6q11 0 25 79q72 134 231 134h371h37q11 6 18 6v18q-178 268 -444 268 q-240 0 -408 -189v-24zM890 655q35 -194 195 -194h12q169 0 188 201q-29 182 -158 182q0 6 -36 12q-201 -31 -201 -201zM1066 144h31q273 0 432 256q67 128 67 195v115q-10 146 -67 146h-298q-13 -2 -13 -12q104 -80 104 -195q0 -82 -189 -371q-18 -47 -67 -122v-12z" />
<glyph unicode="&#xc6;" horiz-adv-x="2173" d="M802 725q1 -13 12 -13h85q12 -1 12 -12v-324q0 -140 172 -207q41 -6 67 -6h30q104 0 177 36q0 19 -42 153q-62 -18 -86 -18q-72 0 -85 110v268q2 13 12 13h165v152h-165q-12 0 -12 13v232h-153q-55 -220 -116 -220q0 -6 -73 -55v-122z" />
<glyph unicode="&#xc7;" horiz-adv-x="2170" d="M678 58q0 -49 61 -61q43 0 147 134q119 146 232 257h189q122 0 122 164q12 6 116 562q-12 97 -86 97h-677q-104 -15 -104 -104v-1049zM807 253v793q9 37 73 37h463q61 -4 61 -37q-22 -183 -67 -183h-244q-61 0 -61 -48q0 -74 43 -74h207q49 -7 49 -36q-22 -183 -55 -183 h-195q-45 0 -171 -177l-97 -104z" />
<glyph unicode="&#xc8;" horiz-adv-x="2202" d="M540 292h368q208 0 239 196v13q0 128 -116 190q80 62 80 116v74q0 84 -129 129q-66 12 -86 12h-356v-730zM700 427v178q2 12 12 12h141q135 0 135 -86v-49q-32 -67 -104 -67h-172q-12 0 -12 12zM700 740v147q2 12 12 12h123q122 0 122 -73v-31q0 -57 -79 -67h-166 q-12 0 -12 12zM1166 568q0 -176 159 -257q65 -19 98 -19h43q114 0 190 111l31 61h-135q-1 -32 -86 -67h-18q-114 0 -135 116v12l12 6h362l12 7l-6 12v6q0 213 -166 276l-43 12h-91q-59 0 -154 -80q-73 -101 -73 -196zM1294 899h276q13 0 13 12v74h-289v-86zM1319 623v25 q0 67 104 92h12q111 -17 111 -111v-6h-227z" />
<glyph unicode="&#xc9;" horiz-adv-x="2189" d="M610 275q39 -128 116 -128q0 -13 31 -13h24q147 38 147 147v18q0 111 -122 153q-32 6 -37 6q-159 -31 -159 -152v-31zM610 685q2 -13 12 -13h43q179 0 367 -195q116 -166 116 -300v-24q0 -9 18 -19h147l18 13q-5 157 -97 354q-152 243 -441 330q-122 21 -122 25l-12 -6 l-43 6l-6 -13v-158zM610 1045q0 -9 18 -18q7 0 7 6q277 0 550 -208q224 -214 275 -409q43 -124 43 -233v-36q1 -13 12 -13h153q8 0 18 19q0 195 -110 458q-61 139 -251 324q-314 275 -709 275l-6 -12v-153z" />
<glyph unicode="&#xca;" horiz-adv-x="2176" d="M661 758q0 -178 140 -219h12q18 22 18 42v19q-60 126 -60 176q0 106 115 238q127 91 232 91q214 0 280 -219q12 -57 12 -92v-12q0 -187 -134 -292q-17 -12 -79 -31q-122 0 -122 116q55 269 55 293q0 44 -55 67h-61q-91 -57 -91 -153v-36q0 -12 24 -104q-73 -329 -91 -469 v-61v-79h12q102 106 134 268q23 134 37 134q101 -67 146 -67h55q226 0 304 329l6 85q0 263 -237 366q-57 24 -201 42q-126 0 -262 -73q-189 -130 -189 -323v-36z" />
<glyph unicode="&#xcb;" horiz-adv-x="2173" d="M574 828q37 -55 43 -55h6l67 43h18q59 0 171 -470q67 -159 135 -159h24q204 0 513 525q37 100 37 159v25q0 117 -73 152l-61 19h-43q-104 -19 -159 -68q-79 -90 -98 -171q55 19 74 19q73 -6 73 -61v-31q-50 -181 -159 -257h-18q-53 0 -122 465q-45 71 -80 85h-73 q-61 -18 -275 -220z" />
<glyph unicode="&#xcc;" horiz-adv-x="2157" d="M664 997q17 -91 115 -91q80 0 110 91v6q0 94 -116 110q-71 0 -109 -79v-37zM676 249q2 -12 12 -12h170q12 0 12 12v554l-12 24h-170q-12 -2 -12 -12v-566zM980 249q2 -12 12 -12h170q12 0 12 12v310q15 128 104 128q103 0 103 -128v-310q2 -12 12 -12h183v383 q0 103 -98 189q-74 30 -91 30h-61q-71 -3 -139 -73h-13v61h-194v-578z" />
<glyph unicode="&#xcd;" horiz-adv-x="2150" d="M635 296q172 -79 298 -79q264 0 450 213q134 186 134 353v42q97 93 98 104v6q-35 -18 -98 -31l-6 13q57 33 85 91v6h-6q-90 -43 -109 -43h-18q-67 55 -122 61h-49q-102 0 -164 -115q-18 -30 -18 -79v-49q0 -12 -13 -12q-191 26 -328 134l-85 79h-7q0 -10 -24 -49v-73 q8 -62 85 -140v-6q-42 0 -85 24v-6q0 -117 152 -201l-12 -6h-30l-31 6v-12q70 -128 177 -128v-18q-120 -73 -238 -73h-36v-12z" />
<glyph unicode="&#xce;" horiz-adv-x="2144" d="M775 609h104q9 0 18 -19v-525l3 -37h217v568q2 13 12 13h177q12 0 31 201v12h-208q-12 0 -12 12v147q0 94 110 104h122v183q0 18 -128 18h-31q-211 0 -275 -158q-12 -33 -24 -98l6 -189q0 -9 -18 -19h-104v-213z" />
<glyph unicode="&#xcf;" horiz-adv-x="2170" d="M677 417l420 -237l420 237v481q-58 41 -414 244h-12q-414 -236 -414 -244v-97q20 -4 414 -231q16 0 256 140l6 -13v-176q-186 -125 -268 -152q-157 105 -250 140q-151 -85 -158 -85v-7zM933 843v13q6 16 164 97h6q148 -83 158 -97v-13q-158 -85 -170 -85q-111 67 -158 85 z" />
<glyph unicode="&#xd0;" horiz-adv-x="2147" d="M666 621q0 -219 188 -414q34 -24 67 -24q146 43 152 43h6q29 0 146 -37h37q95 0 194 231q6 11 6 24q-127 70 -127 207q0 104 103 183q-70 97 -176 97h-25q-17 0 -170 -49q-108 43 -158 43q-170 0 -231 -195q-12 -46 -12 -85v-24zM1067 943h18q177 52 177 207v18h-13 q-82 0 -164 -122l-18 -60v-43z" />
<glyph unicode="&#xd1;" horiz-adv-x="2147" d="M612 259q0 -91 159 -158q95 -18 146 -18q252 0 347 182q18 48 18 61v37q0 109 -189 237q-18 31 -18 49q0 36 122 146q36 57 36 103v49q-6 73 -91 158l12 7h55q12 0 91 42v12q-82 -6 -121 -6h-116l-37 6q-341 -41 -341 -255v-37q0 -141 177 -201h85l12 -6q-12 -22 -12 -49 q0 -42 37 -91l-213 -43q-159 -72 -159 -201v-24zM728 320q0 76 98 128q62 36 200 36q165 -95 165 -188q0 -135 -189 -159h-24q-250 24 -250 183zM801 971q18 147 140 147q91 0 159 -165q6 -59 18 -97q-27 -146 -116 -146h-43q-74 0 -133 134q-25 55 -25 127zM1313 655 q2 -12 12 -12h115q13 -2 13 -12v-128h67v128q2 12 12 12h128v67h-128q-12 0 -12 12v116q0 12 -13 12h-54v-128q0 -12 -13 -12h-127v-55z" />
<glyph unicode="&#xd2;" horiz-adv-x="2163" d="M530 887q0 -45 49 -153q-7 -63 -7 -73q0 -312 294 -464q83 -49 207 -49h86q117 -43 134 -43h67q137 0 251 165q30 94 30 104v73q0 49 -43 128v110q0 253 -256 428q-126 61 -257 61q-9 0 -73 -6q-86 49 -177 49q-185 0 -287 -208q-18 -73 -18 -122zM811 508v25q9 28 61 48 q41 0 85 -85q0 -47 110 -73l12 6l13 -6q90 0 134 85q0 93 -214 122q-189 47 -189 183q0 142 201 178q23 6 55 6h19q238 -25 238 -171q-14 -39 -49 -55h-18q-40 0 -98 97q-25 25 -92 31q-122 -17 -122 -73q0 -70 238 -110q171 -53 171 -177v-13q0 -169 -250 -201h-18 q-211 0 -275 134q-12 23 -12 49z" />
<glyph unicode="&#xd3;" horiz-adv-x="2131" d="M527 889q36 -451 147 -451q196 -55 298 -55q35 14 61 128v37h12v-18q0 -100 232 -116q67 -28 67 -146v-31q0 -47 -49 -73h-116q-49 0 -49 49v18q0 26 92 37v79h-43q-146 0 -146 -98q-6 -23 -6 -48v-19q0 -140 158 -140h128q109 0 153 116q73 228 73 432q0 530 -80 530 q-154 37 -329 37q-38 91 -134 91h-103q-69 0 -104 -67v-152q0 -33 -36 -49h-140q-86 0 -86 -91zM552 1005h6q39 12 55 12h128q12 0 12 12q0 19 -6 116q12 55 12 61h-6q-10 -2 -201 -201zM1240 688v6q0 49 61 55q49 0 61 -67v-6l-6 -12q-42 12 -73 12h-31q-12 0 -12 12z" />
<glyph unicode="&#xd4;" horiz-adv-x="2163" d="M558 660q0 -312 317 -475q47 -20 146 -37h92q187 0 365 195q110 165 110 287l-6 12l6 12l-6 12q0 6 6 6q0 225 -213 402q-154 98 -275 98h-54q-222 0 -403 -232q-85 -148 -85 -280zM601 617l18 13h158q9 0 43 -165q12 0 12 -43q-81 -30 -122 -54q-41 0 -97 188 q-6 11 -12 61zM601 691q0 125 97 249h12q39 -25 116 -54v-31q-28 -65 -42 -183l-13 -6h-152q-15 0 -18 25zM735 331q65 49 116 49q57 -89 140 -177v-12q-173 41 -256 140zM735 977v12q154 134 256 134l6 -12q-34 -13 -153 -183h-6q-92 26 -103 49zM826 684q27 189 55 189 q160 -20 171 -30v-159q0 -8 -19 -18h-189q-4 0 -18 18zM832 617q2 13 12 13h195q13 -2 13 -13v-146q0 -20 -177 -36q-43 93 -43 182zM899 392q8 12 122 24h12q9 0 19 -18v-171l-6 -12q-131 111 -147 177zM899 916q0 54 147 189l6 -12v-183q0 -9 -19 -18h-18q-116 10 -116 24 zM1088 221v183q2 12 12 12h19q128 -8 128 -30q-41 -85 -147 -177q-12 0 -12 12zM1088 465v152q2 13 12 13h208q12 -2 12 -13q-22 -160 -61 -182q-157 19 -171 30zM1088 684v153q0 20 183 36q49 -102 49 -189q0 -8 -18 -18h-195q-9 0 -19 18zM1088 904v189q2 12 12 12 q114 -102 153 -183q0 -21 -122 -30h-31q-12 0 -12 12zM1149 1117q6 0 6 6q100 -6 232 -109l30 -37q-74 -49 -122 -49q-48 91 -146 189zM1155 191v12q55 52 147 183q103 -39 103 -55v-6q-78 -93 -250 -134zM1314 435v6q28 59 48 189h171q12 -2 12 -13q0 -133 -109 -249 q-122 54 -122 67zM1320 886q86 36 116 54h12q97 -119 97 -249v-7q0 -8 -18 -18h-152q-21 0 -31 134q-24 46 -24 86z" />
<glyph unicode="&#xd5;" horiz-adv-x="2150" d="M597 153q6 0 6 -6l255 67h12q151 -61 237 -61h24q221 0 395 189q121 157 121 340q0 312 -315 480q-101 36 -177 36h-54q-324 0 -480 -364q-18 -95 -18 -116v-79q0 -90 67 -224q-43 -170 -73 -262zM688 633v73q0 214 249 371q100 36 194 36q275 0 407 -292q24 -73 24 -151 q0 -6 -6 -6q0 -7 6 -7q0 -199 -224 -364q-124 -55 -213 -55q-102 0 -243 67h-18l-116 -30h-12l-12 6q37 137 37 152q-73 131 -73 200zM858 797q0 -151 249 -322q106 -48 133 -48h37q109 26 109 91v30q-3 19 -121 61h-12l-67 -67q-125 49 -195 170v6q43 52 43 73 q-42 128 -73 128h-18q-85 -22 -85 -122z" />
<glyph unicode="&#xd6;" d="M476 642q0 -344 85 -390q66 -30 304 -30h548q191 0 225 85q36 91 36 292v85q0 285 -73 335q-55 36 -566 36t-511 -79q-39 -24 -48 -328v-6zM956 484v322h6q287 -149 298 -164l-285 -158h-19z" />
<glyph unicode="&#xd7;" horiz-adv-x="2163" d="M622 424q0 -151 128 -226q79 -43 128 -43h476q94 8 195 104q74 116 74 226q33 287 -202 293l12 73q0 231 -177 299q-57 18 -103 18h-80q-241 0 -317 -36q-134 -74 -134 -336v-372zM829 466v19q0 66 98 79h390q92 -20 92 -92q0 -50 -67 -85h-434q-79 20 -79 79zM853 857 v18q7 80 80 80h207q61 0 86 -61v-37q0 -37 -61 -73h-226q-86 18 -86 73z" />
<glyph unicode="&#xd8;" horiz-adv-x="2183" d="M690 504q8 -55 55 -55q67 0 67 86v226q-6 73 -61 73q-61 -6 -61 -55v-275zM836 431q0 -80 92 -80q24 0 24 -12v-122q0 -48 37 -67h49q37 21 37 55v128q0 9 18 18h55q9 0 18 -18v-134q0 -49 49 -49h19q46 0 55 61v128q0 14 85 18l25 37v428h-563v-391zM836 853h563v24 q0 105 -141 202q43 72 43 85h-6q-50 -79 -61 -79q-19 12 -92 24q-85 -6 -147 -24q-43 71 -43 79h-12q0 -22 37 -73v-12q-141 -103 -141 -226zM965 969v12q0 9 18 18h12q9 0 19 -18v-12q0 -19 -25 -19q-24 10 -24 19zM1227 969v18q2 12 13 12h18q9 0 18 -18v-12 q-6 -19 -36 -19zM1429 510q0 -47 61 -67q61 20 61 61v245q0 85 -67 85q-34 0 -55 -43v-281z" />
<glyph unicode="&#xd9;" horiz-adv-x="2173" d="M575 335q0 -250 238 -250h525q250 0 250 219v190q0 232 -226 232h-561q-226 0 -226 -245v-146zM691 579v37q2 12 12 12h177q9 0 18 -18v-13q0 -31 -18 -36h-55v-354q0 -12 -12 -12h-37q-18 6 -18 36v330h-49q-9 0 -18 18zM782 1232q74 -256 74 -281v-146h67v165l73 262 h-61q-37 -132 -37 -158h-18q0 25 -37 158h-61zM892 225v275q0 9 19 18h6q36 -4 36 -18v-238q0 -12 19 -12q27 11 30 24v226q0 9 18 18h25q9 0 18 -18v-293q0 -12 -12 -12h-31q-16 0 -18 30q-55 -36 -61 -36q-32 0 -49 36zM996 903q0 -110 86 -110q85 10 85 85v165 q0 62 -61 85h-49q-61 -30 -61 -67q0 -6 6 -6l-6 -30v-122zM1057 872v183q0 9 18 19h13q24 -9 24 -55v-129q0 -42 -37 -42zM1118 213v403q2 12 12 12h31q9 0 18 -18v-116h6l31 24h18q55 0 55 -85v-177q-6 -67 -49 -67q-20 0 -55 24l-24 -18h-25q-8 0 -18 18zM1179 262 q0 -9 18 -19h19q12 0 12 13v177l-6 30h-31q-12 -2 -12 -12v-189zM1222 823q0 -8 18 -18h49q3 0 31 24q12 0 12 -24h42q13 0 13 12v299h-55q0 -12 -6 -12l6 -30v-159q0 -6 -6 -6l6 -12v-7q-16 -30 -25 -30h-18q-12 0 -12 12v244h-55v-293zM1332 323l6 43l-6 36q0 122 97 122 q68 0 80 -91v-67q0 -9 -19 -19h-91q0 -6 -6 -18q6 -42 6 -67v-12l30 -7q16 0 25 68h36q9 0 19 -19v-12q-14 -91 -73 -91h-31q-73 0 -73 134zM1399 402q6 0 6 -6q12 6 18 6q12 -6 19 -6l6 12v19q0 31 -19 36h-18q-12 0 -12 -61z" />
<glyph unicode="&#xda;" horiz-adv-x="2144" d="M512 478q0 -260 165 -347q74 -42 476 -31q308 0 354 67q104 83 104 275v409q0 242 -171 317l-76 25l-77 6h-445q-238 0 -318 -232q-12 -71 -12 -171v-318zM610 582v135q0 305 49 305q49 79 201 79h427q232 0 232 -244v-433q-31 -226 -189 -226h-177q-124 0 -262 -6 q-230 0 -269 146q-12 81 -12 244zM781 643q0 -197 226 -274h122q219 79 219 280v13q0 114 -116 213q-79 55 -164 55h-6q-189 0 -263 -195q-10 -13 -18 -92zM878 643q22 190 184 190h6q132 0 177 -141q6 -8 6 -43q-29 -189 -183 -189q-122 0 -177 122q-8 10 -13 61zM1293 936 q27 -61 68 -61t67 61q-14 74 -74 74q-61 -19 -61 -74z" />
<glyph unicode="&#xdb;" horiz-adv-x="2154" d="M460 664q0 -52 61 -116v-18q0 -306 457 -378q18 -6 85 -6q395 0 536 274q17 120 25 140q55 50 55 116q0 90 -110 134h-49q-16 0 -79 -31q-92 67 -341 104v6q73 216 85 219h6q165 -42 189 -55q23 -103 92 -103h42q92 15 92 116q-19 103 -104 103h-18q-53 0 -104 -67h-6 l-219 55q-92 -257 -110 -280q-178 0 -353 -98q-52 31 -73 31h-37q-122 -33 -122 -122v-24zM503 639v61q37 73 97 73q46 -7 49 -24q-73 -61 -116 -146h-6zM808 566v18q0 45 60 80h37q58 0 79 -86v-6q-21 -79 -73 -79h-36q-51 0 -67 73zM862 347v18q0 9 19 18h6 q62 -49 128 -54h109q37 0 134 54h6q0 -3 13 -18v-18q-40 -48 -159 -73h-91q-84 0 -165 73zM1167 566v18q20 80 79 80h31q67 -30 67 -92q0 -59 -73 -79h-31q-73 17 -73 73zM1423 1035v31q0 56 79 67q53 0 61 -73v-13q0 -54 -73 -61q-39 0 -67 49zM1490 749q0 16 49 24 q97 -23 97 -91v-37q-23 -42 -30 -42q-47 77 -116 146z" />
<glyph unicode="&#xdc;" horiz-adv-x="2141" d="M448 658q0 -197 213 -268q40 0 61 -6q191 0 268 189q13 40 13 55v67q0 115 -147 213q-76 31 -103 31h-67q-65 -8 -146 -67q-92 -88 -92 -214zM1124 658q0 -165 183 -262l104 -18q77 0 176 67q98 102 98 189v55q0 143 -183 238q-84 18 -97 18q-138 0 -238 -134 q-43 -86 -43 -153z" />
<glyph unicode="&#xdd;" horiz-adv-x="2150" d="M600 310q206 -237 482 -237q242 0 408 158v18q0 13 -12 13q-174 -98 -360 -98h-42q-223 0 -469 158h-7v-12zM765 530q34 -195 177 -195h91q63 0 164 91q78 -91 110 -91q122 102 122 121q-61 81 -61 165v231q0 207 -116 238q-76 37 -158 37q-209 0 -286 -159 q-19 -44 -19 -73q31 -24 171 -24q30 103 103 103h25q85 0 85 -79v-61q0 -10 -244 -49q-164 -86 -164 -219v-36zM966 572q0 124 177 140h18q12 -2 12 -12v-97q-41 -134 -122 -134q-70 0 -85 103zM1398 298l7 -12q45 12 85 12q42 -8 42 -24q-6 -42 -30 -116h12q67 59 67 158 q-13 10 -55 19l-12 -6h-6q-6 0 -6 6q-104 -15 -104 -37z" />
<glyph unicode="&#xde;" horiz-adv-x="2163" d="M498 295l18 -12h294q9 0 19 18v43q0 149 -141 190q-33 6 -37 6q-100 0 -147 -134q0 -60 -6 -62l6 -12zM516 724q0 -147 147 -147q130 0 147 160q0 129 -159 153q-120 0 -135 -153v-13zM859 332q0 -33 31 -49h325q12 0 12 12v80q-26 190 -190 190q-141 0 -178 -196v-37z M878 773q0 -118 122 -159h49q6 0 6 -6q160 33 160 190q0 80 -104 141q-53 18 -74 18q-133 0 -159 -165v-19zM1270 295q2 -12 12 -12h386l6 31v43q0 179 -153 233q-32 6 -61 6q-138 0 -184 -160q-6 -32 -6 -73v-68zM1282 835q27 -190 178 -190q177 0 196 202 q-29 178 -178 178q0 6 -6 6l-12 -6q-6 0 -6 6q-145 0 -172 -196z" />
<glyph unicode="&#xdf;" horiz-adv-x="2141" d="M321 518q6 -76 6 -79h12q6 61 6 91q0 13 -6 67h-12q-6 -52 -6 -79zM370 512q12 -65 12 -85v-37h12v6q12 87 12 122v6q0 32 -12 128q-12 -2 -12 -12v-18zM431 512q12 -106 12 -146h12v6q12 96 12 128v36q-12 135 -12 141h-12v-6q-12 -141 -12 -159zM492 506q6 -113 6 -140 l12 -7h6q12 149 12 165q-12 147 -12 159h-6q-12 -2 -12 -12q0 -16 -6 -165zM553 494q6 -107 6 -135l12 -6h6l12 165l-12 159h-6q-12 -2 -12 -12q-6 -149 -6 -171zM608 518q10 -165 24 -165h6l12 177q-6 171 -12 244h-6q-12 0 -12 -18q0 -69 -12 -238zM669 469 q9 -122 24 -122q2 12 12 12q0 43 6 159q-6 219 -6 305l-12 6h-12v-24q0 -34 -6 -85q0 -7 6 -7l-6 -30v-134q0 -6 -6 -6l6 -13v-18q0 -6 -6 -6l6 -12v-6q0 -19 -6 -19zM730 530q7 -183 24 -183l12 6q6 113 6 165v31q0 93 -6 305l-12 6l-12 -6q-6 -122 -6 -183v-92 q0 -25 -6 -49zM797 396q6 -49 18 -49h6q0 10 12 25q0 71 7 146q-7 147 -7 330q-9 24 -18 24l-12 -6q-6 -221 -6 -336v-91l6 -43h-6zM858 506q0 -23 6 -153l12 -6h12q5 67 13 67q0 6 -6 6l6 31v12q0 263 -13 403h-24zM919 530q6 -64 6 -171q3 0 18 -12h6q13 26 13 31 q0 87 6 140q-6 109 -6 238v37q0 67 -19 67q-8 0 -18 -18v-68q0 -130 -6 -244zM986 384q4 -37 18 -37h6l13 6q6 122 6 183v86q0 64 -6 195h6l-6 12v86h-31l-6 -31v-500zM1047 506q0 -159 18 -159h7q3 0 18 12q0 52 6 165q-6 283 -6 415l-18 12q-12 -6 -19 -6q-6 -244 -6 -366 v-73zM1108 378q8 -31 18 -31h525q177 29 177 196q-38 170 -171 170h-18q-15 0 -67 -12q-8 105 -116 226q-110 73 -207 73q-135 -12 -135 -36l-6 -13q6 -248 6 -372v-134q0 -26 -6 -67z" />
<glyph unicode="&#xe0;" horiz-adv-x="2144" d="M396 963q8 -79 78 -79v-6q230 60 431 60h12q389 0 715 -169q24 -6 43 -6q61 0 72 97q0 116 -533 230q-158 18 -315 24l-12 -6q-6 0 -6 6l-31 -6h-30q-418 -24 -418 -115q-6 -10 -6 -30zM456 666q12 -73 61 -73h36q232 48 352 48q294 0 606 -163q24 -6 42 -6q49 0 61 66 q-12 119 -449 218q-65 19 -291 31q-412 -31 -412 -103q0 -7 -6 -18zM499 375q12 -55 30 -55h12q249 36 340 36h18q304 0 521 -139h18q55 8 55 54v7q0 77 -352 175q-145 19 -188 19h-115q-339 -26 -339 -79v-18z" />
<glyph unicode="&#xe1;" horiz-adv-x="2157" d="M479 744q0 -349 245 -647q98 -79 201 -79h55q189 0 464 122q197 116 213 195q16 8 37 104v140q0 247 -207 580q-115 101 -226 110h-55q-266 0 -580 -183q-147 -122 -147 -263v-79zM699 701q0 41 122 73l-30 104v6q0 51 67 61q47 0 73 -110q9 -18 12 -18l159 55 q-24 80 -24 86v48q22 37 61 37q50 0 79 -122q6 0 6 -6q66 24 104 30q55 -18 55 -67q0 -52 -122 -85v-12q12 -13 49 -147q17 0 109 31q55 -18 55 -80q0 -36 -122 -79q19 -37 31 -98v-6q0 -55 -73 -61q-38 0 -74 128h-12q-22 -12 -152 -55l24 -85v-49q-21 -37 -61 -37 q-49 0 -79 129h-19q-18 -17 -91 -31q-55 19 -55 67q0 50 122 86v12q-46 139 -61 152q0 -14 -92 -30h-18q-43 25 -43 73zM974 695q12 -12 55 -159h6q12 0 165 55v6q-13 16 -55 153l-12 6q-1 -9 -159 -61z" />
<glyph unicode="&#xe2;" d="M484 389q0 -122 256 -190q22 0 55 -6q68 42 68 86q-96 43 -141 91v6h18q101 -61 294 -91h165q157 29 293 91v-6q-75 -73 -159 -91v-6q58 -80 86 -80q142 0 287 128q0 10 12 25v104q0 159 -134 488q-133 129 -312 129l-6 -12q179 -69 208 -104v-6q-202 79 -306 79h-128 q-129 -5 -330 -79q16 34 189 97q0 8 37 13v18q-126 0 -293 -110q-141 -273 -159 -574zM795 578q37 104 104 104h12q83 0 104 -116q-15 -116 -104 -116h-18q-82 0 -98 128zM1186 572q18 110 104 110h6q83 0 104 -116v-6q-17 -110 -104 -110h-6q-104 0 -104 122z" />
<glyph unicode="&#xe3;" horiz-adv-x="2167" d="M660 240l19 -12h213l13 -6q-7 -9 -7 -110q11 -6 25 -6h165q40 305 67 305q10 6 24 6h104q212 0 293 190q24 70 24 122v42q0 69 -97 141q12 46 12 85q0 134 -159 196q-70 24 -342 24q-207 0 -207 -31q-128 -789 -147 -946z" />
<glyph unicode="&#xe4;" horiz-adv-x="2173" d="M520 354q0 -43 158 -79q18 -74 37 -74q8 0 98 13h12q49 0 189 -92q30 -18 79 -18h37q78 0 213 97q6 0 49 13h12l110 -13l43 80q146 26 146 61v24q-3 13 -116 49q-136 113 -146 195q7 29 122 73q24 27 24 31v6q0 55 -67 55l-67 -18h-6q-12 0 -12 12v171q0 197 -250 274 q-26 0 -67 6q-235 0 -318 -213q-12 -40 -12 -55v-183q0 -12 -12 -12h-6q-64 18 -67 18q-57 0 -61 -49v-18q1 -25 122 -67l18 -25v-24q-82 -160 -183 -189q-79 -25 -79 -49z" />
<glyph unicode="&#xe5;" horiz-adv-x="2176" d="M487 639q0 -340 334 -528q129 -55 219 -55h67q250 0 449 249q104 155 104 322v12q0 365 -353 541q-120 48 -237 48q-334 0 -528 -334q-55 -142 -55 -255zM572 645q15 13 25 13q240 0 486 66q20 -10 42 -79q-168 -58 -322 -206q-91 -117 -103 -122h-6q-122 139 -122 328z M591 755v6q0 96 151 255q88 73 122 73q176 -249 176 -286q-225 -60 -443 -60zM773 263q135 206 382 291h7q72 -168 109 -370q-77 -43 -158 -43h-79q-122 0 -255 97q-6 11 -6 25zM967 1131q80 12 97 12q203 0 334 -127v-12q-174 -164 -249 -164q-6 0 -158 243q-15 0 -24 48z M1192 761q134 55 267 188h6q110 -128 110 -298q-7 0 -7 -6q-95 19 -224 25q-12 -6 -18 -6l-13 6q-41 -6 -66 -6h-13q-22 0 -42 97zM1259 579q36 12 91 12q218 -8 218 -43q-30 -156 -164 -291q-12 0 -36 -25h-6q-11 2 -73 268q-8 0 -30 79z" />
<glyph unicode="&#xe6;" horiz-adv-x="2154" d="M502 501q0 -79 67 -104l487 -322h30q528 345 548 371q6 11 6 24v359q-38 47 -414 286q-132 98 -158 98q-513 -325 -560 -378l-6 -36v-298zM600 574v134q2 12 12 12q89 -58 103 -79q0 -6 -109 -79zM642 470q0 6 158 110h19q206 -129 206 -158v-195q0 -12 -12 -12 q-361 239 -371 255zM642 817q354 250 383 250v-195q0 -44 -206 -164q0 -6 -6 -6h-7q-164 106 -164 115zM904 641q36 42 170 115q139 -84 164 -115q-10 -16 -158 -110h-18q-157 100 -158 110zM1117 233v171q0 57 103 103q0 5 103 73h19q158 -104 158 -110q-13 -20 -274 -188 q-81 -61 -103 -61zM1117 866v201h18q362 -241 365 -250q-21 -25 -164 -115h-6q-213 133 -213 164zM1427 641q2 11 103 79q12 -2 12 -12v-134q0 -12 -12 -12z" />
<glyph unicode="&#xe7;" horiz-adv-x="2183" d="M535 575q299 -207 325 -215l228 190h6l208 -184q130 80 332 221v6q-12 0 -209 166v6l209 184q-301 221 -332 221q0 -9 -221 -190h-6q-214 190 -227 190l-313 -215v-6l209 -178zM756 771q33 27 325 203q301 -185 332 -215l-319 -203h-6q-330 205 -332 215zM768 304 q0 -6 320 -202h6q293 199 307 221v49h-6l-86 -55h-7q-163 150 -214 190q-178 -153 -234 -190l-86 61v-74z" />
<glyph unicode="&#xe8;" horiz-adv-x="2163" d="M442 616q0 -355 353 -567q155 -67 305 -67q152 0 341 110q188 122 268 390q12 82 12 103v74q0 231 -213 444q-198 165 -426 165q-265 0 -482 -220q-158 -203 -158 -396v-36zM503 598v42q0 257 250 463q153 98 335 98q363 0 536 -372q36 -97 36 -207q0 -337 -329 -518 q-134 -61 -249 -61q-242 0 -445 207q-134 195 -134 348zM722 616l6 -31h31l73 116v6h-98q-12 -2 -12 -12v-79zM728 360q70 67 86 67v6q0 15 -67 43q-19 -105 -19 -116zM765 494q12 -30 67 -30q191 324 219 389q-21 43 -55 43q-31 -41 -231 -390v-12zM954 585h243v6 q-53 116 -79 116h-85q-24 -13 -79 -116v-6zM1045 987q52 -123 256 -493h24q24 18 37 18v31q-270 437 -299 463h-6q-12 -2 -12 -12v-7zM1307 457q1 -32 67 -60q0 -11 12 -37q49 23 49 85q-22 61 -55 61q-44 -18 -73 -49zM1307 701q64 -108 79 -116h55v110q0 12 -12 12h-122 v-6z" />
<glyph unicode="&#xe9;" horiz-adv-x="2186" d="M724 237q0 -33 24 -43h25q200 193 426 427v6q-253 261 -445 445q-16 -4 -30 -31v-804zM803 1090q254 -261 445 -445l134 128v12q-516 288 -573 311h-6v-6zM822 152h12q514 281 542 304l-122 122h-6q-201 -193 -426 -426zM1303 609q124 -122 134 -122q195 96 195 128v18 q-23 28 -189 116h-6q-134 -125 -134 -140z" />
<glyph unicode="&#xea;" horiz-adv-x="2176" d="M465 677l12 -6h452q134 0 134 91q6 0 6 19v201h-305q-299 -276 -299 -305zM758 347q5 -13 293 -293h18v208q0 41 6 73q-6 32 -6 73v141q-13 103 -97 103q0 6 -19 6h-195v-311zM1082 347h299q6 0 6 -6q16 0 299 293v12q0 12 -12 12h-464q-110 -20 -110 -67 q-12 -42 -12 -73v-140zM1088 805q11 -109 42 -110l55 -24h202l12 6q0 6 -6 6q6 107 6 134q-6 157 -6 177q-280 280 -299 281l-6 -31v-439z" />
<glyph unicode="&#xeb;" horiz-adv-x="2173" d="M759 147h188q18 11 85 140l12 6h389l6 12v213h-255q-12 0 -12 12q267 448 267 474v85q0 12 -12 12h-177q-20 -18 -97 -152h-394v-220l224 -5l31 6l6 -12v-6q-261 -442 -261 -461v-104z" />
<glyph unicode="&#xec;" d="M465 642q0 -131 165 -153q12 0 98 25q330 -94 330 -116q65 -129 153 -129h49q107 0 159 147v55q123 123 201 159q74 78 74 153q0 138 -153 201q-19 0 -43 6l-12 -6l-12 6q-110 0 -178 -128q-17 -118 -67 -232q-73 -11 -116 -49h-12q-330 95 -330 128q-46 98 -122 98h-49 q-88 0 -135 -128v-37zM514 642v12q0 84 116 110q43 0 86 -49l-12 -6q-41 19 -55 19q-86 -14 -86 -86v-18q0 -57 74 -67v-19h-19q-74 0 -104 104zM1101 379l6 13q82 -31 110 -31q79 21 79 79v19q0 62 -91 79v19h6q122 -33 122 -123q-29 -122 -110 -122h-30q-50 0 -92 67z M1327 764v37q23 118 134 140h49q99 0 135 -152q0 -110 -116 -159h-62q-98 0 -140 134zM1370 777q26 -104 97 -104h49q55 24 80 73v73q-42 80 -98 80h-24q-76 0 -104 -110v-12z" />
<glyph unicode="&#xed;" horiz-adv-x="2154" d="M663 758q0 -189 401 -686h6q209 235 340 461q47 100 73 195v48q0 240 -261 365q-84 24 -158 24q-269 0 -383 -279q-18 -46 -18 -128zM821 716v79q0 69 103 163q55 42 122 49h48q140 0 225 -182l6 -73q0 -171 -188 -243q-24 -6 -49 -6h-18q-190 0 -249 213z" />
<glyph unicode="&#xee;" horiz-adv-x="2167" d="M535 328q0 -23 336 -184q12 6 18 6v746l-342 171q-12 -2 -12 -12v-727zM926 505q0 -44 134 -92q119 -67 184 -92q-281 454 -306 501h-12v-317zM1042 719q217 -351 226 -373q5 1 342 550q-6 0 -342 171h-12q-25 -19 -214 -342v-6zM1286 303q7 -12 306 -159q12 6 18 6v666 q-13 -7 -324 -513z" />
<glyph unicode="&#xef;" horiz-adv-x="2154" d="M771 210q4 -73 55 -73h487q33 0 49 30v950q-14 37 -85 37h-415q-91 0 -91 -73v-841q0 -14 6 -24q0 -6 -6 -6zM820 319v731q2 13 12 13h475q12 -2 12 -13v-731q0 -12 -12 -12h-475q-12 0 -12 12zM1033 228q8 25 30 36h13q22 -11 30 -36q0 -37 -43 -37q-30 10 -30 37z" />
<glyph unicode="&#xf0;" horiz-adv-x="2167" d="M606 128h6q11 -6 25 -6h330l43 6v196q0 60 -110 110l-6 12v6q16 30 24 31q5 0 73 -49h19v165q2 12 12 12h92q8 0 18 -18v-73q0 -7 -6 -7q6 -18 12 -18q61 37 79 37q9 0 19 -19v-12q-9 -20 -104 -67q0 -49 -6 -49q6 -12 6 -18q15 0 159 79h12q18 -6 18 -37 q-177 -91 -195 -116l6 -12v-153l30 -6h386q12 0 12 12l-477 1137h-6q-428 -1022 -471 -1143z" />
<glyph unicode="&#xf1;" horiz-adv-x="2183" d="M663 225q36 -40 256 -189q0 -12 43 -12q154 99 682 408l6 12v256q0 6 6 6q0 49 -146 73q-78 31 -451 140h-18q107 -280 152 -280q133 -52 134 -67q-419 -232 -603 -317v7l219 207v682q-27 34 -280 91v-1017z" />
<glyph unicode="&#xf2;" horiz-adv-x="2098" d="M510 958q6 -10 6 -30q157 0 200 -97q201 -232 201 -267v-146q-1 -8 -31 -24h-48q-14 0 -24 -6l-13 6q-30 -8 -30 -18v-19q2 -12 12 -12h413l30 6v43h-115q-36 0 -36 91v67q0 79 285 273q127 12 127 61h-394v-25q0 -18 127 -36v-6q-40 -57 -188 -170q-6 0 -200 267 q2 12 12 12h30q97 0 97 18v19l-6 12l-12 -6h-407l-30 6q0 -7 -6 -19zM1402 382l61 -6q0 9 12 54q-32 12 -66 12l-7 -12v-48zM1421 479h36q21 0 73 261h-6l-103 18v-279z" />
<glyph unicode="&#xf3;" horiz-adv-x="2180" d="M662 1021q69 -487 91 -487q145 -97 311 -97h79q13 0 24 6q6 0 6 -6q310 41 310 182l61 390v18q0 99 -359 146q-6 0 -6 -6l-61 6h-30l-61 -6v6q-365 -45 -365 -146v-6zM772 437q30 -225 79 -225q103 -61 207 -61h91q255 23 255 146l31 134q-9 24 -18 24q-139 -91 -262 -91 h-91q-127 0 -268 91h-6q-9 0 -18 -18zM826 1033v12q0 37 189 55h189q182 -22 182 -55v-6q-20 -53 -286 -61q-244 8 -274 55zM960 686q43 128 122 128h43q95 0 121 -146v-6q-44 -128 -140 -128q-122 0 -146 152zM1033 680q17 -73 73 -73q33 0 67 55v24q-14 61 -61 61h-18 q-46 0 -61 -67z" />
<glyph unicode="&#xf4;" horiz-adv-x="2150" d="M460 654q265 -83 284 -103q79 -277 97 -295q24 0 24 -6q19 0 151 132h12l247 -181h42q30 0 139 580q37 143 55 253v6q-21 36 -31 36q-46 0 -374 -132q-496 -187 -634 -248l-12 -18v-24z" />
<glyph unicode="&#xf5;" horiz-adv-x="1010" />
<glyph unicode="&#xf6;" horiz-adv-x="1010" />
<glyph unicode="&#xf7;" horiz-adv-x="1014" />
<glyph unicode="&#xf8;" horiz-adv-x="1010" />
<glyph unicode="&#xf9;" horiz-adv-x="1059" />
<glyph unicode="&#xfa;" horiz-adv-x="1059" />
<glyph unicode="&#xfb;" horiz-adv-x="1059" />
<glyph unicode="&#xfc;" horiz-adv-x="1059" />
<glyph unicode="&#xfd;" horiz-adv-x="868" />
<glyph unicode="&#xfe;" horiz-adv-x="1010" />
<glyph unicode="&#xff;" horiz-adv-x="868" />
<glyph unicode="&#x2c6;" horiz-adv-x="1024" />
<glyph unicode="&#x2dc;" horiz-adv-x="1024" />
<glyph unicode="&#x2000;" horiz-adv-x="846" />
<glyph unicode="&#x2001;" horiz-adv-x="1693" />
<glyph unicode="&#x2002;" horiz-adv-x="846" />
<glyph unicode="&#x2003;" horiz-adv-x="1693" />
<glyph unicode="&#x2004;" horiz-adv-x="564" />
<glyph unicode="&#x2005;" horiz-adv-x="423" />
<glyph unicode="&#x2006;" horiz-adv-x="282" />
<glyph unicode="&#x2007;" horiz-adv-x="282" />
<glyph unicode="&#x2008;" horiz-adv-x="211" />
<glyph unicode="&#x2009;" horiz-adv-x="338" />
<glyph unicode="&#x200a;" horiz-adv-x="94" />
<glyph unicode="&#x2010;" horiz-adv-x="670" />
<glyph unicode="&#x2011;" horiz-adv-x="670" />
<glyph unicode="&#x2012;" horiz-adv-x="670" />
<glyph unicode="&#x2013;" horiz-adv-x="1108" />
<glyph unicode="&#x2014;" horiz-adv-x="2048" />
<glyph unicode="&#x2018;" horiz-adv-x="557" />
<glyph unicode="&#x2019;" horiz-adv-x="557" />
<glyph unicode="&#x201a;" horiz-adv-x="557" />
<glyph unicode="&#x201c;" horiz-adv-x="910" />
<glyph unicode="&#x201d;" horiz-adv-x="910" />
<glyph unicode="&#x201e;" horiz-adv-x="910" />
<glyph unicode="&#x2022;" horiz-adv-x="1024" />
<glyph unicode="&#x2026;" horiz-adv-x="2048" />
<glyph unicode="&#x202f;" horiz-adv-x="338" />
<glyph unicode="&#x2039;" horiz-adv-x="631" />
<glyph unicode="&#x203a;" horiz-adv-x="631" />
<glyph unicode="&#x205f;" horiz-adv-x="423" />
<glyph unicode="&#x20ac;" horiz-adv-x="1440" d="M70 -167l10 3q6 0 24 -10v-1q0 -10 -6 -54q34 39 44 40q5 0 7 -27l7 -38q25 41 32 41q6 -4 15 -19v-3q0 -2 -17 -25q-18 -31 -33 -66q-1 -8 -7 -8q-9 0 -21 66q-2 7 -2 12q-19 -18 -42 -55l-3 -2q-5 0 -5 9q0 7 -2 90v8v1v5q0 9 -1 33zM114 916v3q0 13 5 13h2q3 -1 3 -3 q-1 -12 -1 -13t8 -9v-1q0 -5 -5 -5q-12 5 -12 15zM137 315l3 95v10q0 16 -1 47q1 3 5 3q17 0 55 -26q13 -12 13 -27q0 -28 -26 -39q-7 -1 -7 -3q31 -15 31 -35q0 -28 -31 -40h-11q-16 0 -29 11zM156 921v4q0 21 9 28h4q3 -2 3 -5q-7 -8 -7 -27q1 -13 12 -29v-1q-1 -4 -5 -4 q-16 13 -16 34zM186 1479q2 4 21 14q44 37 94 51q24 9 26 14q0 2 4 2q7 0 15 -30q6 -16 14 -29v-4q0 -8 -54 -34l-43 -24v-19q0 -26 5 -51q9 0 72 24h6q10 0 10 -27q3 -16 3 -25q0 -5 -35 -27q-24 -15 -39 -15q-7 -4 -7 -30v-96q0 -11 7 -44v-16q-5 -9 -49 -30q-4 1 -4 6v2 q4 5 6 13q-8 0 -9 32q-11 111 -26 232q-12 65 -12 98zM198 912v6q0 25 11 53l1 1h2q5 0 5 -4q-10 -31 -10 -55q0 -23 10 -38q-1 -4 -5 -4q-11 0 -14 41zM210 -302q0 39 23 62q0 4 9 5h2q2 0 4 -8q13 -9 13 -25v-10q0 -34 -23 -65q-4 -4 -7 -4h-3q-15 0 -18 42v3zM228 392 q0 39 17 68q10 13 16 14h2q9 -10 19 -42v-5q0 -5 -13 -9q-5 -4 -5 -17v-10q0 -21 17 -25h8q6 -1 6 -6v-26q-8 -8 -19 -8q-31 0 -43 37q-5 12 -5 29zM234 916q0 12 8 12h3q6 0 16 -10q4 -4 13 -17q3 20 11 20h2q5 0 8 -19h1q3 8 9 8q8 0 13 -23q10 13 16 13q13 -2 13 -18v-4 q0 -19 -15 -48q-10 -12 -13 -13q10 -68 10 -113v-34q0 -10 -2 -27h1q25 -2 46 -2q15 0 58 1q-5 8 -5 16q-7 0 -15 33v4q0 8 6 26q-8 16 -8 25v5q0 9 6 17q6 31 10 36v8v1q0 17 9 22q8 1 8 4q-17 31 -17 81v31q0 26 16 70q3 15 5 102q5 47 12 71q21 54 33 77q21 29 25 31 q4 3 19 24q32 28 35 28q-3 4 -5 14q0 16 17 28q9 15 27 21q50 17 71 22q63 6 73 6h7q53 0 90 -20q23 -10 42 -29q23 -26 25 -42q1 -1 1 -4v-6l-1 -5q6 -6 25 -20q8 -12 30 -32q10 -17 37 -55q26 -51 26 -73q5 -19 5 -71l-3 -47q-6 -5 -6 -8l1 -5h1q12 11 23 11q18 0 33 -21 q5 -12 5 -23q0 -30 -16 -51q-2 -9 -6 -51q-5 -14 -12 -20h-2q-4 0 -4 3q-1 0 -6 -6q0 -9 1 -9v-5v-21l3 -23q0 -10 -3 -21q28 -88 28 -110v-5q0 -80 -12 -141q-14 -94 -14 -161q-1 0 -2 -22h1q3 2 37 3q0 1 14 2q5 0 10 -24q8 -20 8 -38v-9q-1 -19 -7 -19l-28 -6 q-29 -7 -68 -15v-1q1 -23 1 -33l-8 -62q-19 -79 -19 -82q-4 -28 -11 -107q26 -3 45 -4q15 0 67 10q10 1 33 2q0 11 23 11q1 0 17 2h2q17 -1 17 -8q7 -5 21 -56q6 -15 6 -26q0 -22 -15 -28q-5 -2 -9 -2h-5q-20 0 -36 55q-8 -7 -47 -16q-82 -17 -109 -28q-29 -10 -53 -24 q-33 -22 -40 -22q-14 0 -33 34q-21 31 -67 92q-68 92 -85 110q-10 11 -12 11q-48 -38 -113 -92q-34 -25 -70 -46l-78 -65q-36 -34 -46 -55q-6 -7 -15 -25l-19 -31h-4q-31 5 -53 17q-52 29 -52 60q0 21 19 21q30 0 53 -13h3q6 0 13 13q14 13 27 59q18 52 26 76q11 29 46 115 q14 27 30 98q2 14 5 20q-4 0 -6 19q-4 17 -15 93q-7 38 -26 98q-6 0 -6 7v3h3q-7 28 -18 93l-4 10h-45q-77 0 -89 12q-4 6 -13 72q-8 48 -8 66v10q0 36 13 117q1 0 1 1q-16 26 -19 53q-6 20 -6 36zM244 914q0 -30 17 -72q7 -8 7 -11l-1 -1q19 3 31 3q15 0 20 -6q0 1 7 10 q13 25 13 43q-1 10 -4 10q-10 -7 -14 -22q-3 -2 -5 -2q-6 0 -6 18l-4 15q-2 0 -7 -21l-2 -2h-2q-5 0 -7 16q0 2 -2 14q-2 0 -3 -14v-17q0 -1 -3 -3h-1q-6 0 -9 17q-12 25 -25 30v-5zM259 -160v-4q0 -31 70 -60q7 -3 24 -6q20 30 22 37q-17 10 -47 22q-2 3 -3 7l-1 -1 q-2 0 -25 10q-12 3 -23 3h-12q-5 -2 -5 -8zM268 593q3 -27 7 -27q12 -8 98 -8h14q11 0 16 4q5 0 9 -6q-2 -5 -2 -6q6 -16 16 -83q5 -21 7 -21h2q42 0 164 11v1q0 3 2 12q-12 0 -23 15q-5 11 -6 11h-1q-2 0 -5 -1q-7 0 -25 16q-4 3 -12 12q-21 3 -31 12q-14 14 -14 26v2 q0 4 4 10v1l-16 13q-7 8 -7 15v1q-147 -3 -195 -9q0 -1 -2 -1zM297 -342q0 40 11 69q-3 0 -3 5q5 7 10 7q7 0 19 -12q15 -20 15 -32v-5q0 -23 -21 -52q-8 -8 -14 -8h-3q-12 0 -14 21v7zM306 457v3q0 6 6 6h3q21 0 30 -12q6 -29 13 -46l5 -8v14q0 15 -3 47q0 5 17 5 q8 0 9 -18q6 -49 20 -98q1 0 3 -10q0 -4 -19 -9q0 -2 -7 -3q-4 0 -13 17q-10 12 -12 13v-1q0 -4 3 -36q-3 -2 -6 -2h-19l-8 -2h-1q-4 0 -6 4q-5 0 -5 17q-5 119 -10 119zM333 962q2 7 7 7q9 -2 27 -28q13 -22 13 -48v-1q0 -20 -8 -20h-1q-1 0 -3 3v3q3 4 3 16q0 35 -30 63 q-2 -1 -4 -1q-3 0 -4 6zM384 957q0 4 5 4q4 0 8 -18q5 -7 5 -16v-2q-1 -6 -6 -6h-2q-3 1 -3 5l2 4q0 2 -7 20q-2 7 -2 9zM390 -343q0 44 4 94h1q-4 2 -4 3v2q2 3 4 3q19 -1 54 -33q11 -16 11 -27v-7q0 -28 -18 -47q-18 -11 -36 -11l-9 -3q-7 6 -7 24v2zM426 1490v26 q0 70 35 95q35 38 52 38h25q36 0 54 -22q19 -11 28 -41q4 -10 4 -20v-13q-3 -35 -5 -52q-2 -15 -29 -74q-5 -8 -26 -28q-8 -8 -36 -14q-9 -4 -13 -4h-3q-21 0 -42 13q-15 5 -25 21l-12 32q-7 15 -7 43zM435 951q0 -87 15 -104q11 -32 15 -40q1 -2 5 -2l2 -3v-2l-2 -5 q21 -13 21 -24q7 -12 24 -34l14 -18l26 -15q1 0 9 -6q5 24 14 33q3 0 4 14q5 10 13 14q5 0 12 18q1 4 11 17q5 8 5 25v7q0 12 -1 30q0 9 5 9q3 0 5 -4v-5v-32q0 -20 -5 -31q14 17 27 23q3 2 10 3v2q-1 -1 -2 -1q-7 6 -23 13q-6 7 -6 10v4q0 10 14 14h6q10 -4 10 -7v-2 q0 -1 -3 -3q-4 0 -8 3h-2q-8 0 -8 -7q1 -3 2 -3q4 4 8 4t11 -7q9 -6 19 -6h2q6 0 33 16q2 2 8 3q5 0 8 -8q10 4 10 13q-1 8 -10 20q-1 2 -8 24q-8 15 -8 24v1q0 4 4 6q-1 5 -1 11l1 3q-1 35 -3 57q-6 25 -6 32q0 36 12 56q4 12 29 42q33 29 45 29q0 1 55 3q81 -1 81 -7 q22 -7 22 -25q-5 -16 -14 -16v-5q0 -11 -29 -25l-1 -2l9 -17q33 -24 37 -41q9 -13 9 -30v-8q3 -6 4 -25q0 -12 -12 -35q-28 -32 -40 -36q-42 -27 -87 -27q-25 0 -71 26q-22 8 -33 26v-1q12 -28 12 -35q12 -12 12 -26q0 -18 -28 -26h-1l-14 4q-5 -3 -6 -3h9q8 0 19 -14 q13 -6 21 -12q7 0 12 -11h2q4 0 10 -2q-8 24 -19 48q0 6 4 9h1q5 0 5 -4l-1 -5q12 -22 20 -48q1 -3 8 -4q0 -2 7 -9q6 -21 18 -21q5 -2 6 -6l21 7v1v1q0 17 15 23h3q2 0 6 -3q14 5 19 5h1q2 0 10 -3q28 33 40 33q11 0 11 7q4 7 17 17q0 2 14 10q16 19 16 32q4 17 14 36v3 q-2 27 -8 27q-11 8 -11 9q-1 2 -1 3q0 3 6 24v2l-3 16q2 19 2 21v8q0 11 6 11q4 -1 5 -1q20 7 20 8q2 13 3 46q0 72 -17 107q-12 27 -37 61q-15 23 -21 28q-9 7 -20 22l-23 17q-9 8 -11 12q-26 17 -44 26q-15 9 -21 9l-56 -23q-14 -6 -64 -12q-63 -5 -99 -5q-25 0 -41 10 q-6 -1 -40 -34q-3 -6 -20 -24q-13 -18 -20 -28q-9 -19 -16 -39q-26 -51 -26 -140v-11h1q1 11 26 59q10 11 28 11q26 0 40 -12h6h14q25 -4 25 -9q5 0 6 -11v-5q0 -20 -24 -20q-44 2 -48 8q-11 4 -20 4q-17 0 -23 -14q-21 -21 -25 -23q-3 -25 -11 -48q-9 -17 -14 -51zM442 954 q0 30 17 62l25 28q12 9 53 13q31 0 55 -22q42 -29 42 -42h1v7v4q0 32 -32 50q-18 19 -51 19t-46 -10q-11 -4 -13 -4q-4 2 -4 6q0 3 19 10q11 7 37 7h12q29 0 54 -21q33 -22 33 -54v-8q0 -5 -1 -22q1 -2 1 -4v-2q-1 -2 -3 -2v-5q6 -3 6 -14v-9q0 -12 -11 -28q-2 -10 -16 -21 q-1 0 -25 -15q-25 -9 -37 -9h-11q-37 0 -67 22q-13 8 -22 16q-5 0 -12 26q-4 15 -4 22zM451 954q5 -33 9 -33q5 6 41 28q16 15 73 22q15 0 21 1q3 -1 6 -1l1 1q4 -1 27 -3h2q0 16 -14 35q-49 43 -70 43h-14q-40 -4 -45 -13q-27 -28 -27 -35q-10 -24 -10 -45zM464 318 q6 -53 13 -81q0 -10 36 -25q19 -9 126 -21l134 -6q96 0 158 9q44 8 75 8q2 3 3 12q-1 22 -1 30q-30 -5 -42 -14q-26 -12 -46 -12q-20 -3 -32 -9q-5 3 -21 5q-66 13 -66 28q4 16 44 40q18 17 24 23h4q3 -1 3 -5q14 0 86 27q6 0 21 4h2q5 16 9 16v12l1 8h-1q-87 -12 -240 -25 q-41 -4 -156 -13q-33 -4 -122 -11h-2q-6 0 -9 1zM466 913q29 -27 59 -34q5 -1 27 -2h1v1q-15 4 -29 25q-7 16 -7 23q-3 -2 -5 -2q-5 0 -7 17q-5 -3 -10 -7q1 -7 5 -11v-3q-1 -3 -5 -3q-5 0 -8 12q-5 -3 -5 -4q2 -13 2 -16q-1 -3 -5 -3h-1q-3 0 -5 14q-7 -4 -7 -7zM478 1155 q1 3 13 8q12 9 66 20q22 9 35 9h20l24 4q5 0 5 -5v-1q0 -4 -31 -7h-18q-3 0 -56 -15q-21 -2 -46 -16q-3 -3 -6 -3q-6 0 -6 6zM493 -308q0 23 25 57q20 18 37 18q0 1 2 1q4 -1 4 -3l-1 -4l7 -34v-5q0 -6 -5 -6h-5q-21 0 -26 -14l-1 -6q0 -11 16 -18q4 -1 8 -1q15 0 24 6h1 q3 -1 3 -2v-3q0 -5 -1 -8q1 -5 1 -9v-15q0 -7 -18 -10h-10q-32 0 -54 26q-7 12 -7 23v7zM499 1192q0 15 65 23q14 3 47 7q0 1 2 1q5 -2 5 -5q0 -7 -44 -10q-43 -8 -61 -14q-7 -7 -10 -7q-3 2 -4 5zM513 946q0 -3 3 -14h1v16h1h-1q-4 -1 -4 -2zM515 1007q0 10 28 13 q22 0 38 -15v-1q0 -4 -5 -4q-18 10 -29 10h-5q-13 0 -22 -8q-5 0 -5 5zM518 849v1q0 5 4 5q9 -2 12 -2h3q30 0 75 28q23 19 23 25q9 15 9 16h4q3 -1 3 -2v-3q-12 -26 -19 -30q-22 -23 -46 -31q-32 -13 -49 -13q-19 2 -19 6zM536 1237q1 2 4 4h7q23 0 57 15q0 1 21 4 q5 -2 5 -5q0 -5 -19 -7q-39 -16 -60 -16h-9q-6 0 -6 5zM550 925q0 -13 9 -13q3 1 3 4v1q0 8 -12 10v-2zM599 -242l3 3q39 -3 39 -5l1 -3q-3 -28 -3 -34v-8q0 -16 11 -22h1q8 4 9 58q3 4 5 4q25 -6 25 -10v-2q0 -37 -14 -77q-11 -24 -31 -24q-41 0 -41 85q0 4 -5 34v1z M614 960q6 -6 10 -36v-2q0 -4 -4 -16h2l14 26q2 6 2 14q0 11 -5 11q-1 -6 -5 -6q-3 0 -5 9q-2 1 -3 1h-6v-1zM621 693q5 0 21 -17q1 0 11 -7q5 5 5 11q-7 0 -11 20q0 3 -5 4q0 2 -13 9h-1h-1l-2 -7v-2q-3 -5 -4 -11zM631 725q7 -10 16 -10h1q7 10 20 10q11 8 18 9 q6 -2 12 -2q2 0 10 10q4 3 7 3v1q-6 0 -13 7l-5 -1q-9 0 -17 8q-14 -10 -24 -10q-2 1 -3 1q-7 -18 -21 -24q-1 0 -1 -2zM647 1051q0 1 4 4q6 0 9 -17q5 -10 5 -28v-15q-1 -42 -1 -47v-3l1 -4q-2 -5 -4 -5h-3q-3 2 -3 5q0 28 1 71q0 10 -9 39zM653 1070v1q2 4 6 4 q12 -6 18 -6q10 0 23 36q6 9 10 9q2 0 4 -4q0 -2 -8 -14q-12 -36 -27 -36h-4q-22 3 -22 10zM680 1255v1q0 4 25 4q58 5 110 7q47 8 57 8q19 0 46 -18q6 -1 6 -5q0 -3 -5 -5q-4 0 -20 11q-16 7 -25 7h-5q-4 0 -61 -8q-49 -1 -124 -7q-4 0 -4 5zM693 1030q0 12 7 12q1 0 4 -3 l-1 -9v-1q0 -18 2 -31q-1 -4 -3 -5h-2q-5 0 -5 13q-2 21 -2 24zM694 871v1q0 2 5 13q1 4 1 7q-5 22 -5 25q0 2 1 17q0 2 -2 14q1 7 6 7q4 -1 4 -5v-1q0 -8 1 -17l-1 -12q0 -3 5 -27v-4q0 -11 -9 -21h-2q-1 0 -4 3zM696 1508q3 12 4 12v28v46q0 22 -2 77q6 7 44 13l12 1 q7 0 12 -22q14 -38 43 -69q10 -12 16 -18v1q2 38 4 103q0 10 22 10q4 0 39 3q8 0 8 -24q2 -28 2 -65v-86q0 -18 -14 -18q-12 -3 -22 -3h-9q-45 0 -51 6q-13 12 -33 62l-7 14q-8 -40 -8 -75v-16q-1 -6 -6 -6h-1q-13 0 -39 13q-14 9 -14 13zM718 1203q0 6 24 6q1 0 107 4 q40 -1 40 -7q14 -12 30 -16q16 -10 18 -17v-1q-1 -3 -4 -3h-2q-16 16 -29 17q-9 4 -21 15q-8 2 -20 2h-19q-99 -3 -119 -6q-4 0 -5 6zM720 -249q0 4 23 7l5 5h2q1 0 4 -1q2 0 2 1q7 -1 10 -1q2 0 37 1q5 0 11 -23v-3q0 -7 -18 -7q-16 -6 -18 -7q0 -15 4 -78q0 -9 -27 -9 q-5 0 -5 16v35q0 14 3 31q-17 -5 -22 -5q-7 0 -7 12q0 8 -4 24v2zM724 744q1 0 7 -5l5 1q2 0 4 -3v-5q0 -17 -2 -36q1 -5 2 -5q0 2 22 21q2 3 2 5q-2 8 -2 10q-11 0 -19 10q-12 7 -14 7h-5zM758 953l1 -5q13 13 42 21q22 8 57 8q41 -3 47 -9q23 -7 42 -15h1q8 20 8 33v3l2 2 v4q0 18 -14 40q-17 19 -35 28q-17 7 -35 7h-5q-34 0 -75 -35q-34 -40 -36 -72v-10zM764 937q29 -32 35 -32q5 -3 7 -3v1q-9 17 -9 27q0 18 4 29q-9 -2 -9 -6v-2v-3q-1 -3 -3 -4h-3q-4 1 -4 9q-1 -2 -2 -2l1 -1l-1 -5q2 -7 2 -9q-1 -4 -5 -4h-1q-5 2 -5 14q-4 -3 -7 -6v-3z M778 1233q2 4 6 4q57 4 65 4q27 0 69 -21q15 -3 15 -7q0 -5 -5 -5q-7 0 -49 19q-12 4 -31 5q-55 -4 -63 -4h-2q-5 0 -5 5zM804 836v1q2 3 4 3q13 -5 45 -5q31 0 61 15q44 33 44 46q0 5 5 5h1q3 -1 4 -4q0 -13 -17 -26q-16 -18 -39 -33q-31 -12 -54 -12h-9q-42 1 -44 6 q-1 2 -1 4zM809 1302v4q0 2 8 4q18 -2 21 -2q27 4 31 4q3 0 38 -10q10 0 10 -7q0 -1 -3 -4q-6 0 -42 11h-5q-23 -3 -28 -3h-3q-10 0 -18 1h-7zM811 242q0 -1 2 -2v1q0 1 -2 1zM814 486q2 -7 4 -7q53 6 110 8q27 4 45 6q0 1 14 2q1 2 5 2q1 22 1 28q0 18 -4 42l3 3h2 q4 0 7 -5l-1 -4q2 -22 2 -36q0 -13 -1 -29q4 -31 4 -49v-26q10 1 15 1h14q4 0 11 1q0 33 14 133q8 38 8 63h-1q-4 0 -5 1q-5 0 -57 -5h-80q-9 0 -17 -7q-8 -5 -10 -7v-1q0 -28 -10 -37q-7 -4 -15 -4h-1v-1q0 -20 -17 -28q-3 0 -4 -9q-4 -9 -14 -12q-12 0 -22 -23zM827 253 q0 -2 2 -18v-1q13 -7 49 -12q4 -1 10 -1q7 9 8 18v1h-3q-3 -3 -6 -3q-5 0 -5 5q0 3 8 9q3 5 3 7v1q0 2 -7 3q-6 -2 -9 -2q-3 3 -3 5q1 4 9 7q2 4 2 6v4q0 5 -8 9q-5 -1 -8 -1h-2q-19 -18 -40 -31v-3v-3zM830 926q6 -7 7 -7l2 3v2l-7 8q-2 -4 -2 -6zM836 -270q1 34 4 34t3 4 l4 2q3 0 3 -4h8q5 0 37 -3l33 2q7 0 7 -16q2 -22 2 -26q-1 -3 -4 -5h-20l-5 1v-31l1 -4q0 -1 -1 -1q1 -9 1 -14v-17q0 -7 -14 -7q-11 -4 -14 -4h-1q-4 2 -4 7v33v4v2v6v21v9q-5 2 -11 2h-25q-3 1 -4 5zM844 1025v1q0 5 21 6h1q15 0 36 -11q0 -2 2 -4v-3q-1 -3 -4 -3 q-17 11 -32 11h-8q-3 0 -12 -2q-4 1 -4 5zM858 1378l23 -12l15 -9q-13 22 -30 22h-8v-1zM886 964q1 0 6 -4h1v4h-4h-3zM893 270q9 -3 9 -10v-4q0 -3 -2 -7q2 0 4 -5q54 6 54 11q9 4 23 7q-1 3 -1 8v21h-2q-4 0 -24 -7q-24 -4 -51 -6q-10 -3 -10 -6v-2zM897 905h1q16 7 29 23 q13 11 13 18q-13 5 -20 7v-8l1 -4q-1 -3 -4 -5h-3q-3 0 -4 12l1 9q-6 2 -9 2q0 -6 -3 -10q3 -6 3 -17v-3q0 -10 -5 -24zM947 1525q0 35 6 86q-2 3 -2 4q0 24 19 28q2 0 19 3q28 -4 38 -7q20 -9 83 -28q24 -10 24 -17v-1q-14 -72 -16 -77q-1 -4 -6 -4q-6 0 -68 6 q-13 -95 -20 -166q-2 -49 -5 -49q-2 0 -3 -1q-25 6 -25 16v1q5 131 11 198q0 6 -7 6q-12 0 -43 -5q-5 2 -5 7zM955 1236q3 8 8 8q5 -2 5 -7q0 -4 -5 -6h-2q-6 1 -6 5zM956 1270q1 5 5 5q5 0 8 -5v-3q-3 -4 -6 -4q-7 1 -7 7zM959 -207q0 7 7 7q0 2 1 2h3l3 -4h9q16 2 21 2h3 q11 0 19 -18v-2q0 -8 -10 -8q-24 -2 -26 -5q2 -8 2 -13v-7q1 -1 2 -1q20 4 26 4h6q13 0 13 -23v-1q0 -7 -27 -8h-8l1 -7v-21q20 0 41 7h4q9 0 12 -28q1 0 1 -4q0 -5 -10 -6q-3 0 -32 1q-17 0 -39 -5h-6q-6 0 -9 79q-7 46 -7 54v5zM966 1212q3 7 8 7q4 0 5 -6v-1q0 -6 -8 -6 q-5 2 -5 6zM969 1181v3q1 6 6 6q7 -2 7 -7q0 -3 -8 -5q-4 1 -5 3zM974 1151v4q3 4 7 4t5 -5q-1 -7 -6 -7h-3q-1 0 -3 4zM982 1122q0 4 5 4h2q7 -2 7 -7q-3 -6 -8 -6q-6 2 -6 9zM984 1229q0 7 6 7q6 -2 6 -4v-2q0 -7 -6 -7q-6 1 -6 6zM988 1087q0 3 5 4q10 -2 10 -9 q-2 -5 -5 -5q-10 0 -10 10zM988 1176q0 4 6 5l1 -1l3 1q5 -2 5 -5q-2 -7 -7 -7h-1q-7 1 -7 7zM989 271q0 -7 2 -7q6 3 10 16v4v7q0 6 6 6q4 0 5 -15q0 -7 6 -12h1q5 4 5 11v3q0 3 -1 10q1 6 5 6q7 -2 7 -14q4 -9 7 -10h2q2 0 5 9l-1 5v6q0 4 3 5h2q6 0 6 -6v-7q1 -7 7 -7 l3 3v7q-10 31 -21 31q0 -15 -5 -15h-2q-2 0 -5 7q-5 6 -30 10q-7 6 -10 9q-7 -29 -7 -62zM993 1138q2 10 4 10h4q1 0 3 -6q-2 -9 -7 -9q-4 0 -4 5zM994 1060q0 6 8 6q6 -3 6 -7q-2 -8 -7 -8q-7 3 -7 9zM996 1201q0 2 4 5h1q7 -1 7 -6q-3 -6 -7 -6h-1q-4 2 -4 7zM1001 1099 q0 2 5 6h1q5 0 5 -6q-2 -6 -7 -6q-4 2 -4 6zM1003 345q0 -9 7 -12l24 -6q1 3 5 6q5 52 5 73v7h-15q-15 0 -24 -2v-33l-1 -7q1 -1 2 -1v-2q-2 0 -2 -2q-1 -13 -1 -21zM1005 267h3q0 2 -2 2q0 -1 -1 -2zM1009 1160q3 6 8 6q6 0 7 -7q-2 -7 -7 -7h-2q-6 0 -6 8zM1011 1125 q0 4 4 6h2q4 0 7 -5v-2q0 -5 -7 -6h-2q-4 2 -4 7zM1015 1068v1q0 1 3 3h1q10 -2 10 -7q-2 -5 -7 -5q-7 0 -7 8zM1017 1087v3q0 6 5 6q5 -2 5 -6q0 -5 -6 -7q-3 1 -4 4zM1026 1007q0 -2 1 -20v-18q13 0 16 -17q0 -33 19 -53l1 -5q2 0 5 45q1 0 1 5l-1 -1q-6 0 -9 18v8 q0 11 12 21l2 5v2q0 7 -7 9q-11 0 -19 -16q0 -7 -5 -7q-3 0 -5 6q0 9 15 22q6 4 14 4q13 0 17 -19q-5 -17 -11 -17q-3 -5 -3 -8v-7q0 -3 2 -14h1q14 21 14 40v6q0 11 -7 22q-13 11 -20 11h-4q-7 0 -23 -14q0 -2 -6 -8zM1043 956v4q2 11 9 11h2q1 0 3 -3v-1q0 -2 -5 -7v-2 q11 -17 11 -21q0 -8 -6 -8h-2q-1 0 -3 3v3l2 2q-9 15 -11 19zM1069 314q9 -16 9 -28q0 -1 -1 -7q34 4 34 8q0 22 -5 32q-11 -2 -29 -2q0 -1 -8 -3zM1089 -316q3 54 3 62v14q0 4 -2 56v16q0 9 24 11q25 0 43 -19q6 -12 6 -21q0 -20 -32 -41v-1q15 -11 51 -33l2 -3v-3 q-16 -18 -18 -18h-3q-19 7 -43 15l3 -38q-3 -2 -7 -3l-18 2q0 -1 -5 -2q-4 1 -4 5v1zM1099 1157q19 28 19 29q7 12 26 53q13 20 32 47q0 2 1 2q-3 6 -38 27q-32 25 -32 32q0 8 79 89q22 24 44 50q2 2 5 2q5 -4 14 -6l2 -3l-1 -5q24 -21 24 -27v-4q0 -2 -21 -28q0 -4 -39 -41 q0 -6 25 -27q13 -15 29 -30q3 -4 3 -7v-3q0 -11 -45 -63q-62 -80 -84 -111q-5 -4 -10 -4q-22 8 -32 23q-1 0 -1 5zM1101 512q0 6 3 9q-2 4 -2 6v1q2 5 8 5h1q1 0 2 -3q1 0 10 3q7 0 9 -20q0 -2 3 -23q10 17 14 17q3 -1 13 -19l3 -3q7 45 16 45h3q30 -2 30 -12v-2 q0 -3 -11 -46q-3 -38 -6 -59q-5 -20 -16 -20q-15 0 -35 49h-2q-14 -33 -14 -46q-3 -5 -6 -5q-8 0 -13 53q-10 63 -10 70zM1136 -30v-1q4 -2 9 -20q1 -12 4 -12q4 0 5 -8l-1 -3q15 -55 31 -55h1q17 0 17 21q0 11 -21 71q-6 9 -9 9h-7q-26 -2 -29 -2zM1210 -269q0 10 4 24 q1 3 3 3q23 -6 23 -24v-3q0 -14 -17 -17q-13 3 -13 13v4zM1226 546q0 8 4 10h1l3 -1q0 7 6 8h21q5 0 5 -20q1 -13 1 -21h1q6 9 10 9h2q3 -2 12 -20q11 -17 12 -17q14 15 22 43l3 3h3q7 0 23 -22q2 -3 2 -7v-3q-14 -34 -28 -83q-4 -9 -9 -9q-9 0 -40 44q-6 10 -7 10 q-11 -44 -14 -49l-4 -1q-9 0 -23 83q-6 28 -6 43zM1231 -139q0 5 26 23q6 6 11 6q21 -4 21 -11v-3q0 -7 -18 -19q7 -10 7 -13q6 0 14 9q2 1 3 1q8 0 15 -18v-1q0 -8 -19 -20q0 -1 7 -16q2 0 13 13h3q25 -23 25 -25v-2q-16 -11 -30 -25q-12 -14 -17 -14q-8 0 -21 32 q-18 34 -34 78q-6 2 -6 4v1zM1302 -100q11 35 23 57q1 0 3 1q15 -1 24 -2q4 1 8 1q5 -1 5 -5t-11 -30l-1 -4l36 -12q8 -3 8 -7v-3q-11 -76 -25 -90h-3q-14 6 -21 6q-2 2 -2 3q4 46 9 69v1q0 5 -49 7q-4 5 -4 7v1z" />
<glyph unicode="&#x2122;" horiz-adv-x="1440" d="M70 -167l10 3q6 0 24 -10v-1q0 -10 -6 -54q34 39 44 40q5 0 7 -27l7 -38q25 41 32 41q6 -4 15 -19v-3q0 -2 -17 -25q-18 -31 -33 -66q-1 -8 -7 -8q-9 0 -21 66q-2 7 -2 12q-19 -18 -42 -55l-3 -2q-5 0 -5 9q0 7 -2 90v8v1v5q0 9 -1 33zM114 916v3q0 13 5 13h2q3 -1 3 -3 q-1 -12 -1 -13t8 -9v-1q0 -5 -5 -5q-12 5 -12 15zM137 315l3 95v10q0 16 -1 47q1 3 5 3q17 0 55 -26q13 -12 13 -27q0 -28 -26 -39q-7 -1 -7 -3q31 -15 31 -35q0 -28 -31 -40h-11q-16 0 -29 11zM156 921v4q0 21 9 28h4q3 -2 3 -5q-7 -8 -7 -27q1 -13 12 -29v-1q-1 -4 -5 -4 q-16 13 -16 34zM186 1479q2 4 21 14q44 37 94 51q24 9 26 14q0 2 4 2q7 0 15 -30q6 -16 14 -29v-4q0 -8 -54 -34l-43 -24v-19q0 -26 5 -51q9 0 72 24h6q10 0 10 -27q3 -16 3 -25q0 -5 -35 -27q-24 -15 -39 -15q-7 -4 -7 -30v-96q0 -11 7 -44v-16q-5 -9 -49 -30q-4 1 -4 6v2 q4 5 6 13q-8 0 -9 32q-11 111 -26 232q-12 65 -12 98zM198 912v6q0 25 11 53l1 1h2q5 0 5 -4q-10 -31 -10 -55q0 -23 10 -38q-1 -4 -5 -4q-11 0 -14 41zM210 -302q0 39 23 62q0 4 9 5h2q2 0 4 -8q13 -9 13 -25v-10q0 -34 -23 -65q-4 -4 -7 -4h-3q-15 0 -18 42v3zM228 392 q0 39 17 68q10 13 16 14h2q9 -10 19 -42v-5q0 -5 -13 -9q-5 -4 -5 -17v-10q0 -21 17 -25h8q6 -1 6 -6v-26q-8 -8 -19 -8q-31 0 -43 37q-5 12 -5 29zM234 916q0 12 8 12h3q6 0 16 -10q4 -4 13 -17q3 20 11 20h2q5 0 8 -19h1q3 8 9 8q8 0 13 -23q10 13 16 13q13 -2 13 -18v-4 q0 -19 -15 -48q-10 -12 -13 -13q10 -68 10 -113v-34q0 -10 -2 -27h1q25 -2 46 -2q15 0 58 1q-5 8 -5 16q-7 0 -15 33v4q0 8 6 26q-8 16 -8 25v5q0 9 6 17q6 31 10 36v8v1q0 17 9 22q8 1 8 4q-17 31 -17 81v31q0 26 16 70q3 15 5 102q5 47 12 71q21 54 33 77q21 29 25 31 q4 3 19 24q32 28 35 28q-3 4 -5 14q0 16 17 28q9 15 27 21q50 17 71 22q63 6 73 6h7q53 0 90 -20q23 -10 42 -29q23 -26 25 -42q1 -1 1 -4v-6l-1 -5q6 -6 25 -20q8 -12 30 -32q10 -17 37 -55q26 -51 26 -73q5 -19 5 -71l-3 -47q-6 -5 -6 -8l1 -5h1q12 11 23 11q18 0 33 -21 q5 -12 5 -23q0 -30 -16 -51q-2 -9 -6 -51q-5 -14 -12 -20h-2q-4 0 -4 3q-1 0 -6 -6q0 -9 1 -9v-5v-21l3 -23q0 -10 -3 -21q28 -88 28 -110v-5q0 -80 -12 -141q-14 -94 -14 -161q-1 0 -2 -22h1q3 2 37 3q0 1 14 2q5 0 10 -24q8 -20 8 -38v-9q-1 -19 -7 -19l-28 -6 q-29 -7 -68 -15v-1q1 -23 1 -33l-8 -62q-19 -79 -19 -82q-4 -28 -11 -107q26 -3 45 -4q15 0 67 10q10 1 33 2q0 11 23 11q1 0 17 2h2q17 -1 17 -8q7 -5 21 -56q6 -15 6 -26q0 -22 -15 -28q-5 -2 -9 -2h-5q-20 0 -36 55q-8 -7 -47 -16q-82 -17 -109 -28q-29 -10 -53 -24 q-33 -22 -40 -22q-14 0 -33 34q-21 31 -67 92q-68 92 -85 110q-10 11 -12 11q-48 -38 -113 -92q-34 -25 -70 -46l-78 -65q-36 -34 -46 -55q-6 -7 -15 -25l-19 -31h-4q-31 5 -53 17q-52 29 -52 60q0 21 19 21q30 0 53 -13h3q6 0 13 13q14 13 27 59q18 52 26 76q11 29 46 115 q14 27 30 98q2 14 5 20q-4 0 -6 19q-4 17 -15 93q-7 38 -26 98q-6 0 -6 7v3h3q-7 28 -18 93l-4 10h-45q-77 0 -89 12q-4 6 -13 72q-8 48 -8 66v10q0 36 13 117q1 0 1 1q-16 26 -19 53q-6 20 -6 36zM244 914q0 -30 17 -72q7 -8 7 -11l-1 -1q19 3 31 3q15 0 20 -6q0 1 7 10 q13 25 13 43q-1 10 -4 10q-10 -7 -14 -22q-3 -2 -5 -2q-6 0 -6 18l-4 15q-2 0 -7 -21l-2 -2h-2q-5 0 -7 16q0 2 -2 14q-2 0 -3 -14v-17q0 -1 -3 -3h-1q-6 0 -9 17q-12 25 -25 30v-5zM259 -160v-4q0 -31 70 -60q7 -3 24 -6q20 30 22 37q-17 10 -47 22q-2 3 -3 7l-1 -1 q-2 0 -25 10q-12 3 -23 3h-12q-5 -2 -5 -8zM268 593q3 -27 7 -27q12 -8 98 -8h14q11 0 16 4q5 0 9 -6q-2 -5 -2 -6q6 -16 16 -83q5 -21 7 -21h2q42 0 164 11v1q0 3 2 12q-12 0 -23 15q-5 11 -6 11h-1q-2 0 -5 -1q-7 0 -25 16q-4 3 -12 12q-21 3 -31 12q-14 14 -14 26v2 q0 4 4 10v1l-16 13q-7 8 -7 15v1q-147 -3 -195 -9q0 -1 -2 -1zM297 -342q0 40 11 69q-3 0 -3 5q5 7 10 7q7 0 19 -12q15 -20 15 -32v-5q0 -23 -21 -52q-8 -8 -14 -8h-3q-12 0 -14 21v7zM306 457v3q0 6 6 6h3q21 0 30 -12q6 -29 13 -46l5 -8v14q0 15 -3 47q0 5 17 5 q8 0 9 -18q6 -49 20 -98q1 0 3 -10q0 -4 -19 -9q0 -2 -7 -3q-4 0 -13 17q-10 12 -12 13v-1q0 -4 3 -36q-3 -2 -6 -2h-19l-8 -2h-1q-4 0 -6 4q-5 0 -5 17q-5 119 -10 119zM333 962q2 7 7 7q9 -2 27 -28q13 -22 13 -48v-1q0 -20 -8 -20h-1q-1 0 -3 3v3q3 4 3 16q0 35 -30 63 q-2 -1 -4 -1q-3 0 -4 6zM384 957q0 4 5 4q4 0 8 -18q5 -7 5 -16v-2q-1 -6 -6 -6h-2q-3 1 -3 5l2 4q0 2 -7 20q-2 7 -2 9zM390 -343q0 44 4 94h1q-4 2 -4 3v2q2 3 4 3q19 -1 54 -33q11 -16 11 -27v-7q0 -28 -18 -47q-18 -11 -36 -11l-9 -3q-7 6 -7 24v2zM426 1490v26 q0 70 35 95q35 38 52 38h25q36 0 54 -22q19 -11 28 -41q4 -10 4 -20v-13q-3 -35 -5 -52q-2 -15 -29 -74q-5 -8 -26 -28q-8 -8 -36 -14q-9 -4 -13 -4h-3q-21 0 -42 13q-15 5 -25 21l-12 32q-7 15 -7 43zM435 951q0 -87 15 -104q11 -32 15 -40q1 -2 5 -2l2 -3v-2l-2 -5 q21 -13 21 -24q7 -12 24 -34l14 -18l26 -15q1 0 9 -6q5 24 14 33q3 0 4 14q5 10 13 14q5 0 12 18q1 4 11 17q5 8 5 25v7q0 12 -1 30q0 9 5 9q3 0 5 -4v-5v-32q0 -20 -5 -31q14 17 27 23q3 2 10 3v2q-1 -1 -2 -1q-7 6 -23 13q-6 7 -6 10v4q0 10 14 14h6q10 -4 10 -7v-2 q0 -1 -3 -3q-4 0 -8 3h-2q-8 0 -8 -7q1 -3 2 -3q4 4 8 4t11 -7q9 -6 19 -6h2q6 0 33 16q2 2 8 3q5 0 8 -8q10 4 10 13q-1 8 -10 20q-1 2 -8 24q-8 15 -8 24v1q0 4 4 6q-1 5 -1 11l1 3q-1 35 -3 57q-6 25 -6 32q0 36 12 56q4 12 29 42q33 29 45 29q0 1 55 3q81 -1 81 -7 q22 -7 22 -25q-5 -16 -14 -16v-5q0 -11 -29 -25l-1 -2l9 -17q33 -24 37 -41q9 -13 9 -30v-8q3 -6 4 -25q0 -12 -12 -35q-28 -32 -40 -36q-42 -27 -87 -27q-25 0 -71 26q-22 8 -33 26v-1q12 -28 12 -35q12 -12 12 -26q0 -18 -28 -26h-1l-14 4q-5 -3 -6 -3h9q8 0 19 -14 q13 -6 21 -12q7 0 12 -11h2q4 0 10 -2q-8 24 -19 48q0 6 4 9h1q5 0 5 -4l-1 -5q12 -22 20 -48q1 -3 8 -4q0 -2 7 -9q6 -21 18 -21q5 -2 6 -6l21 7v1v1q0 17 15 23h3q2 0 6 -3q14 5 19 5h1q2 0 10 -3q28 33 40 33q11 0 11 7q4 7 17 17q0 2 14 10q16 19 16 32q4 17 14 36v3 q-2 27 -8 27q-11 8 -11 9q-1 2 -1 3q0 3 6 24v2l-3 16q2 19 2 21v8q0 11 6 11q4 -1 5 -1q20 7 20 8q2 13 3 46q0 72 -17 107q-12 27 -37 61q-15 23 -21 28q-9 7 -20 22l-23 17q-9 8 -11 12q-26 17 -44 26q-15 9 -21 9l-56 -23q-14 -6 -64 -12q-63 -5 -99 -5q-25 0 -41 10 q-6 -1 -40 -34q-3 -6 -20 -24q-13 -18 -20 -28q-9 -19 -16 -39q-26 -51 -26 -140v-11h1q1 11 26 59q10 11 28 11q26 0 40 -12h6h14q25 -4 25 -9q5 0 6 -11v-5q0 -20 -24 -20q-44 2 -48 8q-11 4 -20 4q-17 0 -23 -14q-21 -21 -25 -23q-3 -25 -11 -48q-9 -17 -14 -51zM442 954 q0 30 17 62l25 28q12 9 53 13q31 0 55 -22q42 -29 42 -42h1v7v4q0 32 -32 50q-18 19 -51 19t-46 -10q-11 -4 -13 -4q-4 2 -4 6q0 3 19 10q11 7 37 7h12q29 0 54 -21q33 -22 33 -54v-8q0 -5 -1 -22q1 -2 1 -4v-2q-1 -2 -3 -2v-5q6 -3 6 -14v-9q0 -12 -11 -28q-2 -10 -16 -21 q-1 0 -25 -15q-25 -9 -37 -9h-11q-37 0 -67 22q-13 8 -22 16q-5 0 -12 26q-4 15 -4 22zM451 954q5 -33 9 -33q5 6 41 28q16 15 73 22q15 0 21 1q3 -1 6 -1l1 1q4 -1 27 -3h2q0 16 -14 35q-49 43 -70 43h-14q-40 -4 -45 -13q-27 -28 -27 -35q-10 -24 -10 -45zM464 318 q6 -53 13 -81q0 -10 36 -25q19 -9 126 -21l134 -6q96 0 158 9q44 8 75 8q2 3 3 12q-1 22 -1 30q-30 -5 -42 -14q-26 -12 -46 -12q-20 -3 -32 -9q-5 3 -21 5q-66 13 -66 28q4 16 44 40q18 17 24 23h4q3 -1 3 -5q14 0 86 27q6 0 21 4h2q5 16 9 16v12l1 8h-1q-87 -12 -240 -25 q-41 -4 -156 -13q-33 -4 -122 -11h-2q-6 0 -9 1zM466 913q29 -27 59 -34q5 -1 27 -2h1v1q-15 4 -29 25q-7 16 -7 23q-3 -2 -5 -2q-5 0 -7 17q-5 -3 -10 -7q1 -7 5 -11v-3q-1 -3 -5 -3q-5 0 -8 12q-5 -3 -5 -4q2 -13 2 -16q-1 -3 -5 -3h-1q-3 0 -5 14q-7 -4 -7 -7zM478 1155 q1 3 13 8q12 9 66 20q22 9 35 9h20l24 4q5 0 5 -5v-1q0 -4 -31 -7h-18q-3 0 -56 -15q-21 -2 -46 -16q-3 -3 -6 -3q-6 0 -6 6zM493 -308q0 23 25 57q20 18 37 18q0 1 2 1q4 -1 4 -3l-1 -4l7 -34v-5q0 -6 -5 -6h-5q-21 0 -26 -14l-1 -6q0 -11 16 -18q4 -1 8 -1q15 0 24 6h1 q3 -1 3 -2v-3q0 -5 -1 -8q1 -5 1 -9v-15q0 -7 -18 -10h-10q-32 0 -54 26q-7 12 -7 23v7zM499 1192q0 15 65 23q14 3 47 7q0 1 2 1q5 -2 5 -5q0 -7 -44 -10q-43 -8 -61 -14q-7 -7 -10 -7q-3 2 -4 5zM513 946q0 -3 3 -14h1v16h1h-1q-4 -1 -4 -2zM515 1007q0 10 28 13 q22 0 38 -15v-1q0 -4 -5 -4q-18 10 -29 10h-5q-13 0 -22 -8q-5 0 -5 5zM518 849v1q0 5 4 5q9 -2 12 -2h3q30 0 75 28q23 19 23 25q9 15 9 16h4q3 -1 3 -2v-3q-12 -26 -19 -30q-22 -23 -46 -31q-32 -13 -49 -13q-19 2 -19 6zM536 1237q1 2 4 4h7q23 0 57 15q0 1 21 4 q5 -2 5 -5q0 -5 -19 -7q-39 -16 -60 -16h-9q-6 0 -6 5zM550 925q0 -13 9 -13q3 1 3 4v1q0 8 -12 10v-2zM599 -242l3 3q39 -3 39 -5l1 -3q-3 -28 -3 -34v-8q0 -16 11 -22h1q8 4 9 58q3 4 5 4q25 -6 25 -10v-2q0 -37 -14 -77q-11 -24 -31 -24q-41 0 -41 85q0 4 -5 34v1z M614 960q6 -6 10 -36v-2q0 -4 -4 -16h2l14 26q2 6 2 14q0 11 -5 11q-1 -6 -5 -6q-3 0 -5 9q-2 1 -3 1h-6v-1zM621 693q5 0 21 -17q1 0 11 -7q5 5 5 11q-7 0 -11 20q0 3 -5 4q0 2 -13 9h-1h-1l-2 -7v-2q-3 -5 -4 -11zM631 725q7 -10 16 -10h1q7 10 20 10q11 8 18 9 q6 -2 12 -2q2 0 10 10q4 3 7 3v1q-6 0 -13 7l-5 -1q-9 0 -17 8q-14 -10 -24 -10q-2 1 -3 1q-7 -18 -21 -24q-1 0 -1 -2zM647 1051q0 1 4 4q6 0 9 -17q5 -10 5 -28v-15q-1 -42 -1 -47v-3l1 -4q-2 -5 -4 -5h-3q-3 2 -3 5q0 28 1 71q0 10 -9 39zM653 1070v1q2 4 6 4 q12 -6 18 -6q10 0 23 36q6 9 10 9q2 0 4 -4q0 -2 -8 -14q-12 -36 -27 -36h-4q-22 3 -22 10zM680 1255v1q0 4 25 4q58 5 110 7q47 8 57 8q19 0 46 -18q6 -1 6 -5q0 -3 -5 -5q-4 0 -20 11q-16 7 -25 7h-5q-4 0 -61 -8q-49 -1 -124 -7q-4 0 -4 5zM693 1030q0 12 7 12q1 0 4 -3 l-1 -9v-1q0 -18 2 -31q-1 -4 -3 -5h-2q-5 0 -5 13q-2 21 -2 24zM694 871v1q0 2 5 13q1 4 1 7q-5 22 -5 25q0 2 1 17q0 2 -2 14q1 7 6 7q4 -1 4 -5v-1q0 -8 1 -17l-1 -12q0 -3 5 -27v-4q0 -11 -9 -21h-2q-1 0 -4 3zM696 1508q3 12 4 12v28v46q0 22 -2 77q6 7 44 13l12 1 q7 0 12 -22q14 -38 43 -69q10 -12 16 -18v1q2 38 4 103q0 10 22 10q4 0 39 3q8 0 8 -24q2 -28 2 -65v-86q0 -18 -14 -18q-12 -3 -22 -3h-9q-45 0 -51 6q-13 12 -33 62l-7 14q-8 -40 -8 -75v-16q-1 -6 -6 -6h-1q-13 0 -39 13q-14 9 -14 13zM718 1203q0 6 24 6q1 0 107 4 q40 -1 40 -7q14 -12 30 -16q16 -10 18 -17v-1q-1 -3 -4 -3h-2q-16 16 -29 17q-9 4 -21 15q-8 2 -20 2h-19q-99 -3 -119 -6q-4 0 -5 6zM720 -249q0 4 23 7l5 5h2q1 0 4 -1q2 0 2 1q7 -1 10 -1q2 0 37 1q5 0 11 -23v-3q0 -7 -18 -7q-16 -6 -18 -7q0 -15 4 -78q0 -9 -27 -9 q-5 0 -5 16v35q0 14 3 31q-17 -5 -22 -5q-7 0 -7 12q0 8 -4 24v2zM724 744q1 0 7 -5l5 1q2 0 4 -3v-5q0 -17 -2 -36q1 -5 2 -5q0 2 22 21q2 3 2 5q-2 8 -2 10q-11 0 -19 10q-12 7 -14 7h-5zM758 953l1 -5q13 13 42 21q22 8 57 8q41 -3 47 -9q23 -7 42 -15h1q8 20 8 33v3l2 2 v4q0 18 -14 40q-17 19 -35 28q-17 7 -35 7h-5q-34 0 -75 -35q-34 -40 -36 -72v-10zM764 937q29 -32 35 -32q5 -3 7 -3v1q-9 17 -9 27q0 18 4 29q-9 -2 -9 -6v-2v-3q-1 -3 -3 -4h-3q-4 1 -4 9q-1 -2 -2 -2l1 -1l-1 -5q2 -7 2 -9q-1 -4 -5 -4h-1q-5 2 -5 14q-4 -3 -7 -6v-3z M778 1233q2 4 6 4q57 4 65 4q27 0 69 -21q15 -3 15 -7q0 -5 -5 -5q-7 0 -49 19q-12 4 -31 5q-55 -4 -63 -4h-2q-5 0 -5 5zM804 836v1q2 3 4 3q13 -5 45 -5q31 0 61 15q44 33 44 46q0 5 5 5h1q3 -1 4 -4q0 -13 -17 -26q-16 -18 -39 -33q-31 -12 -54 -12h-9q-42 1 -44 6 q-1 2 -1 4zM809 1302v4q0 2 8 4q18 -2 21 -2q27 4 31 4q3 0 38 -10q10 0 10 -7q0 -1 -3 -4q-6 0 -42 11h-5q-23 -3 -28 -3h-3q-10 0 -18 1h-7zM811 242q0 -1 2 -2v1q0 1 -2 1zM814 486q2 -7 4 -7q53 6 110 8q27 4 45 6q0 1 14 2q1 2 5 2q1 22 1 28q0 18 -4 42l3 3h2 q4 0 7 -5l-1 -4q2 -22 2 -36q0 -13 -1 -29q4 -31 4 -49v-26q10 1 15 1h14q4 0 11 1q0 33 14 133q8 38 8 63h-1q-4 0 -5 1q-5 0 -57 -5h-80q-9 0 -17 -7q-8 -5 -10 -7v-1q0 -28 -10 -37q-7 -4 -15 -4h-1v-1q0 -20 -17 -28q-3 0 -4 -9q-4 -9 -14 -12q-12 0 -22 -23zM827 253 q0 -2 2 -18v-1q13 -7 49 -12q4 -1 10 -1q7 9 8 18v1h-3q-3 -3 -6 -3q-5 0 -5 5q0 3 8 9q3 5 3 7v1q0 2 -7 3q-6 -2 -9 -2q-3 3 -3 5q1 4 9 7q2 4 2 6v4q0 5 -8 9q-5 -1 -8 -1h-2q-19 -18 -40 -31v-3v-3zM830 926q6 -7 7 -7l2 3v2l-7 8q-2 -4 -2 -6zM836 -270q1 34 4 34t3 4 l4 2q3 0 3 -4h8q5 0 37 -3l33 2q7 0 7 -16q2 -22 2 -26q-1 -3 -4 -5h-20l-5 1v-31l1 -4q0 -1 -1 -1q1 -9 1 -14v-17q0 -7 -14 -7q-11 -4 -14 -4h-1q-4 2 -4 7v33v4v2v6v21v9q-5 2 -11 2h-25q-3 1 -4 5zM844 1025v1q0 5 21 6h1q15 0 36 -11q0 -2 2 -4v-3q-1 -3 -4 -3 q-17 11 -32 11h-8q-3 0 -12 -2q-4 1 -4 5zM858 1378l23 -12l15 -9q-13 22 -30 22h-8v-1zM886 964q1 0 6 -4h1v4h-4h-3zM893 270q9 -3 9 -10v-4q0 -3 -2 -7q2 0 4 -5q54 6 54 11q9 4 23 7q-1 3 -1 8v21h-2q-4 0 -24 -7q-24 -4 -51 -6q-10 -3 -10 -6v-2zM897 905h1q16 7 29 23 q13 11 13 18q-13 5 -20 7v-8l1 -4q-1 -3 -4 -5h-3q-3 0 -4 12l1 9q-6 2 -9 2q0 -6 -3 -10q3 -6 3 -17v-3q0 -10 -5 -24zM947 1525q0 35 6 86q-2 3 -2 4q0 24 19 28q2 0 19 3q28 -4 38 -7q20 -9 83 -28q24 -10 24 -17v-1q-14 -72 -16 -77q-1 -4 -6 -4q-6 0 -68 6 q-13 -95 -20 -166q-2 -49 -5 -49q-2 0 -3 -1q-25 6 -25 16v1q5 131 11 198q0 6 -7 6q-12 0 -43 -5q-5 2 -5 7zM955 1236q3 8 8 8q5 -2 5 -7q0 -4 -5 -6h-2q-6 1 -6 5zM956 1270q1 5 5 5q5 0 8 -5v-3q-3 -4 -6 -4q-7 1 -7 7zM959 -207q0 7 7 7q0 2 1 2h3l3 -4h9q16 2 21 2h3 q11 0 19 -18v-2q0 -8 -10 -8q-24 -2 -26 -5q2 -8 2 -13v-7q1 -1 2 -1q20 4 26 4h6q13 0 13 -23v-1q0 -7 -27 -8h-8l1 -7v-21q20 0 41 7h4q9 0 12 -28q1 0 1 -4q0 -5 -10 -6q-3 0 -32 1q-17 0 -39 -5h-6q-6 0 -9 79q-7 46 -7 54v5zM966 1212q3 7 8 7q4 0 5 -6v-1q0 -6 -8 -6 q-5 2 -5 6zM969 1181v3q1 6 6 6q7 -2 7 -7q0 -3 -8 -5q-4 1 -5 3zM974 1151v4q3 4 7 4t5 -5q-1 -7 -6 -7h-3q-1 0 -3 4zM982 1122q0 4 5 4h2q7 -2 7 -7q-3 -6 -8 -6q-6 2 -6 9zM984 1229q0 7 6 7q6 -2 6 -4v-2q0 -7 -6 -7q-6 1 -6 6zM988 1087q0 3 5 4q10 -2 10 -9 q-2 -5 -5 -5q-10 0 -10 10zM988 1176q0 4 6 5l1 -1l3 1q5 -2 5 -5q-2 -7 -7 -7h-1q-7 1 -7 7zM989 271q0 -7 2 -7q6 3 10 16v4v7q0 6 6 6q4 0 5 -15q0 -7 6 -12h1q5 4 5 11v3q0 3 -1 10q1 6 5 6q7 -2 7 -14q4 -9 7 -10h2q2 0 5 9l-1 5v6q0 4 3 5h2q6 0 6 -6v-7q1 -7 7 -7 l3 3v7q-10 31 -21 31q0 -15 -5 -15h-2q-2 0 -5 7q-5 6 -30 10q-7 6 -10 9q-7 -29 -7 -62zM993 1138q2 10 4 10h4q1 0 3 -6q-2 -9 -7 -9q-4 0 -4 5zM994 1060q0 6 8 6q6 -3 6 -7q-2 -8 -7 -8q-7 3 -7 9zM996 1201q0 2 4 5h1q7 -1 7 -6q-3 -6 -7 -6h-1q-4 2 -4 7zM1001 1099 q0 2 5 6h1q5 0 5 -6q-2 -6 -7 -6q-4 2 -4 6zM1003 345q0 -9 7 -12l24 -6q1 3 5 6q5 52 5 73v7h-15q-15 0 -24 -2v-33l-1 -7q1 -1 2 -1v-2q-2 0 -2 -2q-1 -13 -1 -21zM1005 267h3q0 2 -2 2q0 -1 -1 -2zM1009 1160q3 6 8 6q6 0 7 -7q-2 -7 -7 -7h-2q-6 0 -6 8zM1011 1125 q0 4 4 6h2q4 0 7 -5v-2q0 -5 -7 -6h-2q-4 2 -4 7zM1015 1068v1q0 1 3 3h1q10 -2 10 -7q-2 -5 -7 -5q-7 0 -7 8zM1017 1087v3q0 6 5 6q5 -2 5 -6q0 -5 -6 -7q-3 1 -4 4zM1026 1007q0 -2 1 -20v-18q13 0 16 -17q0 -33 19 -53l1 -5q2 0 5 45q1 0 1 5l-1 -1q-6 0 -9 18v8 q0 11 12 21l2 5v2q0 7 -7 9q-11 0 -19 -16q0 -7 -5 -7q-3 0 -5 6q0 9 15 22q6 4 14 4q13 0 17 -19q-5 -17 -11 -17q-3 -5 -3 -8v-7q0 -3 2 -14h1q14 21 14 40v6q0 11 -7 22q-13 11 -20 11h-4q-7 0 -23 -14q0 -2 -6 -8zM1043 956v4q2 11 9 11h2q1 0 3 -3v-1q0 -2 -5 -7v-2 q11 -17 11 -21q0 -8 -6 -8h-2q-1 0 -3 3v3l2 2q-9 15 -11 19zM1069 314q9 -16 9 -28q0 -1 -1 -7q34 4 34 8q0 22 -5 32q-11 -2 -29 -2q0 -1 -8 -3zM1089 -316q3 54 3 62v14q0 4 -2 56v16q0 9 24 11q25 0 43 -19q6 -12 6 -21q0 -20 -32 -41v-1q15 -11 51 -33l2 -3v-3 q-16 -18 -18 -18h-3q-19 7 -43 15l3 -38q-3 -2 -7 -3l-18 2q0 -1 -5 -2q-4 1 -4 5v1zM1099 1157q19 28 19 29q7 12 26 53q13 20 32 47q0 2 1 2q-3 6 -38 27q-32 25 -32 32q0 8 79 89q22 24 44 50q2 2 5 2q5 -4 14 -6l2 -3l-1 -5q24 -21 24 -27v-4q0 -2 -21 -28q0 -4 -39 -41 q0 -6 25 -27q13 -15 29 -30q3 -4 3 -7v-3q0 -11 -45 -63q-62 -80 -84 -111q-5 -4 -10 -4q-22 8 -32 23q-1 0 -1 5zM1101 512q0 6 3 9q-2 4 -2 6v1q2 5 8 5h1q1 0 2 -3q1 0 10 3q7 0 9 -20q0 -2 3 -23q10 17 14 17q3 -1 13 -19l3 -3q7 45 16 45h3q30 -2 30 -12v-2 q0 -3 -11 -46q-3 -38 -6 -59q-5 -20 -16 -20q-15 0 -35 49h-2q-14 -33 -14 -46q-3 -5 -6 -5q-8 0 -13 53q-10 63 -10 70zM1136 -30v-1q4 -2 9 -20q1 -12 4 -12q4 0 5 -8l-1 -3q15 -55 31 -55h1q17 0 17 21q0 11 -21 71q-6 9 -9 9h-7q-26 -2 -29 -2zM1210 -269q0 10 4 24 q1 3 3 3q23 -6 23 -24v-3q0 -14 -17 -17q-13 3 -13 13v4zM1226 546q0 8 4 10h1l3 -1q0 7 6 8h21q5 0 5 -20q1 -13 1 -21h1q6 9 10 9h2q3 -2 12 -20q11 -17 12 -17q14 15 22 43l3 3h3q7 0 23 -22q2 -3 2 -7v-3q-14 -34 -28 -83q-4 -9 -9 -9q-9 0 -40 44q-6 10 -7 10 q-11 -44 -14 -49l-4 -1q-9 0 -23 83q-6 28 -6 43zM1231 -139q0 5 26 23q6 6 11 6q21 -4 21 -11v-3q0 -7 -18 -19q7 -10 7 -13q6 0 14 9q2 1 3 1q8 0 15 -18v-1q0 -8 -19 -20q0 -1 7 -16q2 0 13 13h3q25 -23 25 -25v-2q-16 -11 -30 -25q-12 -14 -17 -14q-8 0 -21 32 q-18 34 -34 78q-6 2 -6 4v1zM1302 -100q11 35 23 57q1 0 3 1q15 -1 24 -2q4 1 8 1q5 -1 5 -5t-11 -30l-1 -4l36 -12q8 -3 8 -7v-3q-11 -76 -25 -90h-3q-14 6 -21 6q-2 2 -2 3q4 46 9 69v1q0 5 -49 7q-4 5 -4 7v1z" />
<glyph unicode="&#x25fc;" horiz-adv-x="1685" d="M0 0v1685h1685v-1685h-1685z" />
</font>
</defs>
</svg>
