<svg xmlns="http://www.w3.org/2000/svg" version="1.1" xmlns:xlink="http://www.w3.org/1999/xlink" xmlns:svgjs="http://svgjs.com/svgjs" width="854" height="854"><svg id="SvgjsSvg1001" data-name="Layer 2" xmlns="http://www.w3.org/2000/svg" viewBox="0 0 854 854">
  <defs>
    <style>
      .cls-1 {
        fill: #7242ff;
      }

      .cls-2 {
        fill: #0c002e;
      }

      .cls-3 {
        fill: #fff433;
      }
    </style>
  </defs>
  <g id="SvgjsG1000">
    <g>
      <g>
        <path class="cls-1" d="M597.8114,811.3073c60.5672,18.4865,126.5028,2.0201,170.7988-42.7057,42.8705-43.2864,59.1731-106.6828,42.7002-165.6776"></path>
        <path class="cls-3" d="M648.131,840.1976c-18.848,0-37.8837-2.773-56.5441-8.4858l-20.4118-6.234,12.4681-40.8235,20.4118,6.234c53.2499,16.2001,110.4821,1.939,149.3666-37.3208,37.4459-37.7795,51.7487-93.302,37.3208-144.8839l-5.7545-20.5577,41.1154-11.509,5.7545,20.5577c18.5562,66.3435,.1251,137.7951-48.1,186.4581-36.4243,36.7787-85.3166,56.565-135.6267,56.565Z"></path>
      </g>
      <g>
        <path class="cls-1" d="M427,832.65c-105.9577,0-192.15-86.1923-192.15-192.15s86.1923-192.15,192.15-192.15c129.4969,0,234.85-105.3531,234.85-234.85,0-56.7318-20.2241-108.8558-53.8545-149.4917,133.0831,66.6354,224.6545,204.3053,224.6545,362.9917,0,223.6746-181.9754,405.65-405.65,405.65Z"></path>
        <path class="cls-3" d="M668.6757,128.4098c86.9488,70.5157,142.6243,178.1785,142.6243,298.5902,0,211.9039-172.3961,384.3-384.3,384.3-94.1796,0-170.8-76.6204-170.8-170.8s76.6204-170.8,170.8-170.8c141.2691,0,256.2-114.9309,256.2-256.2,0-29.8162-5.1178-58.4535-14.5243-85.0902M427,0c117.8524,0,213.5,95.6476,213.5,213.5s-95.6476,213.5-213.5,213.5-213.5,95.6476-213.5,213.5,95.6476,213.5,213.5,213.5c235.7048,0,427-191.2952,427-427S662.7048,0,427,0h0Z"></path>
      </g>
      <path class="cls-3" d="M362.95,555.1h-85.4c-11.8009,0-21.35-9.5491-21.35-21.35s9.5491-21.35,21.35-21.35h85.4c11.8009,0,21.35,9.5491,21.35,21.35s-9.5491,21.35-21.35,21.35Z"></path>
      <path class="cls-3" d="M427,854c-117.7169,0-213.5-95.7831-213.5-213.5s95.7831-213.5,213.5-213.5,213.5,95.7831,213.5,213.5c0,11.8009-9.5491,21.35-21.35,21.35s-21.35-9.5491-21.35-21.35c0-94.1777-76.6223-170.8-170.8-170.8s-170.8,76.6223-170.8,170.8,76.6223,170.8,170.8,170.8c11.8009,0,21.35,9.5491,21.35,21.35s-9.5491,21.35-21.35,21.35Z"></path>
      <circle class="cls-3" cx="427" cy="640.5" r="42.7"></circle>
    </g>
    <g>
      <g>
        <path class="cls-3" d="M256.1886,42.6927c-60.5672-18.4865-126.5028-2.0201-170.7988,42.7057-42.8705,43.2864-59.1731,106.6828-42.7002,165.6776"></path>
        <path class="cls-2" d="M27.8968,277.3832l-5.7545-20.5577c-18.5562-66.3435-.1251-137.7951,48.1-186.4581C120.3022,19.7863,193.9431,1.2927,262.4132,22.2882l20.4118,6.234-12.4681,40.8235-20.4118-6.234c-53.2082-16.221-110.4821-1.9599-149.3666,37.3208-37.4459,37.7795-51.7487,93.302-37.3208,144.8839l5.7545,20.5577-41.1154,11.509Z"></path>
      </g>
      <g>
        <path class="cls-3" d="M246.0045,789.9917C112.9215,723.3563,21.35,585.6864,21.35,427,21.35,203.3254,203.3254,21.35,427,21.35c105.9577,0,192.15,86.1923,192.15,192.15s-86.1923,192.15-192.15,192.15c-129.4969,0-234.85,105.3531-234.85,234.85,0,56.7318,20.2241,108.8558,53.8545,149.4917Z"></path>
        <path class="cls-2" d="M427,42.7c94.1796,0,170.8,76.6205,170.8,170.8s-76.6204,170.8-170.8,170.8c-141.2691,0-256.2,114.9309-256.2,256.2,0,29.8162,5.1177,58.4535,14.5243,85.0902-86.9488-70.5157-142.6243-178.1785-142.6243-298.5902C42.7,215.0961,215.0961,42.7,427,42.7m0-42.7C191.2951,0,0,191.2951,0,427s191.2951,427,427,427c-117.8524,0-213.5-95.6476-213.5-213.5s95.6476-213.5,213.5-213.5,213.5-95.6476,213.5-213.5S544.8524,0,427,0h0Z"></path>
      </g>
      <path class="cls-2" d="M576.45,341.6h-85.4c-11.8009,0-21.35-9.5491-21.35-21.35s9.5491-21.35,21.35-21.35h85.4c11.8009,0,21.35,9.5491,21.35,21.35s-9.5491,21.35-21.35,21.35Z"></path>
      <path class="cls-2" d="M427,427c-117.7169,0-213.5-95.7831-213.5-213.5,0-11.8009,9.5491-21.35,21.35-21.35s21.35,9.5491,21.35,21.35c0,94.1777,76.6223,170.8,170.8,170.8s170.8-76.6223,170.8-170.8S521.1777,42.7,427,42.7c-11.8009,0-21.35-9.5491-21.35-21.35S415.1991,0,427,0c117.7169,0,213.5,95.7831,213.5,213.5s-95.7831,213.5-213.5,213.5Z"></path>
      <circle class="cls-2" cx="427" cy="213.5" r="42.7"></circle>
    </g>
  </g>
</svg><style>@media (prefers-color-scheme: light) { :root { filter: none; } }
</style></svg>