<?xml version="1.0" standalone="no"?>
<!DOCTYPE svg PUBLIC "-//W3C//DTD SVG 20010904//EN"
 "http://www.w3.org/TR/2001/REC-SVG-20010904/DTD/svg10.dtd">
<svg version="1.0" xmlns="http://www.w3.org/2000/svg"
 width="700.000000pt" height="700.000000pt" viewBox="0 0 700.000000 700.000000"
 preserveAspectRatio="xMidYMid meet">
<metadata>
Created by potrace 1.14, written by Peter Selinger 2001-2017
</metadata>
<g transform="translate(0.000000,700.000000) scale(0.100000,-0.100000)"
fill="#000000" stroke="none">
<path d="M3280 6993 c-210 -20 -270 -27 -370 -44 -163 -27 -343 -72 -501 -124
l-135 -45 -115 34 c-339 100 -647 97 -967 -9 -237 -79 -424 -196 -607 -379
-273 -274 -420 -591 -456 -985 -17 -190 6 -384 78 -638 l17 -62 -47 -143 c-77
-235 -127 -469 -159 -733 -16 -139 -16 -595 0 -730 86 -707 327 -1290 760
-1835 97 -122 399 -424 522 -521 547 -432 1150 -683 1825 -759 127 -14 178
-11 85 5 -560 96 -1030 448 -1281 960 -308 630 -212 1369 250 1910 236 277
598 491 953 565 126 26 266 40 395 40 570 1 1119 306 1443 800 360 550 374
1284 35 1845 -278 461 -736 765 -1266 840 -93 13 -358 18 -459 8z m470 -368
c579 -112 1022 -559 1127 -1138 22 -123 22 -351 0 -474 -23 -125 -70 -270
-123 -375 l-44 -88 -359 0 c-230 0 -370 -4 -388 -11 -115 -43 -150 -193 -65
-282 47 -50 55 -52 294 -57 l227 -5 -88 -66 c-165 -123 -384 -218 -594 -256
-127 -23 -373 -23 -490 0 -109 22 -244 66 -344 112 -258 119 -523 377 -653
634 -81 163 -135 367 -146 552 -3 57 -12 123 -21 147 -27 75 -118 122 -198
101 -123 -34 -151 -113 -124 -357 60 -547 375 -1037 848 -1316 l89 -52 -99
-48 c-472 -231 -831 -606 -1034 -1082 -183 -428 -213 -924 -85 -1388 17 -60
29 -110 28 -112 -8 -7 -264 236 -348 331 -440 496 -699 1062 -787 1723 -23
176 -23 588 0 764 80 601 310 1139 683 1603 283 350 669 655 1086 855 363 174
702 263 1148 304 95 8 377 -3 460 -19z m-2017 -91 c3 -4 -47 -40 -111 -81
-234 -149 -422 -303 -627 -514 -172 -176 -295 -329 -417 -516 -51 -78 -97
-142 -101 -143 -21 -1 12 258 48 386 133 464 552 812 1036 863 108 11 164 13
172 5z"/>
<path d="M3403 5586 c-103 -34 -176 -98 -222 -196 -22 -46 -26 -69 -26 -140 0
-76 4 -93 33 -152 38 -77 92 -130 171 -167 47 -22 70 -26 141 -26 71 0 94 4
141 26 79 37 133 90 171 167 29 59 33 76 33 152 0 71 -4 94 -26 141 -58 124
-169 199 -302 205 -43 3 -89 -2 -114 -10z"/>
<path d="M5494 5914 c16 -41 56 -196 70 -269 52 -269 47 -581 -14 -855 -136
-612 -564 -1154 -1129 -1427 l-113 -55 33 -21 c286 -171 467 -340 626 -583
182 -277 296 -661 282 -946 -4 -63 -9 -81 -32 -111 -37 -49 -81 -71 -142 -71
-60 0 -105 22 -141 69 -24 32 -28 49 -39 183 -20 220 -59 369 -142 537 -73
146 -149 252 -268 370 -204 204 -429 325 -719 387 -144 30 -368 30 -524 -1
-197 -38 -368 -110 -533 -222 -152 -104 -156 -99 89 -99 224 0 249 -4 296 -48
93 -88 62 -246 -57 -291 -18 -7 -158 -11 -388 -11 l-359 0 -40 -81 c-96 -191
-143 -391 -143 -619 -1 -598 381 -1132 945 -1321 255 -85 544 -98 928 -39 957
145 1800 736 2278 1595 492 885 519 1975 71 2890 -164 336 -330 567 -615 853
-187 187 -236 229 -220 186z m-1842 -3847 c66 -32 141 -109 171 -175 31 -67
31 -217 0 -284 -30 -66 -102 -139 -170 -174 -52 -26 -68 -29 -153 -29 -76 0
-104 4 -142 22 -66 30 -139 102 -174 170 -26 52 -29 68 -29 153 0 112 18 161
85 234 81 88 154 117 276 113 64 -3 93 -9 136 -30z"/>
<path d="M6460 1632 c-275 -439 -656 -818 -1105 -1101 l-100 -63 130 5 c299
13 561 131 781 351 106 106 192 226 243 339 72 160 114 346 109 479 l-3 76
-55 -86z"/>
</g>
</svg>
